<?xml version="1.0" encoding="utf-8"?>
<!-- Generator: Adobe Illustrator 22.0.0, SVG Export Plug-In . SVG Version: 6.00 Build 0)  -->
<svg version="1.1" id="Layer_1" xmlns="http://www.w3.org/2000/svg" xmlns:xlink="http://www.w3.org/1999/xlink" x="0px" y="0px"
	 viewBox="0 0 32 32" style="enable-background:new 0 0 32 32;" xml:space="preserve">
<style type="text/css">
	.st0{fill:#FFFFFF;}
	.st1{fill:#666666;}
	.st2{fill:none;stroke:#888888;stroke-width:2;stroke-miterlimit:10;}
	.st3{opacity:0.5;}
</style>
<g>
	<g>
		<path class="st0" d="M4.4,26.3c-1.8,0-3.3-1.5-3.3-3.3V6c0-1.8,1.5-3.3,3.3-3.3h12.7c1.8,0,3.3,1.5,3.3,3.3v17
			c0,1.8-1.5,3.3-3.3,3.3H4.4z"/>
		<path class="st1" d="M17.1,3.8c1.3,0,2.3,1,2.3,2.3v17c0,1.3-1,2.3-2.3,2.3H4.4c-1.3,0-2.3-1-2.3-2.3V6c0-1.3,1-2.3,2.3-2.3H17.1
			 M17.1,1.8H4.4C2,1.8,0.1,3.7,0.1,6v17c0,2.4,1.9,4.3,4.3,4.3h12.7c2.4,0,4.3-1.9,4.3-4.3V6C21.4,3.7,19.4,1.8,17.1,1.8L17.1,1.8z
			"/>
	</g>
	<line class="st2" x1="4.2" y1="8.4" x2="17.3" y2="8.4"/>
	<line class="st2" x1="4.2" y1="14.5" x2="17.3" y2="14.5"/>
	<line class="st2" x1="4.2" y1="20.6" x2="17.3" y2="20.6"/>
</g>
<g>
	<path class="st0" d="M13.6,32.6c-1.8,0-3.3-1.5-3.3-3.3v-20c0-1.8,1.5-3.3,3.3-3.3h16c1.8,0,3.3,1.5,3.3,3.3v20
		c0,1.8-1.5,3.3-3.3,3.3H13.6z"/>
	<path class="st0" d="M29.6,7c1.3,0,2.3,1,2.3,2.3v20c0,1.3-1,2.3-2.3,2.3h-16c-1.3,0-2.3-1-2.3-2.3v-20c0-1.3,1-2.3,2.3-2.3H29.6
		 M29.6,5h-16C11.3,5,9.3,7,9.3,9.3v20c0,2.4,1.9,4.3,4.3,4.3h16c2.4,0,4.3-1.9,4.3-4.3v-20C33.9,7,31.9,5,29.6,5L29.6,5z"/>
</g>
<g class="st3">
	<path class="st0" d="M4.4,26.3c-1.8,0-3.3-1.5-3.3-3.3V6c0-1.8,1.5-3.3,3.3-3.3h12.7c1.8,0,3.3,1.5,3.3,3.3v17
		c0,1.8-1.5,3.3-3.3,3.3H4.4z"/>
	<path class="st0" d="M17.1,3.7c1.3,0,2.3,1,2.3,2.3v17c0,1.3-1,2.3-2.3,2.3H4.4c-1.3,0-2.3-1-2.3-2.3V6c0-1.3,1-2.3,2.3-2.3H17.1
		 M17.1,1.7H4.4C2,1.7,0.1,3.6,0.1,6v17c0,2.4,1.9,4.3,4.3,4.3h12.7c2.4,0,4.3-1.9,4.3-4.3V6C21.4,3.6,19.4,1.7,17.1,1.7L17.1,1.7z"
		/>
</g>
<g>
	<g>
		<path class="st0" d="M14.9,31.1c-1.8,0-3.3-1.5-3.3-3.3v-17c0-1.8,1.5-3.3,3.3-3.3h12.7c1.8,0,3.3,1.5,3.3,3.3v17
			c0,1.8-1.5,3.3-3.3,3.3H14.9z"/>
		<path class="st1" d="M27.6,8.5c1.3,0,2.3,1,2.3,2.3v17c0,1.3-1,2.3-2.3,2.3H14.9c-1.3,0-2.3-1-2.3-2.3v-17c0-1.3,1-2.3,2.3-2.3
			H27.6 M27.6,6.5H14.9c-2.4,0-4.3,1.9-4.3,4.3v17c0,2.4,1.9,4.3,4.3,4.3h12.7c2.4,0,4.3-1.9,4.3-4.3v-17
			C31.9,8.4,29.9,6.5,27.6,6.5L27.6,6.5z"/>
	</g>
	<line class="st2" x1="14.7" y1="13.1" x2="27.8" y2="13.1"/>
	<line class="st2" x1="14.7" y1="19.2" x2="27.8" y2="19.2"/>
	<line class="st2" x1="14.7" y1="25.4" x2="27.8" y2="25.4"/>
</g>
</svg>
