<?xml version="1.0" encoding="utf-8"?>
<!-- Generator: Adobe Illustrator 22.0.0, SVG Export Plug-In . SVG Version: 6.00 Build 0)  -->
<svg version="1.1" id="Layer_1" xmlns="http://www.w3.org/2000/svg" xmlns:xlink="http://www.w3.org/1999/xlink" x="0px" y="0px"
	 viewBox="0 0 84.8 90.5" style="enable-background:new 0 0 84.8 90.5;" xml:space="preserve">
<style type="text/css">
	.st0{opacity:0.7;}
	.st1{fill:none;stroke:#0071BC;stroke-width:4.8929;stroke-linecap:round;stroke-miterlimit:10;}
	.st2{fill:#EEEEEE;}
	.st3{fill:#0071BC;}
	.st4{fill:none;stroke:#0071BC;stroke-width:2.4451;stroke-linecap:round;stroke-miterlimit:10;}
	.st5{fill-rule:evenodd;clip-rule:evenodd;fill:#0071BC;}
	.st6{fill:#D2ECF9;}
	.st7{font-family:'Helvetica';}
	.st8{font-size:34px;}
</style>
<g>
	<g class="st0">
		<g>
			<line class="st1" x1="30.7" y1="23.7" x2="69.8" y2="23.7"/>
		</g>
		<g>
			<path class="st2" d="M56.9,6.3V14c0,6.8,5.5,12.3,12.3,12.3h8.7v57.9H21.1V6.3H56.9 M63,0.3H19c-2.1,0-3.9,1.7-3.9,3.9v82.1
				c0,2.1,1.7,3.9,3.9,3.9H80c2.1,0,3.9-1.7,3.9-3.9V20.2c0-0.1-0.1-0.2-0.2-0.2c0,0,0,0-0.1,0c-0.5,0.2-1,0.3-1.6,0.3H69.2
				c-3.5,0-6.3-2.8-6.3-6.3V1.2C62.9,0.9,62.9,0.6,63,0.3L63,0.3z"/>
		</g>
		<g>
			<path class="st3" d="M61.2,2.8V14c0,4.8,3.9,8.8,8.8,8.8h12.2v63.5c0,0.8-0.7,1.4-1.4,1.4H19.7c-0.8,0-1.4-0.7-1.4-1.4V4.2
				c0-0.8,0.7-1.4,1.4-1.4H61.2 M63.7,0.3h-44c-2.1,0-3.9,1.7-3.9,3.9v82.1c0,2.1,1.7,3.9,3.9,3.9h61.1c2.1,0,3.9-1.7,3.9-3.9V20.2
				c0-0.1-0.1-0.2-0.2-0.2c0,0,0,0-0.1,0c-0.5,0.2-1,0.3-1.6,0.3H70c-3.5,0-6.3-2.8-6.3-6.3V1.2C63.7,0.9,63.7,0.6,63.7,0.3
				L63.7,0.3z"/>
		</g>
		<g>
			<line class="st4" x1="83.5" y1="20.7" x2="63.3" y2="1.6"/>
		</g>
		<g>
			<line class="st1" x1="30.1" y1="56.7" x2="69.2" y2="56.7"/>
		</g>
		<g>
			<line class="st1" x1="30.1" y1="73.3" x2="69.2" y2="73.3"/>
		</g>
		<g>
			<line class="st1" x1="30.1" y1="40.2" x2="69.2" y2="40.2"/>
		</g>
	</g>
	<g>
		<path class="st5" d="M69.9,64.2H11.5c-6,0-11-4.9-11-11v-22c0-6,4.9-11,11-11h58.4c6,0,11,4.9,11,11v22
			C80.9,59.3,76,64.2,69.9,64.2z"/>
		<text transform="matrix(1 0 0 1 8.6034 54.5625)" class="st6 st7 st8">html</text>
	</g>
</g>
</svg>
