<?xml version="1.0" encoding="utf-8"?>
<!-- Generator: Adobe Illustrator 22.0.0, SVG Export Plug-In . SVG Version: 6.00 Build 0)  -->
<svg version="1.1" id="Layer_1" xmlns="http://www.w3.org/2000/svg" xmlns:xlink="http://www.w3.org/1999/xlink" x="0px" y="0px"
	 viewBox="0 0 32 32" style="enable-background:new 0 0 32 32;" xml:space="preserve">
<style type="text/css">
	.st0{fill:#FFFFFF;}
	.st1{fill:#666666;}
	.st2{fill:#FFFFFF;stroke:#666666;stroke-width:2;stroke-miterlimit:10;}
	.st3{fill:#FFFFFF;stroke:#444444;stroke-width:3;stroke-miterlimit:10;}
</style>
<g>
	<path class="st0" d="M7.2,28.1c-1.8,0-3.3-1.5-3.3-3.3V7.2c0-1.8,1.5-3.3,3.3-3.3h17.7c1.8,0,3.3,1.5,3.3,3.3v17.7
		c0,1.8-1.5,3.3-3.3,3.3H7.2z"/>
	<path class="st1" d="M24.8,4.9c1.3,0,2.3,1,2.3,2.3v17.7c0,1.3-1,2.3-2.3,2.3H7.2c-1.3,0-2.3-1-2.3-2.3V7.2c0-1.3,1-2.3,2.3-2.3
		H24.8 M24.8,2.9H7.2c-2.4,0-4.3,1.9-4.3,4.3v17.7c0,2.4,1.9,4.3,4.3,4.3h17.7c2.4,0,4.3-1.9,4.3-4.3V7.2
		C29.1,4.8,27.2,2.9,24.8,2.9L24.8,2.9z"/>
</g>
<path class="st2" d="M28,0"/>
<path class="st3" d="M8.2,19.7l5.5,3.7c0,0,2.8-15.7,10.1-14.7"/>
</svg>
