<?xml version="1.0" encoding="utf-8"?>
<!-- Generator: Adobe Illustrator 22.0.0, SVG Export Plug-In . SVG Version: 6.00 Build 0)  -->
<svg version="1.1" id="Layer_1" xmlns="http://www.w3.org/2000/svg" xmlns:xlink="http://www.w3.org/1999/xlink" x="0px" y="0px"
	 viewBox="0 0 32 32" style="enable-background:new 0 0 32 32;" xml:space="preserve">
<style type="text/css">
	.st0{fill:#FFFFFF;}
	.st1{fill:#666666;}
	.st2{fill:#AAAAAA;stroke:#444444;stroke-miterlimit:10;}
	.st3{fill:none;stroke:#444444;stroke-width:2;stroke-miterlimit:10;}
	.st4{fill:#CCCCCC;stroke:#888888;stroke-miterlimit:10;}
	.st5{fill:none;stroke:#888888;stroke-width:2;stroke-miterlimit:10;}
</style>
<g>
	<path class="st0" d="M6,29.2c-1.8,0-3.3-1.5-3.3-3.3V6c0-1.8,1.5-3.3,3.3-3.3H26c1.8,0,3.3,1.5,3.3,3.3V26c0,1.8-1.5,3.3-3.3,3.3H6
		z"/>
	<path class="st1" d="M26,3.8c1.3,0,2.3,1,2.3,2.3V26c0,1.3-1,2.3-2.3,2.3H6c-1.3,0-2.3-1-2.3-2.3V6c0-1.3,1-2.3,2.3-2.3H26 M26,1.8
		H6C3.7,1.8,1.8,3.7,1.8,6V26c0,2.4,1.9,4.3,4.3,4.3H26c2.4,0,4.3-1.9,4.3-4.3V6C30.2,3.7,28.3,1.8,26,1.8L26,1.8z"/>
</g>
<g>
	<circle class="st2" cx="8" cy="8" r="2"/>
	<line class="st3" x1="13" y1="8" x2="27" y2="8"/>
</g>
<g>
	<circle class="st4" cx="10" cy="16" r="2"/>
	<line class="st5" x1="15" y1="16" x2="26" y2="16"/>
</g>
<g>
	<circle class="st4" cx="10" cy="24" r="2"/>
	<line class="st5" x1="15" y1="24" x2="26" y2="24"/>
</g>
</svg>
