<?xml version="1.0" encoding="utf-8"?>
<!-- Generator: Adobe Illustrator 22.0.0, SVG Export Plug-In . SVG Version: 6.00 Build 0)  -->
<svg version="1.1" id="Layer_1" xmlns="http://www.w3.org/2000/svg" xmlns:xlink="http://www.w3.org/1999/xlink" x="0px" y="0px"
	 viewBox="0 0 32 32" style="enable-background:new 0 0 32 32;" xml:space="preserve">
<style type="text/css">
	.st0{fill:#FFFFFF;}
	.st1{fill:#666666;}
	.st2{fill:#AAAAAA;stroke:#444444;stroke-miterlimit:10;}
	.st3{fill:none;stroke:#444444;stroke-width:2;stroke-miterlimit:10;}
	.st4{fill:#CCCCCC;stroke:#888888;stroke-miterlimit:10;}
	.st5{fill:none;stroke:#888888;stroke-width:2;stroke-miterlimit:10;}
</style>
<g>
	<path class="st0" d="M7.2,28.1c-1.8,0-3.3-1.5-3.3-3.3V7.2c0-1.8,1.5-3.3,3.3-3.3h17.7c1.8,0,3.3,1.5,3.3,3.3v17.7
		c0,1.8-1.5,3.3-3.3,3.3H7.2z"/>
	<path class="st1" d="M24.8,4.9c1.3,0,2.3,1,2.3,2.3v17.7c0,1.3-1,2.3-2.3,2.3H7.2c-1.3,0-2.3-1-2.3-2.3V7.2c0-1.3,1-2.3,2.3-2.3
		H24.8 M24.8,2.9H7.2c-2.4,0-4.3,1.9-4.3,4.3v17.7c0,2.4,1.9,4.3,4.3,4.3h17.7c2.4,0,4.3-1.9,4.3-4.3V7.2
		C29.1,4.8,27.2,2.9,24.8,2.9L24.8,2.9z"/>
</g>
<g>
	<circle class="st2" cx="10" cy="9.9" r="1.5"/>
	<line class="st3" x1="13.8" y1="9.9" x2="24.5" y2="9.9"/>
</g>
<g>
	<circle class="st4" cx="11.5" cy="16" r="1.5"/>
	<line class="st5" x1="15.3" y1="16" x2="23.7" y2="16"/>
</g>
<g>
	<circle class="st4" cx="11.5" cy="22.1" r="1.5"/>
	<line class="st5" x1="15.3" y1="22.1" x2="23.7" y2="22.1"/>
</g>
</svg>
