<?xml version="1.0" encoding="utf-8"?>
<!-- Generator: Adobe Illustrator 22.0.0, SVG Export Plug-In . SVG Version: 6.00 Build 0)  -->
<svg version="1.1" id="Layer_1" xmlns="http://www.w3.org/2000/svg" xmlns:xlink="http://www.w3.org/1999/xlink" x="0px" y="0px"
	 viewBox="0 0 84.2 89.9" style="enable-background:new 0 0 84.2 89.9;" xml:space="preserve">
<style type="text/css">
	.st0{opacity:0.6;}
	.st1{fill:none;stroke:#F15642;stroke-width:4.8929;stroke-linecap:round;stroke-miterlimit:10;}
	.st2{fill:#EEEEEE;}
	.st3{fill:#F15642;}
	.st4{fill:none;stroke:#F15642;stroke-width:2.4451;stroke-linecap:round;stroke-miterlimit:10;}
	.st5{fill:#F9E2E1;}
	.st6{font-family:'Helvetica';}
	.st7{font-size:34px;}
</style>
<g>
	<g class="st0">
		<g>
			<line class="st1" x1="30.2" y1="23.3" x2="69.3" y2="23.3"/>
		</g>
		<g>
			<path class="st2" d="M56.4,6v7.7c0,6.8,5.5,12.3,12.3,12.3h8.7v57.9H20.6V6H56.4 M62.5,0h-44c-2.1,0-3.9,1.7-3.9,3.9V86
				c0,2.1,1.7,3.9,3.9,3.9h61c2.1,0,3.9-1.7,3.9-3.9V19.9c0-0.1-0.1-0.2-0.2-0.2c0,0,0,0-0.1,0c-0.5,0.2-1,0.3-1.6,0.3H68.7
				c-3.5,0-6.3-2.8-6.3-6.3V0.9C62.4,0.6,62.4,0.3,62.5,0L62.5,0z"/>
		</g>
		<g>
			<path class="st3" d="M60.7,2.4v11.3c0,4.8,3.9,8.8,8.8,8.8h12.2V86c0,0.8-0.7,1.4-1.4,1.4H19.2c-0.8,0-1.4-0.7-1.4-1.4V3.9
				c0-0.8,0.7-1.4,1.4-1.4L60.7,2.4 M63.2,0h-44c-2.1,0-3.9,1.7-3.9,3.9V86c0,2.1,1.7,3.9,3.9,3.9h61.1c2.1,0,3.9-1.7,3.9-3.9V19.9
				c0-0.1-0.1-0.2-0.2-0.2c0,0,0,0-0.1,0c-0.5,0.2-1,0.3-1.6,0.3H69.4c-3.5,0-6.3-2.8-6.3-6.3V0.9C63.1,0.6,63.2,0.3,63.2,0L63.2,0z
				"/>
		</g>
		<g>
			<line class="st4" x1="83" y1="20.4" x2="62.8" y2="1.2"/>
		</g>
		<g>
			<line class="st1" x1="29.5" y1="56.4" x2="68.7" y2="56.4"/>
		</g>
		<g>
			<line class="st1" x1="29.5" y1="72.9" x2="68.7" y2="72.9"/>
		</g>
		<g>
			<line class="st1" x1="29.5" y1="39.9" x2="68.7" y2="39.9"/>
		</g>
	</g>
	<g>
		<path class="st3" d="M69.7,64.2h-59C4.8,64.2,0,59.2,0,53V31.4c0-6.2,4.8-11.2,10.7-11.2h58.9c5.9,0,10.7,5,10.7,11.2v21.5
			C80.4,59.2,75.6,64.2,69.7,64.2z"/>
		<text transform="matrix(1 0 0 1 16.5088 52.2616)" class="st5 st6 st7">pdf</text>
	</g>
</g>
</svg>
