<?xml version="1.0" encoding="utf-8"?>
<!-- Generator: Adobe Illustrator 22.0.0, SVG Export Plug-In . SVG Version: 6.00 Build 0)  -->
<svg version="1.1" id="Layer_1" xmlns="http://www.w3.org/2000/svg" xmlns:xlink="http://www.w3.org/1999/xlink" x="0px" y="0px"
	 viewBox="0 0 72.3 82.4" style="enable-background:new 0 0 72.3 82.4;" xml:space="preserve">
<style type="text/css">
	.st0{fill:#F9F9F9;}
	.st1{fill:#FFFFFF;}
	.st2{fill:#F5F5F5;}
	.st3{opacity:0.8;}
	.st4{opacity:0.45;fill:#41B7F2;stroke:#358DC4;stroke-miterlimit:10;enable-background:new    ;}
	.st5{opacity:0.45;fill:#60CE4D;stroke:#4AA53D;stroke-miterlimit:10;enable-background:new    ;}
	.st6{opacity:0.45;fill:#60CE4D;stroke:#299B19;stroke-miterlimit:10;enable-background:new    ;}
	.st7{fill:#F5F5F5;stroke:#F5F5F5;stroke-miterlimit:10;}
	.st8{fill:none;}
	.st9{fill:#888888;stroke:#444444;stroke-miterlimit:10;}
	.st10{fill:none;stroke:#888888;stroke-miterlimit:10;}
	.st11{fill:#CCCCCC;stroke:#888888;stroke-miterlimit:10;}
	.st12{fill:#999999;stroke:#444444;stroke-miterlimit:10;}
	.st13{fill:#EEEEEE;stroke:#444444;stroke-miterlimit:10;}
	.st14{fill:#444444;stroke:#666666;stroke-width:0.25;stroke-miterlimit:10;}
	.st15{fill:#666666;stroke:#444444;stroke-miterlimit:10;}
</style>
<path class="st0" d="M41.6,81.2c-0.5,0-1,0-1.5,0c-0.1,0-0.3,0-0.4,0h-0.2c-0.3,0-0.6,0-0.9-0.1c-0.2,0-0.4,0-0.6-0.1h-0.1
	c-0.2,0-0.5-0.1-0.7-0.1c-0.3,0-0.5-0.1-0.8-0.1c-0.2,0-0.4-0.1-0.6-0.1c-0.3-0.1-0.6-0.1-0.9-0.2l-0.2-0.1
	c-0.3-0.1-0.6-0.2-0.9-0.2l-0.3-0.1c-0.4-0.1-0.7-0.2-1-0.3h-0.1C27.2,78,22.7,75,19.2,71l0,0l-0.1-0.1c-0.3-0.3-0.6-0.7-0.8-1
	l-0.1-0.1C14.1,64.5,12,58.2,12,51.5c0-12,7.1-22.7,18-27.4l0.1-0.1h0.1c0.4-0.2,0.7-0.3,1.1-0.4h0.1c0.4-0.2,0.9-0.3,1.3-0.4
	c0.5-0.2,0.9-0.3,1.4-0.4h0.1c0.4-0.1,0.8-0.2,1.3-0.3h0.2c0.4-0.1,0.8-0.2,1.2-0.2h0.2c0.4-0.1,0.8-0.1,1.2-0.1h0.4
	c0.4,0,0.8-0.1,1.2-0.1h0.3c0.5,0,1,0,1.5,0s1,0,1.5,0c12.8,0.6,23.7,9.4,27.2,21.8c0.7,2.6,1.1,5.3,1.1,8c0,14.2-10.1,26.5-24,29.3
	L47,81.3c-0.4,0.1-0.8,0.1-1.2,0.2c-0.2,0-0.4,0.1-0.6,0.1c-0.4,0-0.8,0.1-1.2,0.1h-0.5C42.8,81.2,42.2,81.2,41.6,81.2z"/>
<path class="st1" d="M23,15.8l0.9-1.4c-0.3,0-0.6,0-0.9,0V15.8z"/>
<path class="st2" d="M22,16.3c0.4,0.4,0.7,0.9,0.7,1.5v2c0.8-0.4,1.6-0.8,2.5-1.1c0.4-0.2,0.9-0.4,1.3-0.5c0.5-0.2,0.9-0.3,1.4-0.5
	s1-0.3,1.4-0.4c0.5-0.1,0.9-0.2,1.4-0.3H31c0.4-0.1,0.8-0.2,1.2-0.2l0.3-0.1c0.4-0.1,0.8-0.1,1.2-0.2H34c0.4,0,0.8-0.1,1.2-0.1h0.3
	c0.5,0,1,0,1.5,0s1,0,1.5,0s0.9,0.1,1.4,0.1c-0.9-0.7-1.9-1.2-3-1.6l-14.4,3.4l3.2-4.9c-1.2,0-2.6,0.1-3.9,0.1
	C22,13.5,22,16.3,22,16.3z"/>
<g class="st3">
	<ellipse class="st4" cx="41.6" cy="51.4" rx="27.7" ry="27.8"/>
	<path class="st5" d="M53.9,67c-1-1.4-6,1.7-7.5,0.8c-0.7-0.4-4.3-2.3-4.8-3c-1-1.2,0.2-4.2-1.4-4.7c-0.8-0.3-2.6,0.2-3.4,0.1
		c-0.9-0.1-2.8,0.1-3.6-0.3c-0.8-0.4-1.9-2.6-2.7-2.8c-1.6-0.3-6.3,1.5-6.3,1.5l-2.6,1.3L19.3,63c4.5,1.6,10.5,3.6,13.2,4.4
		c-2.8-0.8-8.8-2.9-13.2-4.4l-0.6,0.9l1,4.6c0.3,0.4,0.6,0.8,0.9,1.1c0,0,4.5,0.1,5.4,1.2c0.8,0.9,2.8,1.2,3.5,1.8
		c1,0.7,2.2,4.4,2.2,4.4l0.1,0.4c3.1,1.2,6.4,1.8,9.8,1.8c2.4,0,4.7-0.3,6.9-0.9l0.6-3.3l0.2-1.1c0,0,2.7-1.8,3.3-2.7
		C53.2,70.4,54.6,67.9,53.9,67z"/>
	<path class="st6" d="M68.2,46c0-0.1,0-0.2,0-0.3c0-0.2,0-0.3,0-0.5c0-0.1,0-0.2,0-0.3s0-0.3,0-0.4c0-0.1,0-0.1,0-0.2
		c0-0.1,0-0.3,0-0.4c0,0,0,0,0-0.1s0-0.1-0.1-0.2c-0.1-0.4-0.2-0.8-0.4-1.2c-0.1-0.2-0.1-0.3-0.2-0.5c0-0.1-0.1-0.3-0.1-0.4
		c-0.1-0.2-0.1-0.3-0.2-0.5S67,40.6,67,40.4c-0.1-0.2-0.2-0.5-0.3-0.7c0-0.1-0.1-0.2-0.1-0.3c-0.1-0.1-0.1-0.3-0.2-0.4
		c-0.1-0.3-0.3-0.5-0.4-0.8c-0.1-0.2-0.2-0.3-0.3-0.5c0-0.1-0.1-0.2-0.1-0.3c-0.1-0.2-0.3-0.4-0.4-0.6c-0.1-0.1-0.2-0.3-0.3-0.4
		c-0.1-0.2-0.2-0.3-0.3-0.4c-0.1-0.2-0.3-0.4-0.4-0.6l-0.1-0.1L64,35.2c-0.3-0.4-0.5-0.7-0.8-1.1c0,0,0,0,0-0.1
		c-0.1-0.1-0.2-0.3-0.3-0.4c-0.1-0.1-0.1-0.1-0.2-0.2c-0.2-0.2-0.3-0.4-0.5-0.6c-0.1-0.1-0.2-0.2-0.3-0.3l-0.1-0.1
		c-0.2-0.2-0.4-0.4-0.6-0.7l0,0c-0.1-0.1-0.3-0.3-0.4-0.4c-0.1-0.1-0.3-0.2-0.4-0.4c-0.1-0.1-0.2-0.2-0.3-0.3
		c-0.1-0.1-0.3-0.2-0.4-0.4l-0.1-0.1c-0.1-0.1-0.3-0.2-0.4-0.3c-0.1-0.1-0.2-0.1-0.3-0.2s-0.2-0.2-0.3-0.3c-0.3-0.3-0.7-0.5-1-0.8
		c-0.1-0.1-0.2-0.2-0.4-0.3c-0.4-0.2-0.7-0.5-1.1-0.7c-0.1-0.1-0.2-0.1-0.2-0.2c-0.2-0.1-0.3-0.2-0.5-0.3c0,0-0.1,0-0.1-0.1
		c-0.1,0-0.1-0.1-0.2-0.1l0,0c-0.6-0.3-1.2-0.7-1.8-1l0,0c-0.5-0.2-1-0.4-1.4-0.6l0,0l0,0c-3.2-1.3-6.8-2.1-10.5-2.1
		c-3.9,0-7.5,0.8-10.9,2.2c-0.2,0.9-0.9,2.5-0.9,3c0.1,0,7.1-7.1,6.2-2.3c-0.6,3.1-4.3,2-4,5.1c6,2.3,4.5-4.5,9.6-4.4
		c1.7,0,7.6-1.6,8.4-1c3.3,2.2-0.8,10-3.3,7.4c-2.5-2.5-6.6-1.2-6.4,2.6c1.3,0.1,2.4-1.6,3.6-0.3c1.3,1.4,0.8,4.1-0.9,4.7
		c-1.8,0.6-7.3-3.4-5.6,0.6c1.9,4.5-6.9,6.7,0.6,4.9c3.6-0.9,2.4,1.9,4.1,3.2c2,1.5,1.1-3.6,2.6-3.1c2.1,0.8-0.4,4.5,2.9,2.9
		c3.9-1.8,2.4,1,3.6,2.8c2.2,3.4,5.8,5,8.6,0.5c0.5-0.8,2.4-4.1,4.1-4.1c0.1,0,0.2,0,0.3,0c0,0,0,0,0.1,0c0.2,0.1,0.5,0.2,0.7,0.4
		l0,0c0.1,0.1,0.3,0.2,0.4,0.4c0.3,0.3,0.6,0.6,0.9,1c1.2,1.5,1.6,1,1.9-0.3l0,0l0,0c0-0.2,0.1-0.4,0.1-0.6c0,0,0,0,0-0.1
		c0-0.2,0-0.5,0-0.7c0-0.1,0-0.1,0-0.2c0-0.2,0-0.4,0-0.6C68.1,46.7,68.1,46.3,68.2,46L68.2,46C68.2,46.4,68.2,46.2,68.2,46z"/>
</g>
<g>
	<path class="st7" d="M1.4,64.8V55h6.1c1,0,1.6-0.1,2-0.1c0.1-0.4,0.3-1.9,0.3-7v-24c0-4.1-0.1-5.8-0.2-6.4c-0.5,0-1.2-0.1-2.4-0.1
		H1.6V7.6l12-0.6c7.1-0.3,11.6-0.5,13.9-0.5c8.2,0,14.5,1.3,19.2,3.9c4.9,2.6,8.5,6.3,10.8,10.8c2.3,4.4,3.5,9.5,3.5,15.2
		c0,4.1-0.6,7.9-1.9,11.4c-1.3,3.7-3.2,6.7-5.4,9c-2.5,2.5-5.2,4.3-8,5.4c-2.7,1.1-5.6,1.9-8.2,2.2c-2.2,0.3-5.3,0.4-10,0.4H1.4z
		 M25.5,54.7c0.5,0.1,1.5,0.2,3.3,0.2c3.7,0,6.8-0.5,9.1-1.5c2-0.8,3.6-2.5,5-5.2c1.5-2.9,2.3-6.7,2.3-11.4c0-3.7-0.5-7.1-1.4-10
		c-0.9-2.7-2.1-4.8-3.7-6.4c-1.6-1.6-3.3-2.7-5-3.2c-2.2-0.6-5.1-1-8.3-1h-1.5v29.2c0,4.6,0.1,7,0.2,8.2c0,0.4,0,0.7,0,0.9V54.7z"/>
	<path class="st7" d="M2.4,63.8V56h5.1c2.1,0,2.8-0.3,2.8-0.3c0.1-0.1,0.2-0.3,0.2-0.5c0.1-0.4,0.3-1.9,0.3-7.4v-24
		c0-5.1-0.2-6.6-0.3-7c0-0.1-0.1-0.3-0.1-0.3C10,16.4,9,16.3,7.1,16.3H2.6V8.6l11-0.5c6.8-0.3,11.5-0.5,13.9-0.5
		c7.9,0,14.1,1.2,18.7,3.8c4.7,2.6,8.2,6,10.4,10.4C58.9,26,60,30.9,60,36.5c0,4-0.6,7.7-1.8,11c-1.2,3.4-3,6.3-5.2,8.6
		c-2.2,2.2-4.8,4.1-7.7,5.2c-2.8,1.1-5.5,1.8-8,2.1c-2.3,0.3-5.7,0.4-9.9,0.4H2.4z M24.6,55.6c0,0,0.8,0.4,4.2,0.4
		c3.9,0,7-0.5,9.5-1.5c2.1-0.9,4-2.8,5.5-5.6c1.6-3.1,2.5-7,2.5-11.8c0-3.9-0.5-7.4-1.4-10.3s-2.2-5.1-4-6.8
		c-1.6-1.6-3.5-2.9-5.4-3.5c-2.1-0.6-5.1-1-8.6-1c-0.8,0-1.7,0-2.6,0v30.2c0,6.2,0.2,8.4,0.2,9.1C24.4,55.2,24.6,55.5,24.6,55.6
		L24.6,55.6z"/>
	<path class="st7" d="M2.4,63.8V56h5.1c1.7,0,2.4-0.2,2.6-0.3l0,0l0.1-0.1l0,0c0,0,0.1-0.2,0.2-0.6c0.2-1.1,0.3-3.6,0.3-7.3V23.9
		c0-5.3-0.2-6.8-0.3-7.1c0-0.2-0.1-0.3-0.1-0.4C10,16.3,9.1,16.1,7,16.1H2.6V8.5L13.7,8c6.6-0.3,11.4-0.5,13.9-0.5
		c7.8,0,14.1,1.2,18.7,3.7c4.7,2.6,8.2,6.1,10.4,10.4c2.2,4.3,3.4,9.2,3.4,14.8c0,3.9-0.6,7.6-1.8,11.1c-1.3,3.5-3,6.3-5.2,8.6
		c-2.4,2.4-4.9,4.1-7.7,5.2c-2.8,1.2-5.5,1.9-8.1,2.1c-2.2,0.3-5.2,0.4-9.9,0.4H2.4z M24.6,55.5c0.2,0.1,1.2,0.3,4.1,0.3
		c4,0,7.1-0.5,9.4-1.5c2.2-0.9,4-2.9,5.6-5.7c1.6-2.9,2.4-6.9,2.4-11.9c0-3.9-0.5-7.4-1.5-10.3c-1-3-2.3-5.2-3.9-6.9
		c-1.6-1.7-3.4-2.8-5.4-3.4c-2.1-0.7-4.9-1-8.6-1c-0.9,0-1.7,0-2.6,0v31.4H24c0,4.8,0.1,7.1,0.3,7.9v0.1v0.1
		C24.4,55.3,24.6,55.4,24.6,55.5z"/>
	<path class="st7" d="M3.4,62.8v-5.7h4.1c2.3,0,3.2-0.4,3.3-0.5c0.2-0.1,0.5-0.4,0.7-1.2c0.1-0.6,0.3-2.2,0.3-7.6V23.9
		c0-5-0.2-6.7-0.3-7.3c-0.1-0.5-0.3-0.9-0.5-1c0,0-0.7-0.4-3.9-0.4H3.6V9.5L13.7,9c6.8-0.3,11.4-0.5,13.9-0.5
		c7.7,0,13.8,1.2,18.2,3.6c4.5,2.5,7.9,5.8,10,10c2.1,4.1,3.3,8.9,3.3,14.3c0,3.9-0.6,7.5-1.7,10.7c-1.2,3.3-2.9,6-5,8.3
		c-2.1,2.1-4.6,3.9-7.4,5c-2.7,1.1-5.3,1.8-7.8,2c-2.3,0.3-5.6,0.4-9.8,0.4C27.4,62.8,3.4,62.8,3.4,62.8z M23,45.6
		c0,6,0.1,8.3,0.3,9.2c0.1,1.1,0.6,1.4,0.7,1.5s1,0.5,4.7,0.5c4,0,7.4-0.5,9.8-1.6c2.3-1,4.4-3.1,6-6.1c1.7-3.2,2.6-7.4,2.6-12.4
		c0-4-0.5-7.6-1.5-10.6s-2.3-5.4-4.2-7.3c-1.7-1.8-3.8-3.1-5.8-3.7c-2.2-0.7-5.2-1-8.9-1c-1.2,0-2.3,0-3.6,0.1L23,45.6
		C23.1,45.6,23,45.6,23,45.6z"/>
	<path class="st7" d="M2.4,63.8V56h5.1c1.7,0,2.4-0.2,2.6-0.3l0,0l0.1-0.1l0,0c0,0,0.1-0.2,0.2-0.6c0.2-1.1,0.3-3.6,0.3-7.3V23.9
		c0-5.3-0.2-6.8-0.3-7.1c0-0.2-0.1-0.3-0.1-0.4C10,16.3,9.1,16.1,7,16.1H2.6V8.5L13.7,8c6.6-0.3,11.4-0.5,13.9-0.5
		c7.8,0,14.1,1.2,18.7,3.7c4.7,2.6,8.2,6.1,10.4,10.4c2.2,4.3,3.4,9.2,3.4,14.8c0,3.9-0.6,7.6-1.8,11.1c-1.3,3.5-3,6.3-5.2,8.6
		c-2.4,2.4-4.9,4.1-7.7,5.2c-2.8,1.2-5.5,1.9-8.1,2.1c-2.2,0.3-5.2,0.4-9.9,0.4H2.4z M24.6,55.5c0.2,0.1,1.2,0.3,4.1,0.3
		c4,0,7.1-0.5,9.4-1.5c2.2-0.9,4-2.9,5.6-5.7c1.6-2.9,2.4-6.9,2.4-11.9c0-3.9-0.5-7.4-1.5-10.3c-1-3-2.3-5.2-3.9-6.9
		c-1.6-1.7-3.4-2.8-5.4-3.4c-2.1-0.7-4.9-1-8.6-1c-0.9,0-1.7,0-2.6,0v31.4H24c0,4.8,0.1,7.1,0.3,7.9v0.1v0.1
		C24.4,55.3,24.6,55.4,24.6,55.5z"/>
	<path class="st7" d="M3.4,62.8v-5.7h4.1c2.3,0,3.2-0.4,3.3-0.5c0.2-0.1,0.5-0.4,0.7-1.2c0.1-0.6,0.3-2.2,0.3-7.6V23.9
		c0-5-0.2-6.7-0.3-7.3c-0.1-0.5-0.3-0.9-0.5-1c0,0-0.7-0.4-3.9-0.4H3.6V9.5L13.7,9c6.8-0.3,11.4-0.5,13.9-0.5
		c7.7,0,13.8,1.2,18.2,3.6c4.5,2.5,7.9,5.8,10,10c2.1,4.1,3.3,8.9,3.3,14.3c0,3.9-0.6,7.5-1.7,10.7c-1.2,3.3-2.9,6-5,8.3
		c-2.1,2.1-4.6,3.9-7.4,5c-2.7,1.1-5.3,1.8-7.8,2c-2.3,0.3-5.6,0.4-9.8,0.4C27.4,62.8,3.4,62.8,3.4,62.8z M23,45.6
		c0,6,0.1,8.3,0.3,9.2c0.1,1.1,0.6,1.4,0.7,1.5s1,0.5,4.7,0.5c4,0,7.4-0.5,9.8-1.6c2.3-1,4.4-3.1,6-6.1c1.7-3.2,2.6-7.4,2.6-12.4
		c0-4-0.5-7.6-1.5-10.6s-2.3-5.4-4.2-7.3c-1.7-1.8-3.8-3.1-5.8-3.7c-2.2-0.7-5.2-1-8.9-1c-1.2,0-2.3,0-3.6,0.1L23,45.6
		C23.1,45.6,23,45.6,23,45.6z"/>
	<path class="st7" d="M3.4,62.9v-5.8h4.1c2.2,0,3.1-0.3,3.4-0.5c0.3-0.2,0.5-0.5,0.6-1.2c0.1-0.8,0.3-2.8,0.3-7.6v-24
		c0-4.5-0.2-6.4-0.3-7.3c-0.2-0.6-0.3-0.9-0.5-1c-0.5-0.2-1.4-0.4-3.9-0.4H3.6V9.5L13.7,9c6.6-0.3,11.4-0.5,13.8-0.5
		c7.5,0,13.8,1.2,18.2,3.6c4.6,2.5,8,5.9,10,10c2.2,4.2,3.3,9,3.3,14.2c0,3.8-0.6,7.4-1.8,10.7c-1.1,3.2-2.8,6-4.9,8.2
		c-2.2,2.2-4.7,3.9-7.4,5s-5.3,1.8-7.7,2.1c-2.1,0.3-5.1,0.4-9.8,0.4h-24V62.9z M23,46.7c0,4.2,0.1,7,0.3,8.2c0.1,1,0.4,1.3,0.7,1.5
		h0.1h0.1c0,0,0.8,0.5,4.7,0.5c4,0,7.3-0.6,9.8-1.6c2.4-1,4.3-3,5.9-6.1c1.7-3.1,2.5-7.4,2.5-12.4c0-4-0.5-7.6-1.5-10.6
		c-0.9-2.9-2.3-5.3-4.2-7.3c-1.8-1.8-3.8-3.1-5.9-3.7c-2.4-0.7-5.3-1.1-8.9-1.1c-1.2,0-2.4,0-3.6,0v32.4l0,0V46.7z"/>
	<path class="st7" d="M4.4,61.8v-3.7h3.1c2.3,0,3.4-0.3,3.9-0.6c0.6-0.4,0.9-1,1.1-1.8c0.1-0.7,0.3-2.7,0.3-7.8v-24
		c0-4.8-0.2-6.7-0.3-7.5c-0.2-0.8-0.5-1.4-1-1.7c-0.3-0.1-1.2-0.5-4.4-0.5H4.6v-3.7l9.1-0.4c6.8-0.3,11.4-0.5,13.8-0.5
		c7.5,0,13.5,1.2,17.8,3.5s7.6,5.5,9.6,9.6c2,4,3.2,8.6,3.2,13.8c0,3.8-0.6,7.3-1.7,10.3c-1.1,3.2-2.8,5.8-4.7,7.9
		c-2,2-4.4,3.7-7,4.8c-2.6,1-5.1,1.7-7.5,2c-2.2,0.3-5.5,0.4-9.7,0.4h-23L4.4,61.8L4.4,61.8z M22,45.6c0,4.8,0.1,8,0.3,9.4
		c0.1,1.1,0.5,1.8,1.2,2.2c0.4,0.3,1.6,0.7,5.3,0.7c4.2,0,7.7-0.6,10.2-1.7c2.6-1.1,4.7-3.3,6.4-6.5c1.7-3.3,2.7-7.7,2.7-12.9
		c0-4.1-0.5-7.8-1.5-10.9c-1-3.2-2.6-5.7-4.4-7.7c-1.9-1.9-4-3.3-6.3-4s-5.4-1.1-9.2-1.1c-1.5,0-3.1,0-4.6,0.1v32.4
		C22.1,45.6,22,45.6,22,45.6z"/>
	<path class="st7" d="M2.4,63.8V56h5.1c1.7,0,2.4-0.2,2.6-0.3l0,0l0.1-0.1l0,0c0,0,0.1-0.2,0.2-0.6c0.1-0.3,0.3-1.8,0.3-7.3V23.9
		c0-3.3-0.1-5.8-0.3-7.1c0-0.1-0.1-0.2-0.1-0.3C10,16.4,9.1,16.2,7,16.2H2.6V8.5L13.7,8c6.6-0.3,11.4-0.5,13.9-0.5
		c7.8,0,14.1,1.2,18.7,3.7c4.7,2.6,8.2,6.1,10.4,10.4c2.2,4.3,3.4,9.2,3.4,14.8c0,3.9-0.6,7.6-1.8,11.1c-1.3,3.5-3,6.3-5.2,8.6
		c-2.4,2.4-4.9,4.1-7.7,5.2c-2.8,1.2-5.5,1.9-8.1,2.1c-2.2,0.3-5.2,0.4-9.9,0.4H2.4z M24.6,55.5c0.2,0.1,1.2,0.3,4.1,0.3
		c4,0,7.1-0.5,9.4-1.5c2.1-0.9,3.9-2.8,5.4-5.7c1.6-2.9,2.4-6.9,2.4-11.9c0-3.9-0.5-7.4-1.5-10.3c-1-3-2.3-5.2-3.9-6.9
		c-1.6-1.7-3.4-2.8-5.4-3.4c-2.1-0.7-4.9-1-8.6-1c-0.9,0-1.7,0-2.6,0v30.4c0,4.7,0.1,7.8,0.3,9C24.4,55.3,24.6,55.4,24.6,55.5z"/>
	<path class="st7" d="M3.4,62.8v-5.7h4.1c2.3,0,3.2-0.4,3.3-0.5c0.2-0.1,0.5-0.4,0.7-1.2c0.1-0.5,0.3-2.2,0.3-7.6V23.9
		c0-4.7-0.2-6.5-0.3-7.3c-0.1-0.5-0.3-0.9-0.5-1c0,0-0.7-0.4-3.9-0.4H3.6V9.5L13.7,9c6.8-0.3,11.4-0.5,13.9-0.5
		c7.7,0,13.8,1.2,18.2,3.6c4.5,2.5,7.9,5.8,10,10c2.1,4.1,3.3,8.9,3.3,14.3c0,3.9-0.6,7.5-1.7,10.7c-1.2,3.3-2.9,6-5,8.3
		c-2.1,2.1-4.6,3.9-7.4,5c-2.7,1.1-5.3,1.8-7.8,2c-2.3,0.3-5.6,0.4-9.8,0.4C27.4,62.8,3.4,62.8,3.4,62.8z M23,45.6
		c0,4.8,0.1,7.9,0.3,9.2c0.1,1.1,0.6,1.4,0.7,1.5s1,0.5,4.7,0.5c4,0,7.4-0.5,9.8-1.6c2.3-1,4.3-3.1,5.9-6.1C46.2,46,47,41.8,47,36.8
		c0-4-0.5-7.6-1.5-10.6s-2.3-5.4-4.2-7.3c-1.7-1.8-3.8-3.1-5.8-3.7c-2.2-0.7-5.2-1-8.9-1c-1.2,0-2.3,0-3.6,0.1
		C23,14.3,23,45.6,23,45.6z"/>
	<path class="st7" d="M3.4,62.9v-5.8h4.1c2.2,0,3.1-0.3,3.4-0.5c0.3-0.2,0.5-0.5,0.6-1.2c0.1-0.8,0.3-2.8,0.3-7.6v-24
		c0-3.8-0.1-6.2-0.3-7.3c-0.2-0.6-0.3-0.9-0.5-1c-0.5-0.2-1.4-0.4-3.9-0.4H3.6V9.5L13.7,9c6.6-0.3,11.4-0.5,13.8-0.5
		c7.5,0,13.8,1.2,18.2,3.6c4.6,2.5,8,5.9,10,10c2.2,4.2,3.3,9,3.3,14.2c0,3.8-0.6,7.4-1.8,10.7c-1.1,3.2-2.8,6-4.9,8.2
		c-2.2,2.2-4.7,3.9-7.4,5s-5.3,1.8-7.7,2.1c-2.2,0.3-5.2,0.4-9.8,0.4h-24V62.9z M23,46.7c0,4.2,0.1,7,0.3,8.2c0.1,1,0.4,1.3,0.7,1.5
		h0.1h0.1c0,0,0.8,0.5,4.7,0.5c4,0,7.3-0.6,9.8-1.6c2.4-1,4.3-3,5.9-6.1c1.7-3.1,2.5-7.4,2.5-12.4c0-4-0.5-7.6-1.5-10.6
		c-0.9-2.9-2.3-5.3-4.2-7.3c-1.8-1.8-3.8-3.1-5.9-3.7c-2.4-0.7-5.3-1.1-8.9-1.1c-1.2,0-2.4,0-3.6,0v32.4l0,0V46.7z"/>
	<path class="st7" d="M4.4,61.8v-3.7h3.1c2.3,0,3.4-0.3,3.9-0.6c0.6-0.4,0.9-1,1.1-1.8c0.1-0.7,0.3-2.7,0.3-7.8v-24
		c0-3.9-0.1-6.3-0.3-7.5c-0.2-0.8-0.5-1.4-1-1.7c-0.3-0.1-1.2-0.5-4.4-0.5H4.6v-3.7l9.1-0.4c6.8-0.3,11.4-0.5,13.8-0.5
		c7.5,0,13.5,1.2,17.8,3.5s7.6,5.5,9.6,9.6c2,4,3.2,8.6,3.2,13.8c0,3.8-0.6,7.3-1.7,10.3c-1.1,3.2-2.8,5.8-4.7,7.9
		c-2,2-4.4,3.7-7,4.8c-2.6,1-5.1,1.7-7.5,2c-2.3,0.3-5.5,0.4-9.7,0.4h-23L4.4,61.8L4.4,61.8z M22,45.6c0,4.8,0.1,8,0.3,9.4
		c0.1,1.1,0.5,1.8,1.2,2.2c0.4,0.3,1.6,0.7,5.3,0.7c4.2,0,7.7-0.6,10.2-1.7c2.6-1.1,4.7-3.3,6.4-6.5c1.7-3.3,2.7-7.7,2.7-12.9
		c0-4.1-0.5-7.8-1.5-10.9c-1-3.2-2.6-5.7-4.4-7.7c-1.9-1.9-4-3.3-6.3-4s-5.4-1.1-9.2-1.1c-1.5,0-3.1,0-4.6,0.1v32.4
		C22.1,45.6,22,45.6,22,45.6z"/>
	<path class="st7" d="M3.4,62.9v-5.8h4.1c2.2,0,3.1-0.3,3.4-0.5c0.3-0.2,0.5-0.5,0.6-1.2c0.1-0.8,0.3-2.8,0.3-7.6v-24
		c0-3.8-0.1-6.2-0.3-7.3c-0.2-0.6-0.3-0.9-0.5-1c-0.5-0.2-1.4-0.4-3.9-0.4H3.6V9.5L13.7,9c6.6-0.3,11.4-0.5,13.8-0.5
		c7.6,0,13.7,1.2,18.2,3.6c4.6,2.5,8,5.9,10,10c2.2,4.2,3.3,9,3.3,14.2c0,3.8-0.6,7.4-1.8,10.7c-1.1,3.2-2.8,6-4.9,8.2
		c-2.2,2.2-4.7,3.9-7.4,5s-5.3,1.8-7.7,2.1c-2.1,0.3-5.1,0.4-9.8,0.4h-24V62.9z M23,46.7c0,4.2,0.1,7,0.3,8.2c0.1,1,0.4,1.3,0.7,1.5
		h0.1h0.1c0,0,0.8,0.5,4.7,0.5c4,0,7.3-0.6,9.8-1.6c2.4-1,4.3-3,5.9-6.1c1.7-3.1,2.5-7.4,2.5-12.4c0-4-0.5-7.6-1.5-10.6
		c-0.9-2.9-2.3-5.3-4.2-7.3c-1.8-1.8-3.8-3.1-5.9-3.7c-2.4-0.7-5.3-1.1-8.9-1.1c-1.2,0-2.4,0-3.6,0v32.4l0,0V46.7z"/>
	<path class="st7" d="M4.4,61.8v-3.7h3.1c2.3,0,3.4-0.3,3.9-0.6c0.6-0.4,0.9-1,1.1-1.8c0.1-0.7,0.3-2.7,0.3-7.8v-24
		c0-3.9-0.1-6.3-0.3-7.5c-0.2-0.8-0.5-1.4-1-1.7c-0.3-0.1-1.2-0.5-4.4-0.5H4.6v-3.7l9.1-0.4c6.8-0.3,11.4-0.5,13.8-0.5
		c7.6,0,13.5,1.2,17.8,3.5s7.6,5.5,9.6,9.6c2,4,3.2,8.6,3.2,13.8c0,3.8-0.6,7.3-1.7,10.3c-1.1,3.2-2.8,5.8-4.7,7.9
		c-2,2-4.4,3.7-7,4.8c-2.6,1-5.1,1.7-7.5,2c-2.2,0.3-5.5,0.4-9.7,0.4h-23L4.4,61.8L4.4,61.8z M22,45.6c0,4.8,0.1,8,0.3,9.4
		c0.1,1.1,0.5,1.8,1.2,2.2c0.4,0.3,1.6,0.7,5.3,0.7c4.2,0,7.7-0.6,10.2-1.7c2.6-1.1,4.7-3.3,6.4-6.5c1.7-3.3,2.7-7.7,2.7-12.9
		c0-4.1-0.5-7.8-1.5-10.9c-1-3.2-2.6-5.7-4.4-7.7c-1.9-1.9-4-3.3-6.3-4s-5.4-1.1-9.2-1.1c-1.5,0-3.1,0-4.6,0.1v32.4
		C22.1,45.6,22,45.6,22,45.6z"/>
	<path class="st7" d="M4.4,61.8v-3.7h3.1c2.4,0,3.5-0.4,3.8-0.7c0.4-0.2,0.9-0.7,1.1-1.9c0.2-1.1,0.3-3.7,0.3-7.8v-2.2l0.1-21.7
		c0-3.9-0.1-6.4-0.3-7.5c-0.1-0.8-0.5-1.4-0.9-1.6c-0.3-0.1-1.2-0.5-4.4-0.5H4.6v-3.6l9.1-0.5c6.6-0.3,11.4-0.5,13.8-0.5
		c7.6,0,13.4,1.1,17.7,3.5c4.2,2.3,7.5,5.5,9.6,9.5c2.1,4.1,3.2,8.6,3.2,13.8c0,3.9-0.6,7.2-1.7,10.4c-1.1,3.1-2.7,5.7-4.7,7.8
		c-2.2,2.2-4.5,3.7-7,4.7s-5,1.7-7.4,2c-2.1,0.3-5.1,0.4-9.7,0.4H4.4V61.8z M22,45.7c0,4.8,0.1,8,0.3,9.4c0.2,1.2,0.5,1.9,1.1,2.2
		c1,0.7,4.3,0.7,5.3,0.7c4.1,0,7.5-0.6,10.2-1.7c2.6-1.2,4.8-3.3,6.4-6.5c1.8-3.4,2.6-7.5,2.6-12.8c0-4.2-0.5-7.9-1.6-10.9
		c-1.1-3.2-2.5-5.7-4.5-7.7c-1.9-1.9-4.1-3.3-6.3-3.9c-2.5-0.7-5.6-1.1-9.2-1.1c-1.5,0-3,0.1-4.6,0.2v10.3H22V45.7z"/>
	<path class="st7" d="M13.8,45.6V23.9 M13.8,23.9c0-4-0.1-6.5-0.3-7.7c-0.2-1.1-0.7-1.9-1.4-2.3c-0.7-0.4-2.3-0.6-4.9-0.6H5.7v-1.6
		l8.2-0.4c6.8-0.3,11.4-0.5,13.8-0.5c7.4,0,13.1,1.1,17.3,3.4c4.1,2.2,7.1,5.3,9.2,9.1c2,3.9,3.1,8.3,3.1,13.3c0,3.7-0.5,6.9-1.6,10
		s-2.7,5.5-4.5,7.5c-1.9,1.9-4.1,3.5-6.6,4.5c-2.6,1-4.9,1.6-7.1,1.9c-2.2,0.3-5.5,0.4-9.6,0.4H5.5v-1.6h2c2.1,0,3.6-0.3,4.4-0.8
		s1.3-1.3,1.5-2.6c0.2-1.1,0.3-3.8,0.3-8v-2.2 M21,45.6c0,4.9,0.1,8.1,0.3,9.5c0.2,1.4,0.7,2.5,1.6,3c0.9,0.6,2.9,0.8,5.8,0.8
		c4.3,0,7.9-0.6,10.6-1.7c2.8-1.2,5.1-3.5,6.9-6.9C48,46.8,49,42.4,49,37c0-4.2-0.5-8-1.6-11.2c-1.1-3.3-2.7-5.9-4.7-8.1
		c-2-2-4.3-3.5-6.7-4.2c-2.5-0.7-5.6-1.1-9.5-1.1c-1.8,0-3.8,0.1-5.6,0.2v11.3 M21,23.8v21.9"/>
</g>
<path class="st2" d="M14.6,73.2L13,68.9h0.1l-1.6-5.1l-0.2-0.2V24.4c-0.1-0.4-0.2-0.7-0.2-1.1v-4.8c0-1.7,1.4-3.2,3.2-3.2h6.2
	c1.7,0,3.2,1.4,3.2,3.2v4.8c0,0.4-0.1,0.8-0.3,1.2v38.2h-1.6l0.2,0.2l1.3,0.4l-6,18.4L14.6,73.2z"/>
<g>
	<polygon class="st2" points="23,60.8 45.5,48.1 42.4,58.5 47.8,68 	"/>
	<polygon class="st2" points="42.1,52.3 40.3,58.8 43.6,64.6 28.2,60.2 	"/>
</g>
<g>
	<rect x="34" y="7.8" transform="matrix(0.1676 -0.9859 0.9859 0.1676 17.9558 45.787)" class="st2" width="4.1" height="9"/>
	<line class="st8" x1="31.7" y1="11.5" x2="40.5" y2="13.1"/>
	<g>
		<polygon class="st2" points="26.4,10.6 23.8,0 45.7,13.9 20.5,19.8 		"/>
		<polygon class="st2" points="25,16.6 28.6,11 27,4.5 40.5,13.1 		"/>
	</g>
</g>
<g>
	<path class="st9" d="M13.8,45.6V23.9 M13.8,23.9c0-4-0.1-6.5-0.3-7.7c-0.2-1.1-0.7-1.9-1.4-2.3c-0.7-0.4-2.3-0.6-4.9-0.6H5.7v-1.6
		l8.2-0.4c6.8-0.3,11.4-0.5,13.8-0.5c7.4,0,13.1,1.1,17.3,3.4c4.1,2.2,7.1,5.3,9.2,9.1c2,3.9,3.1,8.3,3.1,13.3c0,3.7-0.5,6.9-1.6,10
		s-2.7,5.5-4.5,7.5c-1.9,1.9-4.1,3.5-6.6,4.5c-2.6,1-4.9,1.6-7.1,1.9c-2.2,0.3-5.5,0.4-9.6,0.4H5.5v-1.6h2c2.1,0,3.6-0.3,4.4-0.8
		s1.3-1.3,1.5-2.6c0.2-1.1,0.3-3.8,0.3-8v-2.2 M21,45.6c0,4.9,0.1,8.1,0.3,9.5c0.2,1.4,0.7,2.5,1.6,3c0.9,0.6,2.9,0.8,5.8,0.8
		c4.3,0,7.9-0.6,10.6-1.7c2.8-1.2,5.1-3.5,6.9-6.9C48,46.8,49,42.4,49,37c0-4.2-0.5-8-1.6-11.2c-1.1-3.3-2.7-5.9-4.7-8.1
		c-2-2-4.3-3.5-6.7-4.2c-2.5-0.7-5.6-1.1-9.5-1.1c-1.8,0-3.8,0.1-5.6,0.2v11.3 M21,23.8v21.9"/>
</g>
<g>
	<line class="st10" x1="31.7" y1="11.5" x2="40.5" y2="13.1"/>
	<g>
		<polygon class="st11" points="25,16.6 28.6,11 27,4.5 40.5,13.1 		"/>
	</g>
</g>
<g>
	<line class="st10" x1="37.2" y1="59.1" x2="28.2" y2="60.2"/>
	<g>
		<polygon class="st11" points="42.1,52.3 40.3,58.8 43.6,64.6 28.2,60.2 		"/>
	</g>
</g>
<g>
	<polygon class="st12" points="20.9,62.2 19.2,63.8 17.4,62.2 15.6,63.8 13.9,62.2 13.9,24 20.9,24 	"/>
	<polygon class="st13" points="20.9,62.2 17.4,74.6 13.9,62.2 13.9,62.2 15.3,63.8 17.4,62 19.5,63.8 20.9,62.2 	"/>
	<polygon class="st14" points="17.4,74.2 16,70.5 18.7,70.5 	"/>
	<path class="st15" d="M20.1,22.8h-5.2c-0.5,0-0.9-0.5-0.9-1.1v-4.8c0-0.6,0.4-1.1,0.9-1.1h5.2c0.5,0,0.9,0.5,0.9,1.1v4.8
		C21,22.3,20.6,22.8,20.1,22.8z"/>
	<rect x="13.9" y="21.1" class="st13" width="7.1" height="4"/>
</g>
</svg>
