<?xml version="1.0" encoding="utf-8"?>
<!-- Generator: Adobe Illustrator 22.0.0, SVG Export Plug-In . SVG Version: 6.00 Build 0)  -->
<svg version="1.1" id="Layer_1" xmlns="http://www.w3.org/2000/svg" xmlns:xlink="http://www.w3.org/1999/xlink" x="0px" y="0px"
	 viewBox="0 0 24 24" style="enable-background:new 0 0 24 24;" xml:space="preserve">
<style type="text/css">
	.st0{fill:#2E94E8;}
	.st1{fill:#0066CC;}
	.st2{fill:#F9F9D2;}
	.st3{fill:#D3D372;}
	.st4{fill:none;stroke:#0066CC;stroke-width:0.7631;stroke-miterlimit:10;}
	.st5{fill:#D8E7EF;}
	.st6{fill:#09344C;}
	.st7{opacity:0.2;fill:#FFFFFF;}
</style>
<g>
	<g>
		<g>
			<path class="st0" d="M14.9,23.4c-0.3,0-0.6-0.1-0.9-0.2L2,20c-0.3-0.1-0.5-0.3-0.6-0.5c-0.2-0.5,0.1-1.2,0.4-1.8l6.3-12
				c0.4-0.8,1.2-1.3,2.1-1.3c0.3,0,0.6,0.1,0.9,0.2l11.1,2.9c0.5,0.2,0.9,0.6,1.1,1.2c0.2,0.5,0.2,1.1,0,1.6l-6.3,12
				C16.6,22.9,15.8,23.4,14.9,23.4z"/>
			<path class="st1" d="M10.2,4.6L10.2,4.6c0.3,0,0.5,0,0.7,0.1l0,0H11l11,2.8c0.4,0.2,0.8,0.5,0.9,1c0.2,0.4,0.2,0.9,0,1.3L16.6,22
				c-0.3,0.6-1,1.1-1.7,1.1c-0.3,0-0.5,0-0.7-0.1l0,0l0,0l-12-3.4c-0.2-0.1-0.3-0.2-0.4-0.3c-0.1-0.4,0.2-1.2,0.4-1.5L8.4,5.7
				C8.7,5.1,9.4,4.6,10.2,4.6 M10.2,3.9c-1,0-2,0.6-2.4,1.5l-6.3,12c-0.6,1.3-0.9,2.4,0.4,2.9l12,3.3c0.3,0.1,0.7,0.2,1,0.2
				c1,0,2-0.6,2.4-1.5l6.3-12c0.6-1.3,0-2.8-1.4-3.3l-11-2.9C10.9,4,10.5,3.9,10.2,3.9L10.2,3.9z"/>
		</g>
		<g>
			<g>
				<path class="st2" d="M14.5,22.5c-0.3,0-0.7-0.1-1-0.2L2.4,19.5c-0.6-0.2-1-0.7-1.3-1.3c-0.2-0.6-0.2-1.2,0-1.7l6.3-12
					C7.8,3.5,8.7,3,9.7,3c0.3,0,0.7,0.1,1,0.2l11.1,2.9c0.6,0.2,1,0.7,1.3,1.3c0.2,0.6,0.2,1.2,0,1.7l-6.3,12
					C16.3,22,15.4,22.5,14.5,22.5z"/>
				<path class="st3" d="M9.7,3.2L9.7,3.2c0.3,0,0.6,0.1,0.9,0.2l0,0l0,0l11,2.9c0.5,0.2,1,0.7,1.2,1.2s0.2,1,0,1.5l-6.3,12.1
					c-0.4,0.8-1.2,1.3-2.1,1.3c-0.3,0-0.6-0.1-0.9-0.2l0,0l0,0l-11-2.9c-0.5-0.2-1-0.7-1.2-1.2s-0.2-1.1,0-1.6l6.3-12
					C8,3.7,8.8,3.2,9.7,3.2 M9.7,2.8c-1,0-2,0.6-2.4,1.5L1,16.4c-0.6,1.3,0,2.8,1.4,3.3l11.1,2.9c0.3,0.1,0.7,0.2,1,0.2
					c1,0,2-0.6,2.4-1.5l6.3-12c0.6-1.3,0-2.8-1.4-3.3L10.7,3C10.4,2.9,10,2.8,9.7,2.8L9.7,2.8z"/>
			</g>
			<g>
				<path class="st2" d="M14.1,21.7c-0.3,0-0.7-0.1-1-0.2l-11-2.8c-0.6-0.2-1-0.7-1.3-1.3c-0.2-0.6-0.2-1.2,0-1.7l6.3-12
					c0.4-0.9,1.3-1.4,2.2-1.4c0.3,0,0.7,0.1,1,0.2l11.1,2.9c0.6,0.2,1,0.7,1.3,1.3c0.2,0.6,0.2,1.2,0,1.7l-6.3,12
					C16,21.2,15.1,21.7,14.1,21.7z"/>
				<path class="st3" d="M9.4,2.4L9.4,2.4c0.3,0,0.6,0.1,0.9,0.2l0,0l0,0l11,2.9c0.5,0.2,1,0.7,1.2,1.2s0.2,1.1,0,1.6l-6.3,12.1
					c-0.4,0.8-1.2,1.3-2.1,1.3c-0.3,0-0.6-0.1-0.9-0.2l0,0l0,0l-11-2.9c-0.5-0.2-1-0.7-1.2-1.2s-0.2-1.1,0-1.6L7.3,3.6
					C7.7,2.9,8.5,2.4,9.4,2.4 M9.4,2c-1,0-2,0.6-2.4,1.5l-6.3,12c-0.6,1.3,0,2.8,1.4,3.3l11.1,2.9c0.3,0.1,0.7,0.2,1,0.2
					c1,0,2-0.6,2.4-1.5l6.3-12c0.6-1.3,0-2.8-1.4-3.3L10.4,2.2C10.1,2,9.7,2,9.4,2L9.4,2z"/>
			</g>
			<g>
				<path class="st2" d="M13.8,20.8c-0.3,0-0.7-0.1-1-0.2l-11-2.9c-0.6-0.2-1-0.7-1.3-1.3c-0.2-0.6-0.2-1.2,0-1.7l6.3-12
					C7.2,1.8,8.1,1.3,9,1.3c0.3,0,0.7,0.1,1,0.2l11.1,2.9c0.6,0.2,1,0.7,1.3,1.3c0.2,0.6,0.2,1.2,0,1.7l-6.3,12
					C15.7,20.2,14.8,20.8,13.8,20.8z"/>
				<path class="st3" d="M9.1,1.4L9.1,1.4c0.3,0,0.6,0.1,0.9,0.2l0,0l0,0l11,2.9c0.5,0.2,1,0.7,1.2,1.2s0.2,1.1,0,1.6l-6.3,12.1
					c-0.4,0.8-1.2,1.3-2.1,1.3c-0.3,0-0.6-0.1-0.9-0.2l0,0l0,0l-11-2.9c-0.5-0.2-1-0.7-1.2-1.2s-0.2-1.1,0-1.6L7,2.7
					C7.4,1.9,8.2,1.4,9.1,1.4 M9.1,1.1c-1,0-2,0.6-2.4,1.5l-6.3,12c-0.6,1.3,0,2.8,1.4,3.3l11.1,2.9c0.3,0.1,0.7,0.2,1,0.2
					c1,0,2-0.6,2.4-1.5l6.3-12c0.6-1.3,0-2.8-1.4-3.3L10.1,1.3C9.8,1.1,9.4,1.1,9.1,1.1L9.1,1.1z"/>
			</g>
		</g>
		<g>
			<path class="st0" d="M13.8,19.7c-0.3,0-0.6-0.1-0.9-0.2L1.8,16.7c-0.5-0.2-0.9-0.6-1.1-1.2c-0.2-0.5-0.2-1.1,0-1.6L7,1.9
				c0.4-0.8,1.2-1.3,2.1-1.3c0.3,0,0.6,0.1,0.9,0.2l11.1,2.9c0.5,0.2,0.9,0.6,1.1,1.2c0.2,0.5,0.2,1.1,0,1.6l-6.3,12
				C15.6,19.2,14.7,19.7,13.8,19.7z"/>
			<path class="st1" d="M9.1,1L9.1,1c0.3,0,0.5,0,0.7,0.1l0,0h0.1l11,2.8c0.4,0.2,0.8,0.5,0.9,1c0.2,0.4,0.2,0.9,0,1.3l-6.3,12.1
				c-0.3,0.6-1,1.1-1.7,1.1c-0.3,0-0.5,0-0.7-0.1l0,0H13l-11-3c-0.4-0.2-0.8-0.5-0.9-1c-0.2-0.4-0.2-0.9,0-1.3L7.4,2
				C7.6,1.4,8.3,1,9.1,1 M9.1,0.2c-1,0-2,0.6-2.4,1.5l-6.3,12c-0.6,1.3,0,2.8,1.4,3.3l11.1,2.9c0.3,0.1,0.7,0.2,1,0.2
				c1,0,2-0.6,2.4-1.5l6.3-12c0.6-1.3,0-2.8-1.4-3.3L10.1,0.4C9.8,0.3,9.4,0.2,9.1,0.2L9.1,0.2z"/>
		</g>
		<path class="st4" d="M0.7,14.1c0,0-0.4,1.6-0.3,3.1C0.7,19.3,2.2,20,2.2,20"/>
	</g>
	<g>
		<g>
			<g>
				<path class="st5" d="M10.2,17c-0.8,0-1.7-0.2-2.8-0.5C7.1,16.4,6.6,16.2,6,16c-0.7-0.2-1.2-0.4-1.5-0.5S3.6,15.2,2.7,15
					l-0.9-0.2l0.8-1.6H3c0.2,0,0.5-0.1,0.7-0.1c0,0,0,0,0.1,0C3.9,13,3.9,12.9,4,12.7c0.1-0.3,0.3-0.6,0.5-0.9
					c0.6-1.1,1-1.9,1.2-2.3l1.7-3.4C7.5,5.6,7.8,5,8.1,4.3C8.2,4.1,8.2,4,8.2,4c0-0.1-0.2-0.1-0.3-0.2L7,3.6l1-1.9l0.6,0.2
					c0.6,0.2,1.1,0.3,1.5,0.5l0.4,0.1c0.5,0.1,1.1,0.3,2,0.5s1.5,0.4,2,0.5c0.3,0.1,0.6,0.2,0.8,0.2c1.1,0.3,2,0.6,2.7,1.1
					c0.8,0.7,1.3,1.6,1.5,2.8c0.3,1.5-0.5,3.3-0.8,4c-0.4,0.9-1,1.7-1.7,2.4s-1.4,1.3-2.3,1.7c-0.8,0.4-1.6,0.7-2.4,0.9
					c-0.7,0.2-1.4,0.2-2.1,0.2L10.2,17z M7,13.8c0.2,0.1,0.5,0.1,0.8,0.2l0.3,0.1c1.1,0.3,1.6,0.3,2.1,0.4h0.6c0.1,0,0.2,0,0.2,0
					c0.1,0,0.1,0,0.2,0h0.1c0.4,0,0.9-0.4,1.4-0.6c0.5-0.3,1-0.7,1.4-1.2c0.5-0.6,0.9-1.2,1.2-1.8c0.5-1.1,0.8-2.1,0.8-2.7
					c0-0.7-0.2-1.2-0.7-1.7c-0.3-0.3-1.1-0.6-2-0.8c-0.2-0.1-0.4-0.1-0.7-0.2c-0.5-0.1-1-0.3-1.6-0.4C11.2,5.3,11,5.7,10.9,6
					l-0.6,1.2l-1.6,3.3L7.4,13C7.3,13.2,7.2,13.5,7,13.8L7,13.8z"/>
				<path class="st5" d="M2.9,14.3l0.2-0.4c0.4-0.1,0.8,0,1.1-0.1c0.2-0.4,0.5-1,0.8-1.7c0.6-1.1,1-1.9,1.2-2.3l1.7-3.4
					c0.3-0.5,0.6-1.2,0.9-1.9C9,4.1,9.1,3.8,9.1,3.7s0-0.2-0.1-0.2C8.8,3.4,8.7,3.3,8.1,3.1l0.3-0.5c0.8,0.3,1.3,0.4,2,0.6
					c0.5,0.1,1.2,0.3,2,0.6c0.9,0.2,1.5,0.4,2,0.5c1.4,0.4,2.6,0.6,3.3,1.2s1.1,1.4,1.3,2.4c0.2,1-0.2,2.3-0.8,3.5
					c-0.4,0.8-0.9,1.6-1.6,2.2c-0.6,0.6-1.3,1.2-2.1,1.6c-0.7,0.4-1.5,0.7-2.2,0.8c-0.7,0.2-1.4,0.2-2.1,0.2S8.7,16,7.6,15.7
					c-0.3-0.1-0.8-0.2-1.4-0.4C5.5,15,5,14.9,4.8,14.8C4.4,14.7,3.8,14.5,2.9,14.3z M6,14.2c0.6,0.3,1.1,0.4,1.8,0.6
					c1.2,0.4,1.8,0.4,2.4,0.4c0.9,0,0.7,0.1,1.2,0c0.5,0,1.1-0.4,1.7-0.7c0.6-0.3,1.1-0.8,1.6-1.4c0.5-0.6,1-1.3,1.3-2
					c0.5-1,0.9-2.2,0.9-3.1c0-0.8-0.3-1.6-0.9-2.2S14.3,5,13,4.6c-0.7-0.2-1.4-0.4-2.2-0.5c-0.2,0.3-0.4,0.7-0.8,1.4L9.5,6.9
					l-1.6,3.3l-1.2,2.6C6.5,13.1,6.3,13.6,6,14.2z"/>
			</g>
		</g>
		<g>
			<g>
				<path class="st6" d="M3,14.4L3.2,14c0.4-0.1,0.8,0,1.1-0.1c0.2-0.4,0.5-1,0.8-1.7c0.6-1.1,1-1.9,1.2-2.3L8,6.5
					C8.2,6,8.5,5.4,8.9,4.6c0.2-0.5,0.3-0.7,0.3-0.8s0-0.2-0.1-0.2c-0.2-0.2-0.4-0.2-1-0.4l0.3-0.5c0.8,0.3,1.3,0.4,2,0.6
					c0.5,0.1,1.2,0.3,2,0.6c0.9,0.2,1.5,0.4,2,0.5C15.8,4.8,17,5,17.7,5.6S18.8,7,19,8c0.2,1-0.2,2.3-0.8,3.5
					c-0.4,0.8-0.9,1.6-1.6,2.2c-0.6,0.6-1.3,1.2-2.1,1.6c-0.7,0.4-1.5,0.7-2.2,0.8c-0.7,0.2-1.4,0.2-2.1,0.2s-1.5-0.2-2.6-0.5
					c-0.3-0.1-0.8-0.2-1.4-0.4c-0.8-0.2-1.3-0.4-1.5-0.5C4.5,14.8,3.8,14.6,3,14.4z M6.1,14.3c0.6,0.3,1.1,0.4,1.8,0.6
					c1.2,0.4,1.8,0.4,2.4,0.4c0.9,0,0.7,0.1,1.2,0c0.5,0,1.1-0.4,1.7-0.7c0.6-0.3,1.1-0.8,1.6-1.4c0.5-0.6,1-1.3,1.3-2
					c0.5-1,0.9-2.2,0.9-3.1S16.7,6.6,16.2,6c-0.6-0.6-1.7-0.8-3-1.2c-0.7-0.2-1.4-0.4-2.2-0.5c-0.2,0.3-0.4,0.7-0.8,1.4L9.6,6.9
					L8,10.2l-1.2,2.6C6.5,13.2,6.3,13.7,6.1,14.3z"/>
			</g>
		</g>
	</g>
</g>
<rect class="st7" width="23.8" height="23.8"/>
</svg>
