<svg id="Layer_1" data-name="Layer 1" xmlns="http://www.w3.org/2000/svg" xmlns:xlink="http://www.w3.org/1999/xlink" viewBox="0 0 377.05 323.83"><defs><style>.cls-1,.cls-17,.cls-18,.cls-2,.cls-20,.cls-23,.cls-8{fill:none;}.cls-2{clip-rule:evenodd;}.cls-3{opacity:0.1;}.cls-4{fill:#565656;}.cls-5{clip-path:url(#clip-path);}.cls-6{fill:#fff;}.cls-7{fill:#666;}.cls-20,.cls-8{stroke:#888;}.cls-17,.cls-18,.cls-20,.cls-23,.cls-8{stroke-miterlimit:10;}.cls-18,.cls-8{stroke-width:0.5px;}.cls-9{opacity:0.5;isolation:isolate;}.cls-10{clip-path:url(#clip-path-3);}.cls-11{clip-path:url(#clip-path-4);}.cls-12{clip-path:url(#clip-path-5);}.cls-13{fill:#aaa;}.cls-14{clip-path:url(#clip-path-7);}.cls-15{clip-path:url(#clip-path-8);}.cls-16{clip-path:url(#clip-path-10);}.cls-17,.cls-18,.cls-23{stroke:#444;}.cls-17,.cls-20{stroke-width:0.25px;}.cls-19{fill:#ccc;}.cls-21{clip-path:url(#clip-path-14);}.cls-22{clip-path:url(#clip-path-16);}.cls-23{stroke-width:0.75px;}.cls-24{fill:#f2f2f2;}.cls-25{fill:#eee;}.cls-26{fill:#444;}.cls-27{fill:#232629;}.cls-28{fill:#343434;}.cls-29{fill:#2c2c2c;}.cls-30{fill:gray;}</style><clipPath id="clip-path" transform="translate(-13.3 -30.2)"><rect class="cls-1" x="40.74" y="345.64" width="7.98" height="7.98"/></clipPath><clipPath id="clip-path-3" transform="translate(-13.3 -30.2)"><rect class="cls-1" x="40" y="346" width="7" height="7"/></clipPath><clipPath id="clip-path-4" transform="translate(-13.3 -30.2)"><rect class="cls-1" x="40.8" y="345.88" width="5.52" height="6.96"/></clipPath><clipPath id="clip-path-5" transform="translate(-13.3 -30.2)"><rect class="cls-1" x="-64" y="-389" width="522" height="754"/></clipPath><clipPath id="clip-path-7" transform="translate(-13.3 -30.2)"><rect class="cls-1" x="-64" y="-389" width="522.68" height="754.59"/></clipPath><clipPath id="clip-path-8" transform="translate(-13.3 -30.2)"><path class="cls-2" d="M109.43,351.63h-4.72v1.73h4.72ZM458-389H-64V365H458Z"/></clipPath><clipPath id="clip-path-10" transform="translate(-13.3 -30.2)"><rect class="cls-1" x="128.51" y="345.64" width="7.98" height="7.98"/></clipPath><clipPath id="clip-path-14" transform="translate(-13.3 -30.2)"><path class="cls-2" d="M149.42,351.63h-4.71v1.73h4.71ZM458-389H-64V365H458Z"/></clipPath><clipPath id="clip-path-16" transform="translate(-13.3 -30.2)"><rect class="cls-1" x="182.38" y="345.64" width="7.98" height="7.98"/></clipPath></defs><rect class="cls-3" x="17.46" y="305.97" width="333.16" height="0.5"/><path class="cls-4" d="M280.32,347.89a1.1,1.1,0,0,0-.23-.53,1.14,1.14,0,0,0-.45-.35,1.63,1.63,0,0,0-1.36.06,1.29,1.29,0,0,0-.49.52,2,2,0,0,0,0,1.6,1.32,1.32,0,0,0,.49.53,1.49,1.49,0,0,0,.75.18,1.43,1.43,0,0,0,.87-.26,1.11,1.11,0,0,0,.42-.72h-.5a.66.66,0,0,1-.27.4.94.94,0,0,1-.52.14.82.82,0,0,1-.48-.13.89.89,0,0,1-.32-.37,1.41,1.41,0,0,1-.11-.57,1.18,1.18,0,0,1,.25-.78.84.84,0,0,1,.66-.28.85.85,0,0,1,.51.15.7.7,0,0,1,.28.41ZM279,350.73a2.32,2.32,0,0,1-.92-.18,2.23,2.23,0,0,1-1.23-1.23,2.47,2.47,0,0,1,0-1.85,2.23,2.23,0,0,1,1.23-1.23,2.32,2.32,0,0,1,.92-.18,2.36,2.36,0,0,1,.92.18,2.17,2.17,0,0,1,.74.49,2.28,2.28,0,0,1,.66,1.66,2.37,2.37,0,0,1-.17.93,2.33,2.33,0,0,1-.49.74,2.28,2.28,0,0,1-.74.49A2.36,2.36,0,0,1,279,350.73Zm0,.5a2.89,2.89,0,0,0,1.11-.21,2.84,2.84,0,0,0,.9-.6,2.67,2.67,0,0,0,.6-.91,2.94,2.94,0,0,0,0-2.23,2.8,2.8,0,0,0-.59-.91,3.08,3.08,0,0,0-.9-.6,3.09,3.09,0,0,0-2.24,0,3.08,3.08,0,0,0-.9.6,2.67,2.67,0,0,0-.6.91,2.89,2.89,0,0,0-.21,1.11,2.94,2.94,0,0,0,.21,1.12,3.08,3.08,0,0,0,.6.9,2.73,2.73,0,0,0,.9.6A2.8,2.8,0,0,0,279,351.23Z" transform="translate(-13.3 -30.2)"/><path class="cls-4" d="M284.48,346.93h.62a1,1,0,0,1,.13-.53.89.89,0,0,1,.36-.36,1.12,1.12,0,0,1,.53-.12,1.09,1.09,0,0,1,.53.12,1,1,0,0,1,.33.34,1,1,0,0,1,.12.49,1.16,1.16,0,0,1-.08.42,1.55,1.55,0,0,1-.26.42c-.12.16-.29.35-.51.59l-1.74,1.89v.44h3.33v-.58H285.4V350l1.17-1.21a8.63,8.63,0,0,0,.72-.81,2.5,2.5,0,0,0,.36-.6,1.56,1.56,0,0,0,.11-.57,1.33,1.33,0,0,0-.21-.74,1.51,1.51,0,0,0-.57-.52,1.79,1.79,0,0,0-.81-.18,1.81,1.81,0,0,0-.88.2,1.48,1.48,0,0,0-.81,1.37Z" transform="translate(-13.3 -30.2)"/><path class="cls-4" d="M290.55,350.19a.89.89,0,0,1-.64-.25,1.46,1.46,0,0,1-.4-.72,4.36,4.36,0,0,1-.14-1.17,4.2,4.2,0,0,1,.14-1.15,1.64,1.64,0,0,1,.4-.73.89.89,0,0,1,.64-.25.87.87,0,0,1,.64.25,1.6,1.6,0,0,1,.4.72,4.92,4.92,0,0,1,0,2.33,1.46,1.46,0,0,1-.4.72A.86.86,0,0,1,290.55,350.19Zm0,.56a1.56,1.56,0,0,0,1-.31,2,2,0,0,0,.62-.92,5.18,5.18,0,0,0,0-2.92,2,2,0,0,0-.63-.92,1.66,1.66,0,0,0-2,0,1.9,1.9,0,0,0-.63.92,4.92,4.92,0,0,0,0,2.91,2,2,0,0,0,.62.92A1.51,1.51,0,0,0,290.55,350.75Z" transform="translate(-13.3 -30.2)"/><path class="cls-4" d="M294.55,350.63h.65v-5.15h-.64l-.28.2-.27.19-.28.2-.27.2-.27.19v.68l.26-.19.26-.19a2.48,2.48,0,0,0,.26-.19l.26-.19.27-.19h.05Z" transform="translate(-13.3 -30.2)"/><polygon class="cls-4" points="283.54 320.43 284.21 320.43 286.5 315.88 286.5 315.28 283.1 315.28 283.1 315.86 285.85 315.86 285.85 315.91 283.54 320.43"/><rect class="cls-4" x="287.36" y="318.07" width="2.34" height="0.58"/><path class="cls-4" d="M304,346.93h.62a1.12,1.12,0,0,1,.13-.53,1,1,0,0,1,.36-.36,1.19,1.19,0,0,1,.54-.12,1,1,0,0,1,.52.12.92.92,0,0,1,.34.34,1,1,0,0,1,.12.49,1.16,1.16,0,0,1-.08.42,1.55,1.55,0,0,1-.26.42c-.12.16-.29.35-.51.59L304,350.19v.44h3.33v-.58h-2.44V350l1.17-1.21a8.63,8.63,0,0,0,.72-.81,2.5,2.5,0,0,0,.36-.6,1.56,1.56,0,0,0,.1-.57,1.33,1.33,0,0,0-.2-.74,1.51,1.51,0,0,0-.57-.52,1.79,1.79,0,0,0-.81-.18,1.81,1.81,0,0,0-.88.2,1.52,1.52,0,0,0-.82,1.37Z" transform="translate(-13.3 -30.2)"/><path class="cls-4" d="M310.08,350.19a.87.87,0,0,1-.64-.25,1.46,1.46,0,0,1-.4-.72,4,4,0,0,1-.14-1.17,3.85,3.85,0,0,1,.14-1.15,1.55,1.55,0,0,1,.4-.73.89.89,0,0,1,.64-.25.87.87,0,0,1,.64.25,1.6,1.6,0,0,1,.4.72,5.29,5.29,0,0,1,0,2.33,1.46,1.46,0,0,1-.4.72A.87.87,0,0,1,310.08,350.19Zm0,.56a1.58,1.58,0,0,0,1-.31,2.08,2.08,0,0,0,.62-.92,4.46,4.46,0,0,0,.21-1.46,4.23,4.23,0,0,0-.22-1.46,2,2,0,0,0-.62-.92,1.5,1.5,0,0,0-1-.32,1.55,1.55,0,0,0-1,.32,2,2,0,0,0-.62.92,4.92,4.92,0,0,0,0,2.91,2,2,0,0,0,.62.92A1.51,1.51,0,0,0,310.08,350.75Z" transform="translate(-13.3 -30.2)"/><path class="cls-4" d="M312.82,346.93h.62a1,1,0,0,1,.13-.53.89.89,0,0,1,.36-.36,1.13,1.13,0,0,1,.54-.12,1.08,1.08,0,0,1,.52.12.9.9,0,0,1,.33.34,1,1,0,0,1,.12.49,1.16,1.16,0,0,1-.07.42,1.85,1.85,0,0,1-.26.42c-.13.16-.3.35-.52.59l-1.74,1.89v.44h3.33v-.58h-2.44V350l1.17-1.21a10.8,10.8,0,0,0,.73-.81,2.5,2.5,0,0,0,.36-.6,1.8,1.8,0,0,0,.1-.57,1.33,1.33,0,0,0-.21-.74,1.51,1.51,0,0,0-.57-.52,1.79,1.79,0,0,0-.81-.18,1.75,1.75,0,0,0-.87.2,1.41,1.41,0,0,0-.6.56A1.45,1.45,0,0,0,312.82,346.93Z" transform="translate(-13.3 -30.2)"/><path class="cls-4" d="M318.89,350.19a.89.89,0,0,1-.64-.25,1.55,1.55,0,0,1-.4-.72,4.36,4.36,0,0,1-.14-1.17,4.2,4.2,0,0,1,.14-1.15,1.65,1.65,0,0,1,.41-.73.93.93,0,0,1,1.27,0,1.51,1.51,0,0,1,.4.72,4.92,4.92,0,0,1,0,2.33,1.54,1.54,0,0,1-.39.72A.9.9,0,0,1,318.89,350.19Zm0,.56a1.56,1.56,0,0,0,1-.31,2,2,0,0,0,.62-.92,5,5,0,0,0,0-2.92,2,2,0,0,0-.62-.92,1.68,1.68,0,0,0-2,0,2,2,0,0,0-.63.92,5.15,5.15,0,0,0,0,2.91,2,2,0,0,0,.63.92A1.5,1.5,0,0,0,318.89,350.75Z" transform="translate(-13.3 -30.2)"/><path class="cls-4" d="M324.35,346.06h1.08a2,2,0,0,1,1,.23,1.54,1.54,0,0,1,.62.69,2.39,2.39,0,0,1,.22,1.08,2.32,2.32,0,0,1-.22,1.07,1.54,1.54,0,0,1-.62.69,2,2,0,0,1-1,.23h-1.08Zm-.64-.58v5.15h1.76a2.54,2.54,0,0,0,1.31-.31,2,2,0,0,0,.84-.88,3.1,3.1,0,0,0,.29-1.39,3.06,3.06,0,0,0-.29-1.38,2.07,2.07,0,0,0-.84-.89,2.67,2.67,0,0,0-1.31-.3Z" transform="translate(-13.3 -30.2)"/><path class="cls-4" d="M329.16,346a.44.44,0,1,0-.3-.13A.38.38,0,0,0,329.16,346Zm-.31,4.59h.62v-3.85h-.62Z" transform="translate(-13.3 -30.2)"/><path class="cls-4" d="M330.44,347.83a.9.9,0,0,0,.26.67,1.76,1.76,0,0,0,.79.38l.66.16a1,1,0,0,1,.46.21.43.43,0,0,1,.15.33.44.44,0,0,1-.11.31.77.77,0,0,1-.31.21,1.34,1.34,0,0,1-.46.08,1.11,1.11,0,0,1-.43-.07.73.73,0,0,1-.31-.18.88.88,0,0,1-.17-.28h-.63a1,1,0,0,0,.23.55,1.3,1.3,0,0,0,.53.37,2.18,2.18,0,0,0,.75.13,2,2,0,0,0,.79-.15,1.37,1.37,0,0,0,.55-.41,1,1,0,0,0,.21-.61.87.87,0,0,0-.27-.66,1.91,1.91,0,0,0-.81-.38l-.59-.14a1.49,1.49,0,0,1-.5-.21.42.42,0,0,1-.17-.33.46.46,0,0,1,.11-.3.61.61,0,0,1,.29-.2,1.12,1.12,0,0,1,.42-.08,1,1,0,0,1,.56.14.62.62,0,0,1,.28.38h.61a1.07,1.07,0,0,0-.45-.76,1.74,1.74,0,0,0-1-.28,1.7,1.7,0,0,0-.73.15,1.32,1.32,0,0,0-.52.4A1,1,0,0,0,330.44,347.83Z" transform="translate(-13.3 -30.2)"/><path class="cls-4" d="M334.1,347.83a.9.9,0,0,0,.25.67,1.81,1.81,0,0,0,.8.38l.66.16a1,1,0,0,1,.45.21.41.41,0,0,1,.16.33.45.45,0,0,1-.12.31.71.71,0,0,1-.31.21,1.34,1.34,0,0,1-.46.08,1.11,1.11,0,0,1-.43-.07.64.64,0,0,1-.3-.18.75.75,0,0,1-.18-.28H334a1.08,1.08,0,0,0,.23.55,1.37,1.37,0,0,0,.53.37,2.2,2.2,0,0,0,.76.13,1.94,1.94,0,0,0,.78-.15,1.41,1.41,0,0,0,.56-.41,1,1,0,0,0,.2-.61.87.87,0,0,0-.27-.66,1.8,1.8,0,0,0-.81-.38l-.59-.14a1.59,1.59,0,0,1-.5-.21.42.42,0,0,1-.17-.33.46.46,0,0,1,.11-.3.64.64,0,0,1,.3-.2,1.07,1.07,0,0,1,.41-.08,1.09,1.09,0,0,1,.57.14.64.64,0,0,1,.27.38H337a1.07,1.07,0,0,0-.45-.76,1.71,1.71,0,0,0-1-.28,1.73,1.73,0,0,0-.73.15,1.22,1.22,0,0,0-.51.4A.91.91,0,0,0,334.1,347.83Z" transform="translate(-13.3 -30.2)"/><path class="cls-4" d="M340.46,349.63a.87.87,0,0,1-.37.39,1.32,1.32,0,0,1-.62.13,1.05,1.05,0,0,1-.57-.15,1,1,0,0,1-.39-.43,1.69,1.69,0,0,1-.15-.66v0h2.76v-.23a2.54,2.54,0,0,0-.2-1,1.54,1.54,0,0,0-.57-.66,1.63,1.63,0,0,0-.9-.24,1.73,1.73,0,0,0-.92.25,1.62,1.62,0,0,0-.6.69,2.47,2.47,0,0,0-.21,1.06,2.43,2.43,0,0,0,.21,1.05,1.56,1.56,0,0,0,.6.69,1.65,1.65,0,0,0,.92.25,2.18,2.18,0,0,0,.75-.13,1.48,1.48,0,0,0,.56-.37,1.32,1.32,0,0,0,.31-.57Zm-1-2.37a1,1,0,0,1,.54.14,1,1,0,0,1,.36.39,1.4,1.4,0,0,1,.14.6h-2.12a1.4,1.4,0,0,1,.16-.6,1,1,0,0,1,.38-.39A1,1,0,0,1,339.44,347.26Z" transform="translate(-13.3 -30.2)"/><path class="cls-4" d="M342,350.63h.62v-2.39a1.14,1.14,0,0,1,.11-.49.93.93,0,0,1,.33-.35.77.77,0,0,1,.45-.13.79.79,0,0,1,.58.2.71.71,0,0,1,.22.55v2.61h.62v-2.47a.84.84,0,0,1,.11-.45.8.8,0,0,1,.31-.32.89.89,0,0,1,.47-.12.82.82,0,0,1,.61.21.9.9,0,0,1,.2.63v2.52h.61V348a1.4,1.4,0,0,0-.14-.68.92.92,0,0,0-.42-.43,1.34,1.34,0,0,0-.66-.15,1.39,1.39,0,0,0-.5.09,1.23,1.23,0,0,0-.4.23,1.09,1.09,0,0,0-.28.36h-.06a1.16,1.16,0,0,0-.59-.59,1.19,1.19,0,0,0-.47-.09,1.16,1.16,0,0,0-.66.18,1,1,0,0,0-.42.5h-.05v-.61H342Z" transform="translate(-13.3 -30.2)"/><path class="cls-4" d="M348.56,346a.42.42,0,0,0,.31-.13.43.43,0,0,0,0-.6.42.42,0,0,0-.31-.13.39.39,0,0,0-.3.13.41.41,0,0,0,0,.6A.39.39,0,0,0,348.56,346Zm-.3,4.59h.61v-3.85h-.61Z" transform="translate(-13.3 -30.2)"/><path class="cls-4" d="M349.94,350.63h.61v-2.28a1.18,1.18,0,0,1,.13-.58.84.84,0,0,1,.35-.37,1,1,0,0,1,.53-.13.83.83,0,0,1,.68.25,1.11,1.11,0,0,1,.23.77v2.34h.61v-2.49a1.46,1.46,0,0,0-.35-1.06,1.31,1.31,0,0,0-1-.37,1.34,1.34,0,0,0-.73.18,1.17,1.17,0,0,0-.43.5h-.06v-.61h-.58Z" transform="translate(-13.3 -30.2)"/><path class="cls-4" d="M355.17,350.7a1.51,1.51,0,0,0,.48-.08,1.18,1.18,0,0,0,.4-.21,1.5,1.5,0,0,0,.31-.35h.05v.57H357V348a1.34,1.34,0,0,0-.17-.68,1.08,1.08,0,0,0-.5-.44,1.76,1.76,0,0,0-.8-.16,1.86,1.86,0,0,0-1,.28,1,1,0,0,0-.48.75h.63a.6.6,0,0,1,.29-.36,1.2,1.2,0,0,1,.57-.12.94.94,0,0,1,.65.19.66.66,0,0,1,.22.54v.35l-1.11.07a1.85,1.85,0,0,0-1,.33,1,1,0,0,0-.37.81,1.08,1.08,0,0,0,.63,1A1.6,1.6,0,0,0,355.17,350.7Zm.11-.54a.9.9,0,0,1-.55-.17.59.59,0,0,1,0-.9,1.22,1.22,0,0,1,.64-.18l1-.07v.35a.86.86,0,0,1-.14.5.93.93,0,0,1-.39.34A1.17,1.17,0,0,1,355.28,350.16Z" transform="translate(-13.3 -30.2)"/><path class="cls-4" d="M358.29,345.79v1h-.62v.52h.62v2.33a1,1,0,0,0,.26.79,1.22,1.22,0,0,0,.85.24h.24l.12,0v-.52h-.29A.55.55,0,0,1,359,350a.76.76,0,0,1-.14-.5V347.3h.86v-.52h-.86v-1Z" transform="translate(-13.3 -30.2)"/><path class="cls-4" d="M363.08,349.63a.87.87,0,0,1-.37.39,1.32,1.32,0,0,1-.62.13,1.05,1.05,0,0,1-.57-.15,1,1,0,0,1-.39-.43,1.69,1.69,0,0,1-.15-.66v0h2.76v-.23a2.54,2.54,0,0,0-.2-1A1.54,1.54,0,0,0,363,347a1.63,1.63,0,0,0-.9-.24,1.73,1.73,0,0,0-.92.25,1.62,1.62,0,0,0-.6.69,2.47,2.47,0,0,0-.21,1.06,2.43,2.43,0,0,0,.21,1.05,1.56,1.56,0,0,0,.6.69,1.65,1.65,0,0,0,.92.25,2.18,2.18,0,0,0,.75-.13,1.48,1.48,0,0,0,.56-.37,1.32,1.32,0,0,0,.31-.57Zm-1-2.37a1,1,0,0,1,.54.14,1,1,0,0,1,.36.39,1.4,1.4,0,0,1,.14.6H361a1.4,1.4,0,0,1,.16-.6,1,1,0,0,1,.38-.39A1,1,0,0,1,362.06,347.26Z" transform="translate(-13.3 -30.2)"/><g class="cls-5"><rect class="cls-6" x="27.7" y="316.12" width="4.81" height="5.89" rx="0.82"/><path class="cls-7" d="M45,346.09H41.83a1.06,1.06,0,0,0-1.07,1.05v4.24a1.06,1.06,0,0,0,1.07,1.07H45a1.06,1.06,0,0,0,1.07-1.07v-4.24A1.08,1.08,0,0,0,45,346.09Zm0,.5a.57.57,0,0,1,.57.58v4.24A.56.56,0,0,1,45,352H41.83a.56.56,0,0,1-.57-.57v-4.27a.56.56,0,0,1,.57-.57H45" transform="translate(-13.3 -30.2)"/><line class="cls-8" x1="28.48" y1="317.54" x2="31.74" y2="317.54"/><line class="cls-8" x1="28.48" y1="319.06" x2="31.74" y2="319.06"/><line class="cls-8" x1="28.48" y1="320.59" x2="31.74" y2="320.59"/><rect class="cls-6" x="30" y="316.95" width="5.64" height="6.63" rx="0.82"/><path class="cls-6" d="M48.12,346.89h-4A1.1,1.1,0,0,0,43.05,348v5A1.07,1.07,0,0,0,44.13,354h4A1.06,1.06,0,0,0,49.19,353v-5A1.1,1.1,0,0,0,48.12,346.89Zm0,.5a.56.56,0,0,1,.57.57v5a.56.56,0,0,1-.57.57h-4a.56.56,0,0,1-.58-.57v-5a.57.57,0,0,1,.58-.57h4" transform="translate(-13.3 -30.2)"/></g><g class="cls-5"><g class="cls-9"><g class="cls-10"><g class="cls-11"><rect class="cls-6" x="27.7" y="316.12" width="4.81" height="5.89" rx="0.82"/><path class="cls-6" d="M45,346.07H41.83a1.06,1.06,0,0,0-1.07,1.07v4.24a1.06,1.06,0,0,0,1.07,1.07H45a1.06,1.06,0,0,0,1.07-1.07v-4.24A1.08,1.08,0,0,0,45,346.07Zm0,.5a.56.56,0,0,1,.57.57v4.24A.56.56,0,0,1,45,352H41.83a.56.56,0,0,1-.57-.57v-4.24a.56.56,0,0,1,.57-.57H45" transform="translate(-13.3 -30.2)"/></g></g></g><rect class="cls-6" x="30.32" y="317.32" width="4.81" height="5.89" rx="0.82"/><path class="cls-7" d="M47.62,347.27H44.45a1.06,1.06,0,0,0-1.07,1.07v4.24a1.06,1.06,0,0,0,1.07,1.07h3.17a1.06,1.06,0,0,0,1.07-1.07v-4.24A1.08,1.08,0,0,0,47.62,347.27Zm0,.49a.57.57,0,0,1,.57.58v4.24a.56.56,0,0,1-.57.57H44.45a.56.56,0,0,1-.57-.57v-4.24a.57.57,0,0,1,.57-.58h3.17" transform="translate(-13.3 -30.2)"/><line class="cls-8" x1="31.1" y1="318.72" x2="34.36" y2="318.72"/><line class="cls-8" x1="31.1" y1="320.24" x2="34.36" y2="320.24"/><line class="cls-8" x1="31.1" y1="321.78" x2="34.36" y2="321.78"/></g><g class="cls-12"><rect class="cls-13" x="35.24" y="321.93" width="1.96" height="0.5"/></g><g class="cls-12"><g class="cls-14"><g class="cls-15"><rect class="cls-13" x="37.2" y="321.93" width="58.78" height="0.5"/></g></g></g><g class="cls-12"><path class="cls-4" d="M51.75,347.06h1.08a2,2,0,0,1,1,.23,1.54,1.54,0,0,1,.62.69,2.39,2.39,0,0,1,.22,1.08,2.32,2.32,0,0,1-.22,1.07,1.54,1.54,0,0,1-.62.69,2,2,0,0,1-1,.23H51.75Zm-.64-.58v5.15h1.76a2.54,2.54,0,0,0,1.31-.31,2,2,0,0,0,.84-.88,3.1,3.1,0,0,0,.29-1.39,3.06,3.06,0,0,0-.29-1.38,2.07,2.07,0,0,0-.84-.89,2.67,2.67,0,0,0-1.31-.3Z" transform="translate(-13.3 -30.2)"/><path class="cls-4" d="M57.82,351.14a1,1,0,0,1-.62-.17,1,1,0,0,1-.39-.49,2.38,2.38,0,0,1,0-1.55,1,1,0,0,1,.39-.49,1.22,1.22,0,0,1,1.24,0,1,1,0,0,1,.38.49,2.22,2.22,0,0,1,0,1.55,1,1,0,0,1-.38.49A1,1,0,0,1,57.82,351.14Zm0,.56a1.75,1.75,0,0,0,.94-.24,1.6,1.6,0,0,0,.62-.69,2.81,2.81,0,0,0,0-2.13,1.6,1.6,0,0,0-.62-.69,1.75,1.75,0,0,0-.94-.24,1.81,1.81,0,0,0-1,.24,1.58,1.58,0,0,0-.61.69,2.69,2.69,0,0,0,0,2.13,1.58,1.58,0,0,0,.61.69A1.81,1.81,0,0,0,57.82,351.7Z" transform="translate(-13.3 -30.2)"/><path class="cls-4" d="M63.64,349a1.46,1.46,0,0,0-.26-.63,1.37,1.37,0,0,0-.55-.45,1.8,1.8,0,0,0-.81-.17,1.66,1.66,0,0,0-.93.25,1.52,1.52,0,0,0-.61.69,2.25,2.25,0,0,0-.22,1,2.33,2.33,0,0,0,.22,1.06,1.61,1.61,0,0,0,.61.7,1.72,1.72,0,0,0,.94.25,1.93,1.93,0,0,0,.8-.16,1.51,1.51,0,0,0,.55-.44,1.36,1.36,0,0,0,.26-.63H63a.87.87,0,0,1-.35.5,1.11,1.11,0,0,1-.65.17,1.07,1.07,0,0,1-.59-.17,1.13,1.13,0,0,1-.39-.51,1.83,1.83,0,0,1-.14-.77,1.9,1.9,0,0,1,.13-.75,1.25,1.25,0,0,1,.39-.5,1.08,1.08,0,0,1,.6-.17,1,1,0,0,1,.67.2A.94.94,0,0,1,63,349Z" transform="translate(-13.3 -30.2)"/><path class="cls-4" d="M67.55,347.78h-.61v2.28a1.31,1.31,0,0,1-.12.58.86.86,0,0,1-.36.37,1.2,1.2,0,0,1-.57.13.84.84,0,0,1-.67-.25,1.24,1.24,0,0,1-.2-.77v-2.34h-.61v2.49a1.84,1.84,0,0,0,.14.78,1.08,1.08,0,0,0,.44.48,1.49,1.49,0,0,0,.73.17,1.74,1.74,0,0,0,.53-.08,1.13,1.13,0,0,0,.4-.23,1,1,0,0,0,.26-.36H67v.6h.58Z" transform="translate(-13.3 -30.2)"/><path class="cls-4" d="M68.61,351.63h.61v-2.39a1,1,0,0,1,.12-.49.9.9,0,0,1,.32-.35.91.91,0,0,1,1,.07.75.75,0,0,1,.22.55v2.61h.61v-2.47a.94.94,0,0,1,.11-.45.82.82,0,0,1,.32-.32.88.88,0,0,1,.46-.12.79.79,0,0,1,.61.21.85.85,0,0,1,.2.63v2.52h.62V349a1.52,1.52,0,0,0-.14-.68,1,1,0,0,0-.42-.43,1.36,1.36,0,0,0-.67-.15,1.33,1.33,0,0,0-.49.09,1.27,1.27,0,0,0-.41.23,1.07,1.07,0,0,0-.27.36h-.06a1.09,1.09,0,0,0-.24-.35,1.13,1.13,0,0,0-.36-.24,1.16,1.16,0,0,0-.47-.09,1.21,1.21,0,0,0-.66.18,1,1,0,0,0-.41.5h-.06v-.61h-.58Z" transform="translate(-13.3 -30.2)"/><path class="cls-4" d="M77.41,350.63A.82.82,0,0,1,77,351a1.27,1.27,0,0,1-.62.13,1.1,1.1,0,0,1-.57-.15,1,1,0,0,1-.38-.43,1.69,1.69,0,0,1-.16-.66v0h2.77v-.23a2.54,2.54,0,0,0-.2-1,1.56,1.56,0,0,0-.58-.66,1.6,1.6,0,0,0-.89-.24,1.73,1.73,0,0,0-.92.25,1.62,1.62,0,0,0-.6.69,2.33,2.33,0,0,0-.22,1.06,2.43,2.43,0,0,0,.21,1.05,1.52,1.52,0,0,0,.61.69,1.63,1.63,0,0,0,.92.25,2.18,2.18,0,0,0,.75-.13,1.57,1.57,0,0,0,.56-.37,1.32,1.32,0,0,0,.31-.57Zm-1-2.37a1,1,0,0,1,.9.53,1.4,1.4,0,0,1,.13.6H75.31a1.4,1.4,0,0,1,.17-.6,1,1,0,0,1,.38-.39A1,1,0,0,1,76.4,348.26Z" transform="translate(-13.3 -30.2)"/><path class="cls-4" d="M78.94,351.63h.61v-2.28a1.18,1.18,0,0,1,.13-.58.84.84,0,0,1,.35-.37,1,1,0,0,1,.53-.13.87.87,0,0,1,.69.25,1.11,1.11,0,0,1,.22.77v2.34h.61v-2.49a1.5,1.5,0,0,0-.34-1.06,1.55,1.55,0,0,0-1.73-.19,1.17,1.17,0,0,0-.43.5h-.06v-.61h-.58Z" transform="translate(-13.3 -30.2)"/><path class="cls-4" d="M83.36,346.79v1h-.62v.52h.62v2.33a1,1,0,0,0,.26.79,1.22,1.22,0,0,0,.85.24h.24l.12,0v-.52h-.29a.55.55,0,0,1-.43-.15.76.76,0,0,1-.14-.5V348.3h.86v-.52H84v-1Z" transform="translate(-13.3 -30.2)"/><polygon class="cls-4" points="77.52 320.86 75.03 320.86 75.03 316.28 74.39 316.28 74.39 321.43 77.52 321.43 77.52 320.86"/><path class="cls-4" d="M92,347a.42.42,0,0,0,.31-.13.44.44,0,0,0,0-.6.42.42,0,0,0-.31-.13.43.43,0,0,0,0,.86Zm-.3,4.59h.61v-3.85h-.61Z" transform="translate(-13.3 -30.2)"/><path class="cls-4" d="M93.27,348.83a.9.9,0,0,0,.25.67,1.87,1.87,0,0,0,.8.38L95,350a1.1,1.1,0,0,1,.46.21.43.43,0,0,1,.15.33.49.49,0,0,1-.11.31.81.81,0,0,1-.32.21,1.3,1.3,0,0,1-.46.08,1.14,1.14,0,0,1-.43-.07.75.75,0,0,1-.3-.18.62.62,0,0,1-.17-.28h-.63a1,1,0,0,0,.23.55,1.26,1.26,0,0,0,.52.37,2.2,2.2,0,0,0,.76.13,2,2,0,0,0,.79-.15,1.45,1.45,0,0,0,.55-.41,1,1,0,0,0,.2-.61.9.9,0,0,0-.26-.66,1.91,1.91,0,0,0-.81-.38l-.6-.14a1.59,1.59,0,0,1-.5-.21.41.41,0,0,1-.16-.33.41.41,0,0,1,.11-.3.61.61,0,0,1,.29-.2,1.07,1.07,0,0,1,.41-.08,1.09,1.09,0,0,1,.57.14.66.66,0,0,1,.28.38h.6a1.07,1.07,0,0,0-.45-.76,1.71,1.71,0,0,0-1-.28,1.73,1.73,0,0,0-.73.15,1.29,1.29,0,0,0-.51.4A.91.91,0,0,0,93.27,348.83Z" transform="translate(-13.3 -30.2)"/><path class="cls-4" d="M97.3,346.79v1h-.62v.52h.62v2.33a1,1,0,0,0,.26.79,1.25,1.25,0,0,0,.85.24h.24l.12,0v-.52h-.28a.57.57,0,0,1-.44-.15.77.77,0,0,1-.13-.5V348.3h.85v-.52h-.85v-1Z" transform="translate(-13.3 -30.2)"/><path class="cls-4" d="M99.92,347a.44.44,0,1,0-.3-.13A.38.38,0,0,0,99.92,347Zm-.31,4.59h.62v-3.85h-.62Z" transform="translate(-13.3 -30.2)"/><path class="cls-4" d="M101.3,351.63h.61v-2.28a1.31,1.31,0,0,1,.12-.58.86.86,0,0,1,.36-.37,1,1,0,0,1,.53-.13.85.85,0,0,1,.68.25,1.11,1.11,0,0,1,.23.77v2.34h.61v-2.49a1.5,1.5,0,0,0-.35-1.06,1.53,1.53,0,0,0-1.72-.19,1.17,1.17,0,0,0-.43.5h-.06v-.61h-.58Z" transform="translate(-13.3 -30.2)"/><path class="cls-4" d="M107,353.11a2.11,2.11,0,0,0,.91-.18,1.27,1.27,0,0,0,.6-.49,1.31,1.31,0,0,0,.21-.74v-3.92h-.59v.61h-.06a1.12,1.12,0,0,0-.29-.36,1.37,1.37,0,0,0-.43-.23,1.44,1.44,0,0,0-.51-.09,1.47,1.47,0,0,0-.86.25,1.62,1.62,0,0,0-.56.67,2.68,2.68,0,0,0,0,2,1.55,1.55,0,0,0,.56.67,1.52,1.52,0,0,0,.86.24,1.57,1.57,0,0,0,.49-.07,1.5,1.5,0,0,0,.41-.23,1.55,1.55,0,0,0,.31-.36h0v.76a.79.79,0,0,1-.29.66,1.22,1.22,0,0,1-.81.24,1.29,1.29,0,0,1-.66-.14.54.54,0,0,1-.3-.38h-.65a1,1,0,0,0,.25.56,1.37,1.37,0,0,0,.55.37A2.46,2.46,0,0,0,107,353.11Zm0-2.08a1.06,1.06,0,0,1-.6-.17,1.13,1.13,0,0,1-.38-.48,1.83,1.83,0,0,1-.13-.73,1.8,1.8,0,0,1,.13-.73,1,1,0,0,1,.38-.48,1,1,0,0,1,.6-.17,1,1,0,0,1,1,.65,1.79,1.79,0,0,1,.14.73,1.83,1.83,0,0,1-.14.73,1.15,1.15,0,0,1-.39.48A1.13,1.13,0,0,1,107,351Z" transform="translate(-13.3 -30.2)"/></g><g class="cls-16"><path class="cls-6" d="M130.31,352.65a.82.82,0,0,1-.82-.82v-4.39a.82.82,0,0,1,.82-.82h4.41a.83.83,0,0,1,.83.82v4.41a.84.84,0,0,1-.83.83h-4.41Z" transform="translate(-13.3 -30.2)"/><path class="cls-7" d="M134.7,346.37h-4.39a1.06,1.06,0,0,0-1.07,1.07v4.41a1.07,1.07,0,0,0,1.07,1.08h4.41a1.08,1.08,0,0,0,1.08-1.08v-4.41A1.1,1.1,0,0,0,134.7,346.37Zm0,.5a.56.56,0,0,1,.57.57v4.41a.57.57,0,0,1-.57.58h-4.39a.57.57,0,0,1-.57-.58v-4.41a.56.56,0,0,1,.57-.57h4.39" transform="translate(-13.3 -30.2)"/><path class="cls-13" d="M131.38,348.11a.33.33,0,0,1-.11.27.36.36,0,0,1-.26.11.39.39,0,0,1-.27-.11.37.37,0,0,1-.11-.27.36.36,0,0,1,.11-.26.39.39,0,0,1,.27-.11.36.36,0,0,1,.26.11A.33.33,0,0,1,131.38,348.11Z" transform="translate(-13.3 -30.2)"/><path class="cls-17" d="M131.38,348.11a.33.33,0,0,1-.11.27.36.36,0,0,1-.26.11.39.39,0,0,1-.27-.11.37.37,0,0,1-.11-.27.36.36,0,0,1,.11-.26.39.39,0,0,1,.27-.11.36.36,0,0,1,.26.11A.33.33,0,0,1,131.38,348.11Z" transform="translate(-13.3 -30.2)"/><line class="cls-18" x1="118.65" y1="317.92" x2="121.32" y2="317.92"/><path class="cls-19" d="M131.76,349.63a.37.37,0,0,1-.11.27.4.4,0,0,1-.27.11.36.36,0,0,1-.26-.11.33.33,0,0,1-.11-.27.33.33,0,0,1,.11-.26.36.36,0,0,1,.26-.11.4.4,0,0,1,.27.11A.36.36,0,0,1,131.76,349.63Z" transform="translate(-13.3 -30.2)"/><path class="cls-20" d="M131.76,349.63a.37.37,0,0,1-.11.27.4.4,0,0,1-.27.11.36.36,0,0,1-.26-.11.33.33,0,0,1-.11-.27.33.33,0,0,1,.11-.26.36.36,0,0,1,.26-.11.4.4,0,0,1,.27.11A.36.36,0,0,1,131.76,349.63Z" transform="translate(-13.3 -30.2)"/><line class="cls-8" x1="119.02" y1="319.44" x2="121.12" y2="319.44"/><path class="cls-19" d="M131.76,351.16a.36.36,0,0,1-.11.26.4.4,0,0,1-.27.11.36.36,0,0,1-.26-.11.33.33,0,0,1-.11-.26.33.33,0,0,1,.11-.27.36.36,0,0,1,.26-.11.4.4,0,0,1,.27.11A.37.37,0,0,1,131.76,351.16Z" transform="translate(-13.3 -30.2)"/><path class="cls-20" d="M131.76,351.16a.36.36,0,0,1-.11.26.4.4,0,0,1-.27.11.36.36,0,0,1-.26-.11.33.33,0,0,1-.11-.26.33.33,0,0,1,.11-.27.36.36,0,0,1,.26-.11.4.4,0,0,1,.27.11A.37.37,0,0,1,131.76,351.16Z" transform="translate(-13.3 -30.2)"/><line class="cls-8" x1="119.02" y1="320.96" x2="121.12" y2="320.96"/></g><g class="cls-12"><rect class="cls-13" x="123.41" y="321.93" width="1.96" height="0.5"/></g><g class="cls-12"><g class="cls-14"><g class="cls-21"><rect class="cls-13" x="125.37" y="321.93" width="24.16" height="0.5"/></g></g></g><g class="cls-12"><path class="cls-4" d="M139,350.28a1.39,1.39,0,0,0,.28.78,1.55,1.55,0,0,0,.66.51,2.77,2.77,0,0,0,2,0,1.58,1.58,0,0,0,.67-.54,1.39,1.39,0,0,0,.23-.82,1.18,1.18,0,0,0-.34-.9,2.62,2.62,0,0,0-1.15-.54l-.54-.14a2,2,0,0,1-.76-.32.61.61,0,0,1-.23-.5.71.71,0,0,1,.14-.45.88.88,0,0,1,.4-.3,1.66,1.66,0,0,1,1.16,0,.92.92,0,0,1,.4.29.88.88,0,0,1,.2.45h.65a1.39,1.39,0,0,0-.27-.74,1.58,1.58,0,0,0-.63-.5,2.11,2.11,0,0,0-.89-.18,2.42,2.42,0,0,0-1,.18,1.55,1.55,0,0,0-.64.51,1.34,1.34,0,0,0-.22.77,1.21,1.21,0,0,0,.31.88,2.16,2.16,0,0,0,1,.51l.66.17a1.9,1.9,0,0,1,.78.35.7.7,0,0,1,.25.55.77.77,0,0,1-.15.46,1.06,1.06,0,0,1-.43.31,1.52,1.52,0,0,1-.62.12,1.88,1.88,0,0,1-.65-.11,1.29,1.29,0,0,1-.46-.31.81.81,0,0,1-.21-.47Z" transform="translate(-13.3 -30.2)"/><path class="cls-4" d="M144.08,347a.44.44,0,1,0-.3-.13A.38.38,0,0,0,144.08,347Zm-.31,4.59h.62v-3.85h-.62Z" transform="translate(-13.3 -30.2)"/><path class="cls-4" d="M147,353.11a2.14,2.14,0,0,0,.91-.18,1.27,1.27,0,0,0,.6-.49,1.39,1.39,0,0,0,.2-.74v-3.92h-.58v.61h-.06a1,1,0,0,0-.3-.36,1.22,1.22,0,0,0-.42-.23A1.56,1.56,0,0,0,146,348a1.55,1.55,0,0,0-.56.67,2.68,2.68,0,0,0,0,2,1.55,1.55,0,0,0,.56.67,1.52,1.52,0,0,0,.86.24,1.57,1.57,0,0,0,.49-.07,1.5,1.5,0,0,0,.41-.23,1.31,1.31,0,0,0,.3-.36h.06v.76a.82.82,0,0,1-.29.66,1.54,1.54,0,0,1-1.47.1.54.54,0,0,1-.3-.38h-.65a1,1,0,0,0,.25.56,1.37,1.37,0,0,0,.55.37A2.46,2.46,0,0,0,147,353.11Zm0-2.08a1,1,0,0,1-.6-.17,1.13,1.13,0,0,1-.38-.48,1.83,1.83,0,0,1-.13-.73,1.8,1.8,0,0,1,.13-.73,1,1,0,0,1,.38-.48,1,1,0,0,1,.6-.17,1,1,0,0,1,.61.17,1.06,1.06,0,0,1,.4.48,1.8,1.8,0,0,1,.13.73,1.83,1.83,0,0,1-.13.73,1.18,1.18,0,0,1-.4.48A1.09,1.09,0,0,1,147,351Z" transform="translate(-13.3 -30.2)"/><path class="cls-4" d="M149.81,351.63h.61v-2.28a1.18,1.18,0,0,1,.13-.58.84.84,0,0,1,.35-.37,1,1,0,0,1,.53-.13.87.87,0,0,1,.69.25,1.16,1.16,0,0,1,.22.77v2.34H153v-2.49a1.46,1.46,0,0,0-.35-1.06,1.31,1.31,0,0,0-1-.37,1.34,1.34,0,0,0-.73.18,1.17,1.17,0,0,0-.43.5h-.06v-.61h-.58Z" transform="translate(-13.3 -30.2)"/><path class="cls-4" d="M155,351.7a1.51,1.51,0,0,0,.48-.08,1.18,1.18,0,0,0,.4-.21,1.5,1.5,0,0,0,.31-.35h.05v.57h.59V349a1.34,1.34,0,0,0-.17-.68,1.08,1.08,0,0,0-.5-.44,1.71,1.71,0,0,0-.79-.16,1.9,1.9,0,0,0-1,.28,1.07,1.07,0,0,0-.48.75h.63a.6.6,0,0,1,.29-.36,1.2,1.2,0,0,1,.57-.12,1,1,0,0,1,.66.19.69.69,0,0,1,.21.54v.35l-1.11.07a1.85,1.85,0,0,0-1,.33,1,1,0,0,0-.37.81,1.12,1.12,0,0,0,.17.61,1.09,1.09,0,0,0,.47.4A1.53,1.53,0,0,0,155,351.7Zm.12-.54a.91.91,0,0,1-.56-.17.59.59,0,0,1,0-.9,1.22,1.22,0,0,1,.64-.18l1-.07v.35a.86.86,0,0,1-.14.5.93.93,0,0,1-.39.34A1.13,1.13,0,0,1,155.16,351.16Z" transform="translate(-13.3 -30.2)"/><rect class="cls-4" x="144.63" y="316.06" width="0.61" height="5.38"/><path class="cls-4" d="M159.55,348.83a.9.9,0,0,0,.26.67,1.76,1.76,0,0,0,.79.38l.66.16a1.1,1.1,0,0,1,.46.21.43.43,0,0,1,.15.33.49.49,0,0,1-.11.31.75.75,0,0,1-.32.21,1.26,1.26,0,0,1-.46.08,1.14,1.14,0,0,1-.43-.07.75.75,0,0,1-.3-.18.62.62,0,0,1-.17-.28h-.63a1,1,0,0,0,.23.55,1.26,1.26,0,0,0,.52.37,2.2,2.2,0,0,0,.76.13,2,2,0,0,0,.79-.15,1.45,1.45,0,0,0,.55-.41,1,1,0,0,0,.2-.61.9.9,0,0,0-.26-.66,1.91,1.91,0,0,0-.81-.38l-.59-.14a1.56,1.56,0,0,1-.51-.21.41.41,0,0,1-.16-.33.41.41,0,0,1,.11-.3.61.61,0,0,1,.29-.2,1.07,1.07,0,0,1,.41-.08,1.09,1.09,0,0,1,.57.14.66.66,0,0,1,.28.38h.6A1.07,1.07,0,0,0,162,348a1.7,1.7,0,0,0-1-.28,1.75,1.75,0,0,0-.74.15,1.36,1.36,0,0,0-.51.4A.91.91,0,0,0,159.55,348.83Z" transform="translate(-13.3 -30.2)"/></g><g class="cls-22"><path class="cls-6" d="M184.17,352.65a.82.82,0,0,1-.82-.82v-4.39a.82.82,0,0,1,.82-.82h4.42a.82.82,0,0,1,.82.82v4.41a.83.83,0,0,1-.82.83h-4.42Z" transform="translate(-13.3 -30.2)"/><path class="cls-7" d="M188.56,346.37h-4.39a1.06,1.06,0,0,0-1.07,1.07v4.41a1.07,1.07,0,0,0,1.07,1.08h4.42a1.07,1.07,0,0,0,1.07-1.08v-4.41A1.1,1.1,0,0,0,188.56,346.37Zm0,.5a.57.57,0,0,1,.58.57v4.41a.57.57,0,0,1-.58.58h-4.39a.57.57,0,0,1-.57-.58v-4.41a.56.56,0,0,1,.57-.57h4.39" transform="translate(-13.3 -30.2)"/><path class="cls-6" d="M184.42,350.56l1.37.92s.7-3.92,2.52-3.67" transform="translate(-13.3 -30.2)"/><path class="cls-23" d="M184.42,350.56l1.37.92s.7-3.92,2.52-3.67" transform="translate(-13.3 -30.2)"/></g><g class="cls-12"><rect class="cls-13" x="176.97" y="321.93" width="1.96" height="0.5"/><rect class="cls-13" x="178.92" y="321.93" width="31.52" height="0.5"/><path class="cls-4" d="M194.91,351.75a2.43,2.43,0,0,0,1-.19,2,2,0,0,0,.72-.54,1.85,1.85,0,0,0,.37-.83h-.65a1.38,1.38,0,0,1-.28.52,1.32,1.32,0,0,1-.5.33,1.67,1.67,0,0,1-.65.12,1.46,1.46,0,0,1-.86-.26,1.61,1.61,0,0,1-.56-.73,3.37,3.37,0,0,1,0-2.23,1.61,1.61,0,0,1,.56-.73,1.46,1.46,0,0,1,.86-.26,1.5,1.5,0,0,1,.64.13,1.33,1.33,0,0,1,.5.38,1.54,1.54,0,0,1,.29.57H197a1.88,1.88,0,0,0-.36-.87,2,2,0,0,0-.74-.59,2.24,2.24,0,0,0-1-.21,2.17,2.17,0,0,0-1.21.33,2.13,2.13,0,0,0-.79.93,3.82,3.82,0,0,0,0,2.87,2.09,2.09,0,0,0,2,1.26Z" transform="translate(-13.3 -30.2)"/><path class="cls-4" d="M197.92,351.63h.62v-2.28a1.32,1.32,0,0,1,.12-.57.88.88,0,0,1,.36-.38,1.18,1.18,0,0,1,.58-.13.87.87,0,0,1,.67.25,1.14,1.14,0,0,1,.22.77v2.34h.62v-2.49a1.45,1.45,0,0,0-.36-1.05,1.28,1.28,0,0,0-1-.38,1.4,1.4,0,0,0-.74.18,1.15,1.15,0,0,0-.45.5h-.05v-2.14h-.62Z" transform="translate(-13.3 -30.2)"/><path class="cls-4" d="M204.67,350.63a.82.82,0,0,1-.37.39,1.27,1.27,0,0,1-.62.13,1.05,1.05,0,0,1-.57-.15,1,1,0,0,1-.38-.43,1.53,1.53,0,0,1-.16-.66v0h2.77v-.23a2.54,2.54,0,0,0-.2-1,1.56,1.56,0,0,0-.58-.66,1.62,1.62,0,0,0-.89-.24,1.71,1.71,0,0,0-.92.25,1.62,1.62,0,0,0-.6.69,2.33,2.33,0,0,0-.22,1.06,2.43,2.43,0,0,0,.21,1.05,1.56,1.56,0,0,0,.6.69,1.66,1.66,0,0,0,.93.25,2.18,2.18,0,0,0,.75-.13,1.44,1.44,0,0,0,.55-.37,1.34,1.34,0,0,0,.32-.57Zm-1-2.37a.93.93,0,0,1,.53.14.85.85,0,0,1,.36.39,1.27,1.27,0,0,1,.14.6h-2.12a1.4,1.4,0,0,1,.17-.6,1,1,0,0,1,.92-.53Z" transform="translate(-13.3 -30.2)"/><path class="cls-4" d="M209.38,349a1.38,1.38,0,0,0-.8-1.08,1.86,1.86,0,0,0-.81-.17,1.72,1.72,0,0,0-.94.25,1.58,1.58,0,0,0-.61.69,2.38,2.38,0,0,0-.22,1,2.47,2.47,0,0,0,.22,1.06,1.63,1.63,0,0,0,.62.7,1.66,1.66,0,0,0,.93.25,2,2,0,0,0,.81-.16,1.48,1.48,0,0,0,.54-.44,1.27,1.27,0,0,0,.26-.63h-.62a.86.86,0,0,1-.34.5,1.13,1.13,0,0,1-.65.17,1.08,1.08,0,0,1-.6-.17,1.13,1.13,0,0,1-.39-.51,2,2,0,0,1-.14-.77,1.89,1.89,0,0,1,.14-.75,1.1,1.1,0,0,1,.39-.5,1.08,1.08,0,0,1,.6-.17,1,1,0,0,1,.66.2.94.94,0,0,1,.33.49Z" transform="translate(-13.3 -30.2)"/><polygon class="cls-4" points="197.59 319.27 197.53 319.27 197.53 316.06 196.92 316.06 196.92 321.43 197.53 321.43 197.53 319.97 197.9 319.63 199.34 321.43 200.12 321.43 198.35 319.24 200.01 317.58 199.26 317.58 197.59 319.27"/><path class="cls-4" d="M216.42,350.63a.82.82,0,0,1-.37.39,1.29,1.29,0,0,1-.62.13,1.05,1.05,0,0,1-.57-.15,1,1,0,0,1-.38-.43,1.53,1.53,0,0,1-.16-.66v0h2.77v-.23a2.38,2.38,0,0,0-.21-1,1.47,1.47,0,0,0-.57-.66,1.62,1.62,0,0,0-.89-.24,1.63,1.63,0,0,0-1.53.94,2.47,2.47,0,0,0-.21,1.06,2.43,2.43,0,0,0,.21,1.05,1.56,1.56,0,0,0,.6.69,1.66,1.66,0,0,0,.93.25,2.18,2.18,0,0,0,.75-.13,1.44,1.44,0,0,0,.55-.37,1.34,1.34,0,0,0,.32-.57Zm-1-2.37a.93.93,0,0,1,.53.14.85.85,0,0,1,.36.39,1.27,1.27,0,0,1,.14.6h-2.12a1.4,1.4,0,0,1,.17-.6,1,1,0,0,1,.92-.53Z" transform="translate(-13.3 -30.2)"/><path class="cls-4" d="M218,351.63h.61v-2.39a.86.86,0,0,1,.13-.48,1,1,0,0,1,.36-.33,1.11,1.11,0,0,1,.52-.12h.23l.16,0v-.62h-.3a1.25,1.25,0,0,0-.68.18.82.82,0,0,0-.39.46h-.06v-.57H218Z" transform="translate(-13.3 -30.2)"/><path class="cls-4" d="M220.47,348.83a.9.9,0,0,0,.25.67,1.81,1.81,0,0,0,.8.38l.66.16a1.1,1.1,0,0,1,.46.21.43.43,0,0,1,.15.33.45.45,0,0,1-.12.31.71.71,0,0,1-.31.21,1.3,1.3,0,0,1-.46.08,1.11,1.11,0,0,1-.43-.07.75.75,0,0,1-.3-.18.62.62,0,0,1-.17-.28h-.64a1,1,0,0,0,.24.55,1.26,1.26,0,0,0,.52.37,2.2,2.2,0,0,0,.76.13,1.94,1.94,0,0,0,.78-.15,1.41,1.41,0,0,0,.56-.41,1,1,0,0,0,.2-.61.87.87,0,0,0-.27-.66,1.81,1.81,0,0,0-.8-.38l-.6-.14a1.59,1.59,0,0,1-.5-.21.42.42,0,0,1-.17-.33.46.46,0,0,1,.11-.3.64.64,0,0,1,.3-.2,1.07,1.07,0,0,1,.41-.08,1.09,1.09,0,0,1,.57.14.64.64,0,0,1,.27.38h.61a1.07,1.07,0,0,0-.45-.76,1.71,1.71,0,0,0-1-.28,1.73,1.73,0,0,0-.73.15,1.22,1.22,0,0,0-.51.4A.91.91,0,0,0,220.47,348.83Z" transform="translate(-13.3 -30.2)"/></g><rect class="cls-6" y="58.63" width="40.4" height="13.47"/><rect class="cls-6" x="40.4" y="58.63" width="226.43" height="13.47"/><rect class="cls-6" x="266.83" y="58.63" width="54.36" height="13.47"/><rect class="cls-6" x="321.19" y="58.63" width="55.86" height="13.47"/><rect class="cls-24" x="321.19" y="72.09" width="55.86" height="0.5"/><rect class="cls-25" x="321.19" y="91.04" width="55.86" height="0.5"/><rect class="cls-24" x="266.83" y="72.09" width="54.36" height="0.5"/><rect class="cls-25" x="266.83" y="91.04" width="54.36" height="0.5"/><rect class="cls-24" x="40.4" y="72.09" width="226.43" height="0.5"/><rect class="cls-25" x="40.4" y="91.04" width="226.43" height="0.5"/><rect class="cls-24" y="72.09" width="40.4" height="0.5"/><rect class="cls-25" y="91.04" width="40.4" height="0.5"/><rect class="cls-25" x="321.19" y="72.09" width="55.86" height="0.5"/><rect class="cls-25" x="266.83" y="72.09" width="54.36" height="0.5"/><rect class="cls-25" x="40.4" y="72.09" width="226.43" height="0.5"/><rect class="cls-25" y="72.09" width="40.4" height="0.5"/><path class="cls-26" d="M146.27,30.76h2.83a5.3,5.3,0,0,1,2.59.59,3.91,3.91,0,0,1,1.62,1.72,6.19,6.19,0,0,1,.55,2.75,6.22,6.22,0,0,1-.55,2.75,3.83,3.83,0,0,1-1.62,1.71,5.19,5.19,0,0,1-2.59.59h-2.83Zm-.62-.56V41.44h3.48a6,6,0,0,0,2.9-.66,4.36,4.36,0,0,0,1.83-1.92,6.77,6.77,0,0,0,.63-3,6.65,6.65,0,0,0-.63-3A4.36,4.36,0,0,0,152,30.86a6,6,0,0,0-2.9-.66Z" transform="translate(-13.3 -30.2)"/><path class="cls-26" d="M159.3,41a2.85,2.85,0,0,1-1.57-.44,2.89,2.89,0,0,1-1-1.25,4.63,4.63,0,0,1-.38-1.94,4.68,4.68,0,0,1,.38-2,2.89,2.89,0,0,1,1-1.25,3.1,3.1,0,0,1,3.15,0,2.89,2.89,0,0,1,1.05,1.25,4.52,4.52,0,0,1,.38,2,4.48,4.48,0,0,1-.38,1.94,2.89,2.89,0,0,1-1.05,1.25A2.84,2.84,0,0,1,159.3,41Zm0,.55a3.47,3.47,0,0,0,1.89-.51,3.34,3.34,0,0,0,1.27-1.45,5.61,5.61,0,0,0,0-4.45,3.37,3.37,0,0,0-1.27-1.44,3.47,3.47,0,0,0-1.89-.51,3.52,3.52,0,0,0-1.89.51,3.41,3.41,0,0,0-1.26,1.44,5.73,5.73,0,0,0,0,4.45,3.38,3.38,0,0,0,1.26,1.45A3.52,3.52,0,0,0,159.3,41.57Z" transform="translate(-13.3 -30.2)"/><path class="cls-26" d="M170.91,35.78a3,3,0,0,0-.56-1.31,3.21,3.21,0,0,0-1.13-.92,3.54,3.54,0,0,0-1.56-.34,3.41,3.41,0,0,0-1.88.51,3.35,3.35,0,0,0-1.25,1.45,5.12,5.12,0,0,0-.44,2.22,5.05,5.05,0,0,0,.44,2.22,3.34,3.34,0,0,0,1.24,1.45,3.48,3.48,0,0,0,1.9.51,3.62,3.62,0,0,0,1.54-.32,3.11,3.11,0,0,0,1.13-.89,2.87,2.87,0,0,0,.56-1.3h-.6a2.36,2.36,0,0,1-.89,1.42,2.78,2.78,0,0,1-1.74.54,2.82,2.82,0,0,1-1.58-.44,2.89,2.89,0,0,1-1-1.26,5.35,5.35,0,0,1,0-3.86,2.7,2.7,0,0,1,2.61-1.7,2.69,2.69,0,0,1,1.75.57,2.5,2.5,0,0,1,.89,1.45Z" transform="translate(-13.3 -30.2)"/><path class="cls-26" d="M178.73,33.34h-.61V38.2a3.07,3.07,0,0,1-.35,1.49,2.58,2.58,0,0,1-1,1,2.77,2.77,0,0,1-1.38.35,2.28,2.28,0,0,1-2.45-2.5V33.34h-.6v5.27a3.14,3.14,0,0,0,.37,1.57,2.47,2.47,0,0,0,1,1,3.14,3.14,0,0,0,1.53.36,3.21,3.21,0,0,0,1.25-.25,3,3,0,0,0,1-.67,2.56,2.56,0,0,0,.59-1h0v1.76h.57Z" transform="translate(-13.3 -30.2)"/><path class="cls-26" d="M180.71,41.44h.61V36.6a3.62,3.62,0,0,1,.29-1.5,2.36,2.36,0,0,1,.81-1,2,2,0,0,1,1.2-.35,2,2,0,0,1,1.52.63,2.38,2.38,0,0,1,.6,1.7v5.35h.6v-5a3.1,3.1,0,0,1,.28-1.37,2.23,2.23,0,0,1,.81-.93,2.09,2.09,0,0,1,1.2-.34,2,2,0,0,1,1.56.62,2.49,2.49,0,0,1,.57,1.73v5.33h.6V36a3.18,3.18,0,0,0-.32-1.46,2.48,2.48,0,0,0-.91-1,2.62,2.62,0,0,0-1.36-.34,2.63,2.63,0,0,0-2.08,1,2.55,2.55,0,0,0-.49,1h0a2.37,2.37,0,0,0-.45-1,2.42,2.42,0,0,0-.83-.69,2.53,2.53,0,0,0-1.15-.26,2.36,2.36,0,0,0-1.59.54,2.76,2.76,0,0,0-.86,1.35h0V33.34h-.57Z" transform="translate(-13.3 -30.2)"/><path class="cls-26" d="M199.2,39.17a2.22,2.22,0,0,1-.88,1.32,2.89,2.89,0,0,1-1.81.54,3,3,0,0,1-1.59-.42,2.8,2.8,0,0,1-1-1.2,4.4,4.4,0,0,1-.37-1.89v0h6.41v-.34a4.64,4.64,0,0,0-.43-2.07,3.3,3.3,0,0,0-1.21-1.37,3.34,3.34,0,0,0-1.83-.5,3.38,3.38,0,0,0-1.87.52,3.48,3.48,0,0,0-1.24,1.46,5.7,5.7,0,0,0,0,4.44,3.23,3.23,0,0,0,1.26,1.44,3.6,3.6,0,0,0,1.91.5,3.87,3.87,0,0,0,1.6-.32,3.05,3.05,0,0,0,1.14-.85,2.78,2.78,0,0,0,.57-1.23Zm-2.77-5.42a2.76,2.76,0,0,1,1.5.41,2.72,2.72,0,0,1,1,1.14,3.71,3.71,0,0,1,.36,1.68h-5.78a4.1,4.1,0,0,1,.42-1.7,2.87,2.87,0,0,1,1-1.13A2.71,2.71,0,0,1,196.43,33.75Z" transform="translate(-13.3 -30.2)"/><path class="cls-26" d="M201.48,41.44h.61V36.6a3.24,3.24,0,0,1,.33-1.49,2.45,2.45,0,0,1,.92-1,2.64,2.64,0,0,1,1.39-.36,2.32,2.32,0,0,1,2.49,2.51v5.17h.61V36.19a2.77,2.77,0,0,0-3-3,3,3,0,0,0-1.78.53,2.66,2.66,0,0,0-1,1.36h0V33.34h-.57Z" transform="translate(-13.3 -30.2)"/><path class="cls-26" d="M210.21,31.21v2.13H209v.52h1.2v5.73a2.08,2.08,0,0,0,.41,1.44,1.69,1.69,0,0,0,1.28.43h.65v-.53H212a1.19,1.19,0,0,1-.9-.31,1.57,1.57,0,0,1-.28-1V33.86h1.63v-.52h-1.63V31.21Z" transform="translate(-13.3 -30.2)"/><polygon class="cls-26" points="210.87 10.68 204.97 10.68 204.97 0 204.35 0 204.35 11.24 210.87 11.24 210.87 10.68"/><path class="cls-26" d="M226.1,31.34a.42.42,0,0,0,.33-.14.45.45,0,0,0,.14-.33.46.46,0,0,0-.14-.34.45.45,0,0,0-.33-.14.48.48,0,0,0-.34.14.46.46,0,0,0-.14.34.45.45,0,0,0,.14.33A.44.44,0,0,0,226.1,31.34Zm-.31,10.1h.61v-8.1h-.61Z" transform="translate(-13.3 -30.2)"/><path class="cls-26" d="M228.26,35.41a1.67,1.67,0,0,0,.55,1.29,3.8,3.8,0,0,0,1.7.76l1.13.26a3.17,3.17,0,0,1,1.4.6,1.3,1.3,0,0,1,.42,1,1.41,1.41,0,0,1-.3.89,2.1,2.1,0,0,1-.83.6,3.28,3.28,0,0,1-1.22.21,3.12,3.12,0,0,1-1.22-.23,2.27,2.27,0,0,1-.88-.67,2.07,2.07,0,0,1-.41-1H228a2.39,2.39,0,0,0,.47,1.27,2.76,2.76,0,0,0,1.1.85,3.62,3.62,0,0,0,1.54.32,3.92,3.92,0,0,0,1.54-.29,2.57,2.57,0,0,0,1-.8,1.93,1.93,0,0,0,.38-1.17,1.73,1.73,0,0,0-.52-1.34,3.83,3.83,0,0,0-1.73-.78l-1.13-.26a3.42,3.42,0,0,1-1.4-.59,1.2,1.2,0,0,1-.44-1,1.43,1.43,0,0,1,.28-.86,1.91,1.91,0,0,1,.77-.59,2.83,2.83,0,0,1,1.12-.21,2.45,2.45,0,0,1,1.59.52,2.17,2.17,0,0,1,.74,1.43h.59a2.65,2.65,0,0,0-.89-1.8,3,3,0,0,0-2-.67,3.61,3.61,0,0,0-1.43.28,2.37,2.37,0,0,0-1,.78A1.89,1.89,0,0,0,228.26,35.41Z" transform="translate(-13.3 -30.2)"/><path class="cls-26" d="M236.05,31.21v2.13h-1.21v.52h1.21v5.73a2.08,2.08,0,0,0,.4,1.44,1.73,1.73,0,0,0,1.29.43h.64v-.53h-.56a1.15,1.15,0,0,1-.89-.31,1.51,1.51,0,0,1-.28-1V33.86h1.63v-.52h-1.63V31.21Z" transform="translate(-13.3 -30.2)"/><path class="cls-26" d="M240.33,31.34a.42.42,0,0,0,.33-.14.45.45,0,0,0,.14-.33.46.46,0,0,0-.14-.34.45.45,0,0,0-.33-.14.48.48,0,0,0-.34.14.46.46,0,0,0-.14.34.45.45,0,0,0,.14.33A.44.44,0,0,0,240.33,31.34ZM240,41.44h.61v-8.1H240Z" transform="translate(-13.3 -30.2)"/><path class="cls-26" d="M242.68,41.44h.61V36.6a3.24,3.24,0,0,1,.33-1.49,2.4,2.4,0,0,1,.93-1,2.58,2.58,0,0,1,1.38-.36,2.32,2.32,0,0,1,2.49,2.51v5.17H249V36.19a2.77,2.77,0,0,0-3-3,3,3,0,0,0-1.78.53,2.66,2.66,0,0,0-1,1.36h0V33.34h-.57Z" transform="translate(-13.3 -30.2)"/><path class="cls-26" d="M254.22,44.36A4,4,0,0,0,256,44a2.8,2.8,0,0,0,1.17-1.06,3,3,0,0,0,.41-1.58v-8H257v2.17h0a3.28,3.28,0,0,0-.63-1.18,3.32,3.32,0,0,0-1-.82,3.08,3.08,0,0,0-1.36-.3,3.22,3.22,0,0,0-1.8.52,3.55,3.55,0,0,0-1.2,1.46,5.77,5.77,0,0,0,0,4.37,3.4,3.4,0,0,0,1.2,1.46,3.09,3.09,0,0,0,1.79.52,3,3,0,0,0,1.36-.3,3.09,3.09,0,0,0,1.64-2h0v2.08a2.34,2.34,0,0,1-.74,1.79,2.89,2.89,0,0,1-2,.67,3.09,3.09,0,0,1-1.73-.44,2.08,2.08,0,0,1-.88-1.09H251a2.16,2.16,0,0,0,.53,1,3.11,3.11,0,0,0,1.11.75A4.25,4.25,0,0,0,254.22,44.36ZM254.06,41a2.57,2.57,0,0,1-1.51-.46,3,3,0,0,1-1-1.27,4.57,4.57,0,0,1-.36-1.88,4.72,4.72,0,0,1,.36-1.91,3.08,3.08,0,0,1,1-1.27,2.57,2.57,0,0,1,1.51-.45,2.63,2.63,0,0,1,1.53.46,3.06,3.06,0,0,1,1,1.27,4.46,4.46,0,0,1,.37,1.89,4.52,4.52,0,0,1-.37,1.89,3.06,3.06,0,0,1-1,1.27A2.7,2.7,0,0,1,254.06,41Z" transform="translate(-13.3 -30.2)"/><polygon class="cls-27" points="6.62 50.65 6.62 44.09 6.21 44.09 3.57 50.18 3.54 50.18 0.89 44.09 0.49 44.09 0.49 50.65 0.83 50.65 0.83 44.85 0.86 44.85 3.38 50.65 3.73 50.65 6.24 44.85 6.27 44.85 6.27 50.65 6.62 50.65"/><path class="cls-27" d="M21.6,82.51a1.26,1.26,0,0,0,.59-.12,1.19,1.19,0,0,0,.44-.45,7.37,7.37,0,0,0,.43-.94L25,76h-.38l-1.66,4.53h0L21.22,76h-.38l1.87,5-.06.16-.06.16a2.32,2.32,0,0,1-.42.76.77.77,0,0,1-.55.21h-.19v.31h.17Z" transform="translate(-13.3 -30.2)"/><path class="cls-27" d="M28.31,80.84h.35V76.26h1.19V76H28.66v-.73a1,1,0,0,1,.22-.71.84.84,0,0,1,.65-.24h.2l.17,0V74a.76.76,0,0,0-.21,0h-.22a1.1,1.1,0,0,0-.86.32,1.33,1.33,0,0,0-.3.94V76h-.82v.31h.82Z" transform="translate(-13.3 -30.2)"/><path class="cls-27" d="M31.08,74.84a.29.29,0,0,0,.22-.09.29.29,0,0,0,.09-.21.31.31,0,0,0-.31-.31.29.29,0,0,0-.21.09.29.29,0,0,0-.09.22.31.31,0,0,0,.3.3Zm-.18,6h.35V76H30.9Z" transform="translate(-13.3 -30.2)"/><path class="cls-27" d="M32.68,80.84H33V77.76a1.73,1.73,0,0,1,.18-.79,1.38,1.38,0,0,1,.49-.55,1.2,1.2,0,0,1,.69-.21l.31,0a1.81,1.81,0,0,1,.27.06v-.35l-.26,0-.28,0a1.45,1.45,0,0,0-.87.27,1.27,1.27,0,0,0-.51.72h0V76h-.34Z" transform="translate(-13.3 -30.2)"/><path class="cls-27" d="M35.59,77.19a1,1,0,0,0,.33.78,2.44,2.44,0,0,0,1,.44l.6.14a2.23,2.23,0,0,1,.91.38.78.78,0,0,1,.29.64.8.8,0,0,1-.19.53,1.26,1.26,0,0,1-.52.37,1.8,1.8,0,0,1-.71.14,2,2,0,0,1-.73-.12,1.41,1.41,0,0,1-.53-.33,1.23,1.23,0,0,1-.27-.52h-.36a1.32,1.32,0,0,0,.3.68,1.63,1.63,0,0,0,.66.44,2.36,2.36,0,0,0,.92.16,2.24,2.24,0,0,0,.91-.18,1.66,1.66,0,0,0,.64-.48,1.15,1.15,0,0,0,.24-.71,1,1,0,0,0-.36-.84,2.63,2.63,0,0,0-1.1-.47l-.56-.13a2.36,2.36,0,0,1-.85-.35.67.67,0,0,1-.28-.58.79.79,0,0,1,.18-.51,1.39,1.39,0,0,1,.49-.36,1.8,1.8,0,0,1,.66-.13,1.69,1.69,0,0,1,.93.25,1,1,0,0,1,.46.65H39a1.3,1.3,0,0,0-.56-.88,2,2,0,0,0-1.18-.33,2,2,0,0,0-.84.18,1.52,1.52,0,0,0-.61.47A1.09,1.09,0,0,0,35.59,77.19Z" transform="translate(-13.3 -30.2)"/><path class="cls-27" d="M40.47,74.67V76h-.81v.31h.81V79.7a1.19,1.19,0,0,0,.27.88,1.21,1.21,0,0,0,.89.27H42v-.31h-.35a.86.86,0,0,1-.65-.21,1,1,0,0,1-.19-.69V76.26H42V76H40.82V74.67Z" transform="translate(-13.3 -30.2)"/><path class="cls-27" d="M47.15,76.19a1.62,1.62,0,0,1,.93.28,1.88,1.88,0,0,1,.63.78,3,3,0,0,1,0,2.29,1.82,1.82,0,0,1-.63.78,1.62,1.62,0,0,1-.93.28,1.65,1.65,0,0,1-.93-.28,1.85,1.85,0,0,1-.63-.77,2.78,2.78,0,0,1-.23-1.15,2.74,2.74,0,0,1,.23-1.15,1.88,1.88,0,0,1,.63-.78A1.65,1.65,0,0,1,47.15,76.19Zm0,4.73a2,2,0,0,0,.78-.16,1.92,1.92,0,0,0,1-1.15h0v1.23h.33V74h-.35v3.15h0a1.86,1.86,0,0,0-.4-.68,1.9,1.9,0,0,0-.62-.44,2,2,0,0,0-.78-.16,1.92,1.92,0,0,0-1.09.32,2.1,2.1,0,0,0-.74.89,3.46,3.46,0,0,0,0,2.63,2.17,2.17,0,0,0,.74.89A1.92,1.92,0,0,0,47.1,80.92Z" transform="translate(-13.3 -30.2)"/><path class="cls-27" d="M52.64,80.6a1.69,1.69,0,0,1-1-.27,1.74,1.74,0,0,1-.64-.77,3.19,3.19,0,0,1,0-2.33,1.74,1.74,0,0,1,.64-.77,1.86,1.86,0,0,1,1.93,0,1.79,1.79,0,0,1,.63.77,3.07,3.07,0,0,1,0,2.33,1.79,1.79,0,0,1-.63.77A1.7,1.7,0,0,1,52.64,80.6Zm0,.32a2.07,2.07,0,0,0,1.16-.31,2,2,0,0,0,.76-.88,3,3,0,0,0,.27-1.33,3.13,3.13,0,0,0-.27-1.35,2.08,2.08,0,0,0-.76-.87,2.31,2.31,0,0,0-2.31,0,2.08,2.08,0,0,0-.76.87,3.13,3.13,0,0,0-.27,1.35,3,3,0,0,0,.27,1.33,2,2,0,0,0,1.91,1.19Z" transform="translate(-13.3 -30.2)"/><path class="cls-27" d="M59.81,77.32a1.71,1.71,0,0,0-.34-.75,1.85,1.85,0,0,0-.68-.51,2.26,2.26,0,0,0-.92-.19,2.17,2.17,0,0,0-1.15.31,2,2,0,0,0-.74.87,3.07,3.07,0,0,0-.27,1.33A3.13,3.13,0,0,0,56,79.73a2,2,0,0,0,.75.88,2.11,2.11,0,0,0,1.14.31,2.45,2.45,0,0,0,.93-.17,1.85,1.85,0,0,0,.67-.49,1.68,1.68,0,0,0,.34-.74h-.36a1.3,1.3,0,0,1-.55.79,1.81,1.81,0,0,1-1,.29,1.61,1.61,0,0,1-.95-.28,1.79,1.79,0,0,1-.63-.77,2.81,2.81,0,0,1-.22-1.17,2.76,2.76,0,0,1,.22-1.16,1.82,1.82,0,0,1,.63-.76,1.66,1.66,0,0,1,.95-.27,1.75,1.75,0,0,1,1,.31,1.42,1.42,0,0,1,.56.82Z" transform="translate(-13.3 -30.2)"/><path class="cls-27" d="M64.71,76h-.35v2.92a2,2,0,0,1-.2.9,1.55,1.55,0,0,1-.58.61,1.72,1.72,0,0,1-.86.22,1.44,1.44,0,0,1-1.09-.42,1.58,1.58,0,0,1-.39-1.13V76h-.35v3.2a1.83,1.83,0,0,0,.22.93,1.52,1.52,0,0,0,.61.62,1.83,1.83,0,0,0,.93.22,2,2,0,0,0,.75-.14A1.47,1.47,0,0,0,64,80.4a1.54,1.54,0,0,0,.36-.59h0v1h.33Z" transform="translate(-13.3 -30.2)"/><path class="cls-27" d="M66.1,80.84h.35v-3a1.87,1.87,0,0,1,.19-.86,1.49,1.49,0,0,1,.51-.6,1.21,1.21,0,0,1,.72-.23,1.13,1.13,0,0,1,.91.4,1.52,1.52,0,0,1,.35,1v3.21h.35v-3a1.86,1.86,0,0,1,.18-.84,1.36,1.36,0,0,1,1.25-.77,1.18,1.18,0,0,1,.93.38,1.54,1.54,0,0,1,.33,1.05v3.22h.35v-3.3a2.06,2.06,0,0,0-.19-.9,1.27,1.27,0,0,0-.53-.57,1.61,1.61,0,0,0-.82-.2,1.69,1.69,0,0,0-.68.14,1.6,1.6,0,0,0-.54.38,1.85,1.85,0,0,0-.35.59h0a1.55,1.55,0,0,0-.29-.59,1.24,1.24,0,0,0-.5-.38,1.57,1.57,0,0,0-1.57.16,1.61,1.61,0,0,0-.55.81h0V76H66.1Z" transform="translate(-13.3 -30.2)"/><path class="cls-27" d="M77.39,79.71a1.28,1.28,0,0,1-.59.65,2,2,0,0,1-1,.24,1.79,1.79,0,0,1-1-.26,1.76,1.76,0,0,1-.63-.74A2.65,2.65,0,0,1,74,78.47h3.89v-.21A2.86,2.86,0,0,0,77.6,77a2,2,0,0,0-.72-.83,2,2,0,0,0-1.1-.29,2.09,2.09,0,0,0-1.15.32,2.07,2.07,0,0,0-.75.87,3.11,3.11,0,0,0-.26,1.34,3.07,3.07,0,0,0,.26,1.33,2,2,0,0,0,.76.88,2.08,2.08,0,0,0,1.15.31,2.56,2.56,0,0,0,.89-.15,2,2,0,0,0,.68-.42,1.58,1.58,0,0,0,.4-.64Zm-1.62-3.52a1.61,1.61,0,0,1,.91.25,1.59,1.59,0,0,1,.6.68,2.38,2.38,0,0,1,.21,1H74a2.38,2.38,0,0,1,.26-1,1.7,1.7,0,0,1,.62-.68A1.64,1.64,0,0,1,75.77,76.19Z" transform="translate(-13.3 -30.2)"/><path class="cls-27" d="M79,80.84h.35V77.92a1.73,1.73,0,0,1,.22-.89,1.47,1.47,0,0,1,.6-.61,1.65,1.65,0,0,1,.86-.23,1.39,1.39,0,0,1,1.07.4,1.62,1.62,0,0,1,.37,1.15v3.1h.35v-3.2a1.82,1.82,0,0,0-.45-1.3,1.71,1.71,0,0,0-1.27-.47,1.84,1.84,0,0,0-1.06.3,1.73,1.73,0,0,0-.67.81h0V76H79Z" transform="translate(-13.3 -30.2)"/><path class="cls-27" d="M84.45,74.67V76h-.81v.31h.81V79.7a1.19,1.19,0,0,0,.27.88,1.23,1.23,0,0,0,.89.27H86v-.31h-.35a.86.86,0,0,1-.65-.21,1,1,0,0,1-.19-.69V76.26H86V76H84.8V74.67Z" transform="translate(-13.3 -30.2)"/><path class="cls-28" d="M16.71,98.3h1V96a1,1,0,0,1,.1-.46.66.66,0,0,1,.27-.3.82.82,0,0,1,1,.1,1,1,0,0,1,.18.63V98.3h1V95.76a1.59,1.59,0,0,0-.34-1.1,1.29,1.29,0,0,0-1-.38,1.36,1.36,0,0,0-.73.19,1.12,1.12,0,0,0-.43.53h-.07v-.63h-1Z" transform="translate(-13.3 -30.2)"/><path class="cls-28" d="M24.76,94.37h-1v2.27a1.08,1.08,0,0,1-.09.46.66.66,0,0,1-.27.3.83.83,0,0,1-.43.11.69.69,0,0,1-.55-.21,1,1,0,0,1-.18-.63v-2.3h-1v2.56a1.73,1.73,0,0,0,.17.78,1.22,1.22,0,0,0,.48.5,1.51,1.51,0,0,0,.73.17,1.62,1.62,0,0,0,.52-.08,1.13,1.13,0,0,0,.63-.63h.06v.63h1Z" transform="translate(-13.3 -30.2)"/><path class="cls-28" d="M25.7,98.3h1V95.93a.84.84,0,0,1,.09-.4.73.73,0,0,1,.24-.28.63.63,0,0,1,1,.56V98.3h1V95.88a.79.79,0,0,1,.09-.38.75.75,0,0,1,.24-.26.72.72,0,0,1,.37-.09.63.63,0,0,1,.49.18.73.73,0,0,1,.16.53V98.3h1V95.6a1.51,1.51,0,0,0-.15-.7,1.15,1.15,0,0,0-.44-.46,1.34,1.34,0,0,0-.68-.16,1.44,1.44,0,0,0-.51.09,1.15,1.15,0,0,0-.41.26A.94.94,0,0,0,29,95H29a1.09,1.09,0,0,0-.23-.39,1,1,0,0,0-.37-.25,1.22,1.22,0,0,0-.49-.09,1.19,1.19,0,0,0-.68.2,1,1,0,0,0-.41.53h-.06v-.64h-1Z" transform="translate(-13.3 -30.2)"/><path class="cls-28" d="M37.88,97.31H35.34v0h0l1.24-2.65h0l1.24,2.65h0Zm.94.3a.41.41,0,0,0,0-.19,1.65,1.65,0,0,0-.09-.21L37.11,94a.73.73,0,0,0-.22-.3.44.44,0,0,0-.56,0,.73.73,0,0,0-.22.3l-1.58,3.24a1.65,1.65,0,0,0-.09.21.41.41,0,0,0,0,.19.45.45,0,0,0,.14.33.53.53,0,0,0,.39.14h3.36a.53.53,0,0,0,.39-.13A.49.49,0,0,0,38.82,97.61Z" transform="translate(-13.3 -30.2)"/><path class="cls-28" d="M57,95.51a1,1,0,0,0,.28.73,1.77,1.77,0,0,0,.86.4l.71.16a.85.85,0,0,1,.38.16.29.29,0,0,1,.12.24.32.32,0,0,1-.09.23.48.48,0,0,1-.24.16,1,1,0,0,1-.35,0,1,1,0,0,1-.36,0,.48.48,0,0,1-.25-.15.49.49,0,0,1-.14-.23h-1a1.1,1.1,0,0,0,.25.64,1.43,1.43,0,0,0,.59.4,2.65,2.65,0,0,0,.89.13,2.31,2.31,0,0,0,.91-.16,1.41,1.41,0,0,0,.61-.45,1.07,1.07,0,0,0,.22-.68.9.9,0,0,0-.27-.69,1.73,1.73,0,0,0-.84-.38l-.74-.16a1,1,0,0,1-.4-.16.33.33,0,0,1-.13-.25.31.31,0,0,1,.09-.22.5.5,0,0,1,.23-.16,1,1,0,0,1,.33,0,.87.87,0,0,1,.46.11.49.49,0,0,1,.22.31h1a1.12,1.12,0,0,0-.47-.86,2,2,0,0,0-1.18-.3,2.31,2.31,0,0,0-.86.15,1.35,1.35,0,0,0-.57.44A1,1,0,0,0,57,95.51Z" transform="translate(-13.3 -30.2)"/><path class="cls-28" d="M62.9,97.56a.76.76,0,0,1-.48-.15.78.78,0,0,1-.29-.42,2,2,0,0,1,0-1.32,1,1,0,0,1,.3-.42.73.73,0,0,1,.47-.14.7.7,0,0,1,.46.14,1,1,0,0,1,.3.42,2,2,0,0,1,0,1.32.83.83,0,0,1-.29.42A.75.75,0,0,1,62.9,97.56Zm0,.82a2.13,2.13,0,0,0,1-.24,1.62,1.62,0,0,0,.66-.71,2.32,2.32,0,0,0,.23-1.1,2.35,2.35,0,0,0-.23-1.1,1.68,1.68,0,0,0-.67-.7,2,2,0,0,0-1-.25,2,2,0,0,0-1,.25,1.65,1.65,0,0,0-.67.71A2.44,2.44,0,0,0,61,96.33a2.35,2.35,0,0,0,.23,1.1,1.64,1.64,0,0,0,.67.71A2.1,2.1,0,0,0,62.9,98.38Z" transform="translate(-13.3 -30.2)"/><path class="cls-28" d="M69.14,94.37h-1v2.27a1.08,1.08,0,0,1-.09.46.66.66,0,0,1-.27.3.84.84,0,0,1-.44.11.67.67,0,0,1-.54-.21,1,1,0,0,1-.18-.63v-2.3h-1v2.56a1.73,1.73,0,0,0,.17.78,1.22,1.22,0,0,0,.48.5,1.51,1.51,0,0,0,.73.17,1.62,1.62,0,0,0,.52-.08,1,1,0,0,0,.38-.25,1.14,1.14,0,0,0,.25-.38h.06v.63h1Z" transform="translate(-13.3 -30.2)"/><path class="cls-28" d="M70.08,98.3h1V96.1a.9.9,0,0,1,.12-.48.85.85,0,0,1,.34-.31,1.1,1.1,0,0,1,.49-.1h.28l.22,0v-.91l-.19,0h-.22a1.09,1.09,0,0,0-.65.2.83.83,0,0,0-.36.49h-.06v-.62h-1Z" transform="translate(-13.3 -30.2)"/><path class="cls-28" d="M76.55,95.74a1.6,1.6,0,0,0-.26-.77,1.4,1.4,0,0,0-.59-.51,2.09,2.09,0,0,0-.9-.18,2.14,2.14,0,0,0-1,.24,1.58,1.58,0,0,0-.65.7,2.45,2.45,0,0,0-.23,1.1,2.54,2.54,0,0,0,.23,1.12,1.63,1.63,0,0,0,.65.7,2.14,2.14,0,0,0,1,.24,2,2,0,0,0,.89-.18,1.4,1.4,0,0,0,.6-.5,1.64,1.64,0,0,0,.26-.75h-1a.73.73,0,0,1-.26.45.84.84,0,0,1-.52.15.76.76,0,0,1-.48-.14A.78.78,0,0,1,74,97a1.84,1.84,0,0,1-.11-.67,1.82,1.82,0,0,1,.11-.66.79.79,0,0,1,.29-.41.83.83,0,0,1,.48-.14.8.8,0,0,1,.53.17.83.83,0,0,1,.25.46Z" transform="translate(-13.3 -30.2)"/><path class="cls-28" d="M79.8,97.19a.62.62,0,0,1-.29.31,1.1,1.1,0,0,1-.51.1.88.88,0,0,1-.47-.11.79.79,0,0,1-.31-.34,1.21,1.21,0,0,1-.12-.52v0h2.7v-.31a2.35,2.35,0,0,0-.22-1.07,1.48,1.48,0,0,0-.63-.68,2.16,2.16,0,0,0-2,0,1.68,1.68,0,0,0-.65.72,2.38,2.38,0,0,0-.23,1.1,2.41,2.41,0,0,0,.22,1.09,1.55,1.55,0,0,0,.66.7,2,2,0,0,0,1,.24,2.54,2.54,0,0,0,.86-.14,1.62,1.62,0,0,0,.62-.42,1.35,1.35,0,0,0,.32-.63ZM79,95.06a.82.82,0,0,1,.42.1.76.76,0,0,1,.29.3,1.12,1.12,0,0,1,.11.47H78.1a1.24,1.24,0,0,1,.13-.46,1,1,0,0,1,.3-.31A.88.88,0,0,1,79,95.06Z" transform="translate(-13.3 -30.2)"/><path class="cls-28" d="M294.86,93.43v1h-.61v.79h.61v2a1,1,0,0,0,.31.82,1.64,1.64,0,0,0,1,.25h.19l.18,0,.15,0V97.5h-.31a.46.46,0,0,1-.51-.52V95.19h.82V94.4h-.82v-1Z" transform="translate(-13.3 -30.2)"/><path class="cls-28" d="M298.56,98.36a1.51,1.51,0,0,0,.48-.07,1.31,1.31,0,0,0,.39-.2,1.14,1.14,0,0,0,.27-.31h.07v.52h1V95.61a1.2,1.2,0,0,0-.74-1.17,2.18,2.18,0,0,0-.89-.16,2.16,2.16,0,0,0-1.21.32,1.09,1.09,0,0,0-.51.86h.95a.55.55,0,0,1,.25-.29,1,1,0,0,1,.46-.09.75.75,0,0,1,.5.14.48.48,0,0,1,.17.39v.33l-1,0a2,2,0,0,0-1.12.35,1,1,0,0,0-.4.84,1.11,1.11,0,0,0,.62,1A1.6,1.6,0,0,0,298.56,98.36Zm.34-.76a.74.74,0,0,1-.44-.13.42.42,0,0,1-.17-.36.4.4,0,0,1,.16-.34.93.93,0,0,1,.5-.14l.8-.06v.3a.7.7,0,0,1-.11.37.79.79,0,0,1-.31.26A.85.85,0,0,1,298.9,97.6Z" transform="translate(-13.3 -30.2)"/><path class="cls-28" d="M301.69,98.3h1V96.1a.9.9,0,0,1,.12-.48.85.85,0,0,1,.34-.31,1.1,1.1,0,0,1,.49-.1H304l.21,0v-.91l-.19,0h-.22a1.09,1.09,0,0,0-.65.2.83.83,0,0,0-.36.49h-.06v-.62h-1Z" transform="translate(-13.3 -30.2)"/><path class="cls-28" d="M306.41,99.79a2.67,2.67,0,0,0,1-.18,1.59,1.59,0,0,0,.68-.53,1.31,1.31,0,0,0,.23-.79V94.37h-1V95h-.07a1.09,1.09,0,0,0-.28-.36,1.14,1.14,0,0,0-.41-.24,1.39,1.39,0,0,0-.5-.09,1.43,1.43,0,0,0-.86.25,1.55,1.55,0,0,0-.56.69,2.64,2.64,0,0,0-.2,1.06,2.47,2.47,0,0,0,.2,1,1.55,1.55,0,0,0,.55.68,1.49,1.49,0,0,0,.85.24,1.59,1.59,0,0,0,.5-.07A1.11,1.11,0,0,0,307,98a1,1,0,0,0,.28-.35h.07v.73a.63.63,0,0,1-.24.53,1,1,0,0,1-.65.19,1.08,1.08,0,0,1-.54-.11.42.42,0,0,1-.25-.29h-1a1,1,0,0,0,.26.6,1.55,1.55,0,0,0,.62.4A2.87,2.87,0,0,0,306.41,99.79Zm0-2.35a.76.76,0,0,1-.48-.14.83.83,0,0,1-.3-.4,1.58,1.58,0,0,1-.11-.61,1.66,1.66,0,0,1,.11-.61.85.85,0,0,1,.3-.39.76.76,0,0,1,.48-.15.78.78,0,0,1,.48.15,1,1,0,0,1,.31.39,1.66,1.66,0,0,1,.11.61,1.58,1.58,0,0,1-.11.61.92.92,0,0,1-.31.4A.78.78,0,0,1,306.43,97.44Z" transform="translate(-13.3 -30.2)"/><path class="cls-28" d="M311.84,97.19a.67.67,0,0,1-.29.31,1.13,1.13,0,0,1-.51.1.92.92,0,0,1-.48-.11.85.85,0,0,1-.31-.34,1.21,1.21,0,0,1-.11-.52v0h2.7v-.31a2.35,2.35,0,0,0-.22-1.07,1.6,1.6,0,0,0-.63-.68,2,2,0,0,0-1-.24,1.94,1.94,0,0,0-1,.25,1.68,1.68,0,0,0-.65.72,2.51,2.51,0,0,0-.23,1.1,2.41,2.41,0,0,0,.23,1.09,1.58,1.58,0,0,0,.65.7,2.09,2.09,0,0,0,1,.24,2.58,2.58,0,0,0,.86-.14,1.7,1.7,0,0,0,.62-.42,1.35,1.35,0,0,0,.32-.63ZM311,95.06a.82.82,0,0,1,.42.1.74.74,0,0,1,.28.3,1.12,1.12,0,0,1,.12.47h-1.68a1.08,1.08,0,0,1,.13-.46.81.81,0,0,1,.3-.31A.83.83,0,0,1,311,95.06Z" transform="translate(-13.3 -30.2)"/><path class="cls-28" d="M313.88,93.43v1h-.61v.79h.61v2a1,1,0,0,0,.31.82,1.64,1.64,0,0,0,1,.25h.19l.18,0,.15,0V97.5h-.31a.55.55,0,0,1-.39-.13.57.57,0,0,1-.12-.39V95.19h.82V94.4h-.82v-1Z" transform="translate(-13.3 -30.2)"/><path class="cls-28" d="M316.37,95.51a1,1,0,0,0,.29.73,1.69,1.69,0,0,0,.85.4l.71.16a.85.85,0,0,1,.38.16.29.29,0,0,1,.12.24.32.32,0,0,1-.09.23.48.48,0,0,1-.24.16,1,1,0,0,1-.35,0,1,1,0,0,1-.36,0,.48.48,0,0,1-.25-.15.49.49,0,0,1-.14-.23h-1a1.1,1.1,0,0,0,.25.64,1.43,1.43,0,0,0,.59.4,2.67,2.67,0,0,0,.9.13,2.29,2.29,0,0,0,.9-.16,1.41,1.41,0,0,0,.61-.45,1.07,1.07,0,0,0,.22-.68.9.9,0,0,0-.27-.69,1.73,1.73,0,0,0-.84-.38l-.74-.16a1,1,0,0,1-.4-.16.33.33,0,0,1-.13-.25.31.31,0,0,1,.09-.22.5.5,0,0,1,.23-.16,1.09,1.09,0,0,1,.33,0,.87.87,0,0,1,.46.11.49.49,0,0,1,.22.31h1a1.12,1.12,0,0,0-.47-.86,2,2,0,0,0-1.18-.3,2.31,2.31,0,0,0-.86.15,1.41,1.41,0,0,0-.57.44A1,1,0,0,0,316.37,95.51Z" transform="translate(-13.3 -30.2)"/><rect class="cls-28" x="331.34" y="62.67" width="1.04" height="5.43"/><path class="cls-28" d="M347.74,98.36a1.51,1.51,0,0,0,.48-.07,1.2,1.2,0,0,0,.39-.2.88.88,0,0,0,.27-.31H349v.52h1V95.61a1.26,1.26,0,0,0-.19-.71,1.2,1.2,0,0,0-.55-.46,2.18,2.18,0,0,0-.89-.16,2.1,2.1,0,0,0-1.2.32,1.08,1.08,0,0,0-.52.86h.95a.55.55,0,0,1,.25-.29,1,1,0,0,1,.46-.09.75.75,0,0,1,.5.14.48.48,0,0,1,.17.39v.33L348,96a2,2,0,0,0-1.13.35,1,1,0,0,0-.4.84,1.18,1.18,0,0,0,.17.62,1.08,1.08,0,0,0,.45.42A1.6,1.6,0,0,0,347.74,98.36Zm.34-.76a.74.74,0,0,1-.44-.13.45.45,0,0,1-.17-.36.4.4,0,0,1,.16-.34.93.93,0,0,1,.5-.14l.8-.06v.3a.7.7,0,0,1-.11.37.83.83,0,0,1-.3.26A.92.92,0,0,1,348.08,97.6Z" transform="translate(-13.3 -30.2)"/><path class="cls-28" d="M350.78,95.51a1,1,0,0,0,.28.73,1.77,1.77,0,0,0,.86.4l.71.16A.9.9,0,0,1,353,97a.29.29,0,0,1,.12.24.32.32,0,0,1-.09.23.6.6,0,0,1-.24.16,1,1,0,0,1-.35,0,1.07,1.07,0,0,1-.37,0,.54.54,0,0,1-.38-.38h-1a1.1,1.1,0,0,0,.25.64,1.37,1.37,0,0,0,.59.4,2.65,2.65,0,0,0,.89.13,2.31,2.31,0,0,0,.91-.16,1.41,1.41,0,0,0,.61-.45,1.07,1.07,0,0,0,.22-.68.9.9,0,0,0-.27-.69,1.73,1.73,0,0,0-.84-.38l-.74-.16a1,1,0,0,1-.4-.16.3.3,0,0,1-.13-.25.31.31,0,0,1,.09-.22.5.5,0,0,1,.23-.16,1,1,0,0,1,.33,0,.89.89,0,0,1,.46.11.49.49,0,0,1,.22.31h1a1.12,1.12,0,0,0-.47-.86,2,2,0,0,0-1.18-.3,2.28,2.28,0,0,0-.86.15,1.35,1.35,0,0,0-.57.44A1,1,0,0,0,350.78,95.51Z" transform="translate(-13.3 -30.2)"/><path class="cls-28" d="M355.19,93.43v1h-.62v.79h.62v2a1,1,0,0,0,.31.82,1.61,1.61,0,0,0,1,.25h.2l.18,0,.14,0V97.5h-.3a.54.54,0,0,1-.39-.13.57.57,0,0,1-.12-.39V95.19H357V94.4h-.81v-1Z" transform="translate(-13.3 -30.2)"/><path class="cls-28" d="M359.5,95.51a1,1,0,0,0,.28.73,1.73,1.73,0,0,0,.85.4l.72.16a.8.8,0,0,1,.37.16.29.29,0,0,1,.12.24.36.36,0,0,1-.08.23.6.6,0,0,1-.24.16,1,1,0,0,1-.36,0,1,1,0,0,1-.36,0,.53.53,0,0,1-.25-.15.49.49,0,0,1-.14-.23h-1a1.17,1.17,0,0,0,.25.64,1.43,1.43,0,0,0,.59.4,2.67,2.67,0,0,0,.9.13,2.35,2.35,0,0,0,.91-.16,1.38,1.38,0,0,0,.6-.45,1.07,1.07,0,0,0,.22-.68.94.94,0,0,0-.26-.69,1.73,1.73,0,0,0-.84-.38l-.74-.16a1,1,0,0,1-.4-.16.32.32,0,0,1-.05-.47.56.56,0,0,1,.23-.16,1.14,1.14,0,0,1,.33,0,.93.93,0,0,1,.47.11.51.51,0,0,1,.21.31h1a1.09,1.09,0,0,0-.47-.86,2,2,0,0,0-1.18-.3,2.22,2.22,0,0,0-.85.15,1.38,1.38,0,0,0-.58.44A1,1,0,0,0,359.5,95.51Z" transform="translate(-13.3 -30.2)"/><path class="cls-28" d="M364.7,98.36a1.51,1.51,0,0,0,.48-.07,1.2,1.2,0,0,0,.39-.2.88.88,0,0,0,.27-.31h.07v.52h1V95.61a1.26,1.26,0,0,0-.19-.71,1.2,1.2,0,0,0-.55-.46,2.15,2.15,0,0,0-.89-.16,2.1,2.1,0,0,0-1.2.32,1.08,1.08,0,0,0-.52.86h1a.49.49,0,0,1,.24-.29,1.06,1.06,0,0,1,.47-.09.73.73,0,0,1,.49.14.48.48,0,0,1,.17.39v.33l-.95,0a2,2,0,0,0-1.13.35,1,1,0,0,0-.4.84,1.18,1.18,0,0,0,.17.62,1.14,1.14,0,0,0,.45.42A1.6,1.6,0,0,0,364.7,98.36Zm.34-.76a.76.76,0,0,1-.44-.13.45.45,0,0,1-.17-.36.4.4,0,0,1,.16-.34.93.93,0,0,1,.5-.14l.8-.06v.3a.7.7,0,0,1-.41.63A.89.89,0,0,1,365,97.6Z" transform="translate(-13.3 -30.2)"/><polygon class="cls-28" points="357.98 64.17 356.88 64.17 356.08 67.13 356.01 67.13 355.2 64.17 354.08 64.17 355.45 68.1 356.62 68.1 357.98 64.17"/><path class="cls-28" d="M374.27,97.19a.67.67,0,0,1-.29.31,1.13,1.13,0,0,1-.51.1,1,1,0,0,1-.48-.11.85.85,0,0,1-.31-.34,1.21,1.21,0,0,1-.11-.52v0h2.7v-.31a2.35,2.35,0,0,0-.22-1.07,1.6,1.6,0,0,0-.63-.68,2,2,0,0,0-1-.24,1.94,1.94,0,0,0-1,.25,1.68,1.68,0,0,0-.65.72,2.51,2.51,0,0,0-.23,1.1,2.41,2.41,0,0,0,.23,1.09,1.58,1.58,0,0,0,.65.7,2.09,2.09,0,0,0,1,.24,2.58,2.58,0,0,0,.86-.14,1.7,1.7,0,0,0,.62-.42,1.35,1.35,0,0,0,.32-.63Zm-.84-2.13a.82.82,0,0,1,.42.1.74.74,0,0,1,.28.3,1.12,1.12,0,0,1,.12.47h-1.68a1.08,1.08,0,0,1,.13-.46.81.81,0,0,1,.3-.31A.83.83,0,0,1,373.43,95.06Z" transform="translate(-13.3 -30.2)"/><path class="cls-28" d="M377.78,95.14a.81.81,0,0,1,.48.15.92.92,0,0,1,.3.41,1.54,1.54,0,0,1,.11.63,1.56,1.56,0,0,1-.11.64,1,1,0,0,1-.3.41.87.87,0,0,1-.48.14.83.83,0,0,1-.48-.14A1.09,1.09,0,0,1,377,97a2,2,0,0,1,0-1.28.88.88,0,0,1,.3-.4A.76.76,0,0,1,377.78,95.14Zm-.35,3.22a1.59,1.59,0,0,0,.5-.08,1.2,1.2,0,0,0,.41-.24,1.12,1.12,0,0,0,.29-.36h.06v.62h1V92.86h-1V95h-.06a1.25,1.25,0,0,0-.28-.37,1.33,1.33,0,0,0-.4-.24,1.57,1.57,0,0,0-.49-.08,1.45,1.45,0,0,0-.86.25,1.56,1.56,0,0,0-.55.7,2.7,2.7,0,0,0-.2,1.08,3,3,0,0,0,.19,1.08,1.58,1.58,0,0,0,.56.7A1.43,1.43,0,0,0,377.43,98.36Z" transform="translate(-13.3 -30.2)"/><path class="cls-29" d="M21.17,114.76h.28V109.6h-.28l-.35.22-.31.19a2.11,2.11,0,0,1-.27.18l-.25.17-.23.15v.31l.3-.2.29-.19.27-.18.26-.16.26-.16h0Z" transform="translate(-13.3 -30.2)"/><rect class="cls-29" x="9.63" y="82.35" width="2.34" height="0.26"/><path class="cls-29" d="M27.54,114.76h.28V109.6h-.28l-.35.22-.31.19a2.11,2.11,0,0,1-.27.18l-.25.17-.23.15v.31l.3-.2.29-.19.27-.18.27-.16.25-.16h0Z" transform="translate(-13.3 -30.2)"/><rect class="cls-30" x="40.15" y="85.06" width="28" height="0.5"/><path class="cls-29" d="M54,114.76h.27v-2.33a1.47,1.47,0,0,1,.15-.67,1.26,1.26,0,0,1,.4-.48,1,1,0,0,1,.57-.18.94.94,0,0,1,.72.31,1.21,1.21,0,0,1,.27.82v2.53h.28v-2.4a1.38,1.38,0,0,1,.14-.65,1.07,1.07,0,0,1,.39-.45,1.13,1.13,0,0,1,.59-.16.93.93,0,0,1,.73.3,1.2,1.2,0,0,1,.25.82v2.54h.28v-2.6a1.65,1.65,0,0,0-.14-.7,1,1,0,0,0-.42-.45,1.3,1.3,0,0,0-.65-.16,1.32,1.32,0,0,0-.53.11,1.28,1.28,0,0,0-.43.3,1.33,1.33,0,0,0-.27.46h0a1.19,1.19,0,0,0-.24-.46A1,1,0,0,0,56,111a1.19,1.19,0,0,0-.51-.11,1.12,1.12,0,0,0-.72.24,1.23,1.23,0,0,0-.44.63h0v-.81H54Z" transform="translate(-13.3 -30.2)"/><path class="cls-29" d="M61.29,114.82a1.63,1.63,0,0,0,.59-.11,1.29,1.29,0,0,0,.48-.29,1.25,1.25,0,0,0,.31-.45h0v.79H63v-2.62a1.37,1.37,0,0,0-.16-.7,1.11,1.11,0,0,0-.47-.44,1.64,1.64,0,0,0-.73-.15,1.68,1.68,0,0,0-1,.27,1,1,0,0,0-.48.74h.28a.88.88,0,0,1,.4-.56,1.41,1.41,0,0,1,.76-.2,1.17,1.17,0,0,1,.81.27,1,1,0,0,1,.29.77v.38l-1.33.1a1.83,1.83,0,0,0-1,.32,1,1,0,0,0-.35.77,1.09,1.09,0,0,0,.16.58,1,1,0,0,0,.46.39A1.54,1.54,0,0,0,61.29,114.82Zm0-.25a1.13,1.13,0,0,1-.75-.24.77.77,0,0,1-.29-.62.7.7,0,0,1,.29-.6,1.64,1.64,0,0,1,.84-.26l1.28-.1v.57a1.11,1.11,0,0,1-.18.63,1.28,1.28,0,0,1-.5.45A1.41,1.41,0,0,1,61.32,114.57Z" transform="translate(-13.3 -30.2)"/><path class="cls-29" d="M64.17,110a.24.24,0,1,0,0-.48.23.23,0,0,0-.17.07.24.24,0,0,0,0,.34A.23.23,0,0,0,64.17,110ZM64,114.76h.28v-3.85H64Z" transform="translate(-13.3 -30.2)"/><path class="cls-29" d="M65.5,114.76h.28v-2.3a1.45,1.45,0,0,1,.17-.7,1.3,1.3,0,0,1,1.15-.66,1.08,1.08,0,0,1,.84.32,1.3,1.3,0,0,1,.29.9v2.44h.28v-2.52a1.41,1.41,0,0,0-.36-1,1.37,1.37,0,0,0-1-.37,1.5,1.5,0,0,0-.83.23,1.36,1.36,0,0,0-.52.64h0v-.81H65.5Z" transform="translate(-13.3 -30.2)"/><path class="cls-29" d="M70,114.78a.26.26,0,0,0,.19-.08.25.25,0,0,0,.08-.18.27.27,0,0,0-.27-.27.25.25,0,0,0-.18.08.22.22,0,0,0-.08.19.22.22,0,0,0,.08.18A.25.25,0,0,0,70,114.78Z" transform="translate(-13.3 -30.2)"/><path class="cls-29" d="M73,111.1a1.32,1.32,0,0,1,.74.22,1.49,1.49,0,0,1,.49.61,2.37,2.37,0,0,1,0,1.81,1.49,1.49,0,0,1-.49.61,1.39,1.39,0,0,1-1.47,0,1.49,1.49,0,0,1-.49-.61,2.37,2.37,0,0,1,0-1.81,1.49,1.49,0,0,1,.49-.61A1.31,1.31,0,0,1,73,111.1Zm0,3.72a1.56,1.56,0,0,0,.62-.13,1.33,1.33,0,0,0,.49-.36,1.46,1.46,0,0,0,.32-.54h0v1h.27v-5.38h-.28v2.47h0a1.51,1.51,0,0,0-.32-.53,1.57,1.57,0,0,0-.49-.35,1.51,1.51,0,0,0-.61-.12,1.54,1.54,0,0,0-.85.25,1.67,1.67,0,0,0-.58.7,2.66,2.66,0,0,0,0,2.07,1.64,1.64,0,0,0,.58.69A1.45,1.45,0,0,0,72.94,114.82Z" transform="translate(-13.3 -30.2)"/><path class="cls-29" d="M75.86,114.76h.28v-2.33a1.6,1.6,0,0,1,.14-.67,1.28,1.28,0,0,1,.41-.48.91.91,0,0,1,.56-.18.93.93,0,0,1,.72.31,1.21,1.21,0,0,1,.27.82v2.53h.28v-2.4a1.51,1.51,0,0,1,.14-.65,1.23,1.23,0,0,1,.39-.45,1.16,1.16,0,0,1,.59-.16.91.91,0,0,1,.73.3,1.2,1.2,0,0,1,.26.82v2.54h.27v-2.6a1.65,1.65,0,0,0-.14-.7,1,1,0,0,0-.42-.45,1.29,1.29,0,0,0-.64-.16,1.33,1.33,0,0,0-.54.11,1.25,1.25,0,0,0-.42.3,1.53,1.53,0,0,0-.28.46h0a1.33,1.33,0,0,0-.23-.46,1.14,1.14,0,0,0-.39-.3,1.19,1.19,0,0,0-.51-.11,1.16,1.16,0,0,0-.72.24,1.29,1.29,0,0,0-.44.63h0v-.81h-.27Z" transform="translate(-13.3 -30.2)"/><path class="cls-29" d="M298.38,112.6a5.83,5.83,0,0,0,.12,1.18,5.09,5.09,0,0,0,.33,1.11,4.09,4.09,0,0,0,.53.94h.26a4.22,4.22,0,0,1-.39-.67,5.93,5.93,0,0,1-.31-.81,8.6,8.6,0,0,1-.19-.88,6.58,6.58,0,0,1-.06-.87,6.33,6.33,0,0,1,.06-.86,8.6,8.6,0,0,1,.19-.88,5.93,5.93,0,0,1,.31-.81,3.82,3.82,0,0,1,.39-.67h-.26a3.89,3.89,0,0,0-.53.94,5.09,5.09,0,0,0-.33,1.11A5.81,5.81,0,0,0,298.38,112.6Z" transform="translate(-13.3 -30.2)"/><rect class="cls-30" x="286.67" y="85.06" width="14.16" height="0.5"/><path class="cls-29" d="M300.6,114.76h.28v-2.3a1.37,1.37,0,0,1,.17-.7,1.27,1.27,0,0,1,.47-.48,1.31,1.31,0,0,1,.69-.18,1.11,1.11,0,0,1,.84.32,1.3,1.3,0,0,1,.29.9v2.44h.27v-2.52a1.41,1.41,0,0,0-.36-1,1.34,1.34,0,0,0-1-.37,1.5,1.5,0,0,0-.83.23,1.38,1.38,0,0,0-.53.64h0v-2.34h-.28Z" transform="translate(-13.3 -30.2)"/><path class="cls-29" d="M305,109.91v1h-.64v.24H305v2.71a1,1,0,0,0,.21.69,1,1,0,0,0,.7.21h.3v-.24h-.28a.66.66,0,0,1-.5-.17.74.74,0,0,1-.16-.54v-2.66h.94v-.24h-.94v-1Z" transform="translate(-13.3 -30.2)"/><path class="cls-29" d="M307.13,114.76h.28v-2.33a1.47,1.47,0,0,1,.15-.67,1.26,1.26,0,0,1,.4-.48,1,1,0,0,1,.56-.18.93.93,0,0,1,.72.31,1.21,1.21,0,0,1,.28.82v2.53h.27v-2.4a1.51,1.51,0,0,1,.14-.65,1.17,1.17,0,0,1,.4-.45,1.09,1.09,0,0,1,.58-.16.9.9,0,0,1,.73.3,1.2,1.2,0,0,1,.26.82v2.54h.27v-2.6a1.51,1.51,0,0,0-.14-.7,1,1,0,0,0-.41-.45,1.33,1.33,0,0,0-.65-.16,1.41,1.41,0,0,0-.54.11,1.25,1.25,0,0,0-.42.3,1.33,1.33,0,0,0-.27.46h0a1.33,1.33,0,0,0-.23-.46,1,1,0,0,0-.39-.3,1.19,1.19,0,0,0-.51-.11,1.16,1.16,0,0,0-.72.24,1.21,1.21,0,0,0-.43.63h0v-.81h-.27Z" transform="translate(-13.3 -30.2)"/><rect class="cls-29" x="299.94" y="79.18" width="0.27" height="5.38"/><path class="cls-29" d="M315.75,112.6a5.81,5.81,0,0,0-.12-1.17,5.09,5.09,0,0,0-.33-1.11,3.89,3.89,0,0,0-.53-.94h-.26a3.48,3.48,0,0,1,.39.66,6.63,6.63,0,0,1,.31.82,7.88,7.88,0,0,1,.19.87,6.58,6.58,0,0,1,.06.87,6.36,6.36,0,0,1-.06.87,6.59,6.59,0,0,1-.2.88,4.85,4.85,0,0,1-.3.81,3.58,3.58,0,0,1-.39.67h.26a4.09,4.09,0,0,0,.53-.94,5.09,5.09,0,0,0,.33-1.11A5.83,5.83,0,0,0,315.75,112.6Z" transform="translate(-13.3 -30.2)"/><polygon class="cls-29" points="327.89 80.57 327.89 75.91 327.92 75.91 331.22 80.57 331.49 80.57 331.49 75.42 331.21 75.42 331.21 80.05 331.18 80.05 327.9 75.42 327.61 75.42 327.61 80.57 327.89 80.57"/><path class="cls-29" d="M347.51,110.57a1.35,1.35,0,0,1-.76-.21,1.42,1.42,0,0,1-.5-.6,2.55,2.55,0,0,1,0-1.83,1.42,1.42,0,0,1,.5-.6,1.42,1.42,0,0,1,1.52,0,1.42,1.42,0,0,1,.5.6,2.31,2.31,0,0,1,.17.91,2.36,2.36,0,0,1-.17.92,1.42,1.42,0,0,1-.5.6A1.35,1.35,0,0,1,347.51,110.57Zm0,.26a1.61,1.61,0,0,0,.91-.25,1.57,1.57,0,0,0,.59-.68,2.76,2.76,0,0,0,0-2.11,1.6,1.6,0,0,0-.59-.69,1.85,1.85,0,0,0-1.82,0,1.67,1.67,0,0,0-.59.69,2.76,2.76,0,0,0,0,2.11,1.64,1.64,0,0,0,.59.68A1.61,1.61,0,0,0,347.51,110.83Z" transform="translate(-13.3 -30.2)"/><polygon class="cls-29" points="339.6 76.72 339.31 76.72 338 80.28 337.97 80.28 336.67 76.72 336.37 76.72 337.82 80.57 338.15 80.57 339.6 76.72"/><path class="cls-29" d="M357.07,110.6a1.2,1.2,0,0,1-.81-.29,2,2,0,0,1-.53-.84,4.64,4.64,0,0,1,0-2.56,1.86,1.86,0,0,1,.53-.83,1.15,1.15,0,0,1,.81-.29,1.23,1.23,0,0,1,.81.28,1.82,1.82,0,0,1,.52.83,4.08,4.08,0,0,1,.19,1.29,4,4,0,0,1-.19,1.28,1.86,1.86,0,0,1-.52.84A1.24,1.24,0,0,1,357.07,110.6Zm0,.25a1.52,1.52,0,0,0,1-.32,2,2,0,0,0,.62-.92,4.69,4.69,0,0,0,0-2.84,2,2,0,0,0-.62-.92,1.52,1.52,0,0,0-1-.32,1.55,1.55,0,0,0-1,.32,2,2,0,0,0-.62.92,4.69,4.69,0,0,0,0,2.84,2,2,0,0,0,.62.92A1.55,1.55,0,0,0,357.07,110.85Z" transform="translate(-13.3 -30.2)"/><path class="cls-29" d="M361.44,110.85a1.83,1.83,0,0,0,.91-.22A1.68,1.68,0,0,0,363,110a1.72,1.72,0,0,0,.23-.88,1.75,1.75,0,0,0-.22-.87,1.64,1.64,0,0,0-.61-.59,1.85,1.85,0,0,0-1.65,0,1.31,1.31,0,0,0-.54.44h0l.2-2.19h2.5v-.26h-2.74l-.27,2.83h.29a1.05,1.05,0,0,1,.31-.39,1.58,1.58,0,0,1,.46-.25,1.49,1.49,0,0,1,.55-.1,1.54,1.54,0,0,1,.74.19,1.42,1.42,0,0,1,.72,1.24,1.45,1.45,0,0,1-.2.75,1.3,1.3,0,0,1-.52.52,1.57,1.57,0,0,1-1.42,0,1.41,1.41,0,0,1-.5-.4.89.89,0,0,1-.22-.55h-.29a1.3,1.3,0,0,0,.26.69,1.69,1.69,0,0,0,.6.49A1.85,1.85,0,0,0,361.44,110.85Z" transform="translate(-13.3 -30.2)"/><polygon class="cls-29" points="350.66 81.73 351.13 80.01 350.81 80.01 350.44 81.73 350.66 81.73"/><path class="cls-29" d="M367.48,107h.28a1.17,1.17,0,0,1,.63-1.06,1.34,1.34,0,0,1,.66-.16,1.25,1.25,0,0,1,.65.16,1,1,0,0,1,.45.42,1.13,1.13,0,0,1,.17.6,1.27,1.27,0,0,1-.09.47,2.18,2.18,0,0,1-.3.5c-.15.19-.35.42-.61.7l-1.81,1.92v.22h3.28v-.26h-2.88v0l1.57-1.65c.3-.31.52-.57.69-.78a2.57,2.57,0,0,0,.34-.57,1.66,1.66,0,0,0,.1-.54,1.27,1.27,0,0,0-.21-.72,1.5,1.5,0,0,0-.55-.51,1.7,1.7,0,0,0-.79-.18,1.6,1.6,0,0,0-.8.19,1.34,1.34,0,0,0-.56.52A1.47,1.47,0,0,0,367.48,107Z" transform="translate(-13.3 -30.2)"/><path class="cls-29" d="M373.34,110.6a1.24,1.24,0,0,1-.81-.29,2,2,0,0,1-.52-.84,4.41,4.41,0,0,1,0-2.56,1.85,1.85,0,0,1,.52-.83,1.19,1.19,0,0,1,.81-.29,1.24,1.24,0,0,1,.82.28,1.91,1.91,0,0,1,.52.83,4.1,4.1,0,0,1,.18,1.29,4,4,0,0,1-.18,1.28,2,2,0,0,1-.52.84A1.24,1.24,0,0,1,373.34,110.6Zm0,.25a1.53,1.53,0,0,0,1-.32,2,2,0,0,0,.62-.92,4.69,4.69,0,0,0,0-2.84,2,2,0,0,0-.62-.92,1.62,1.62,0,0,0-1.93,0,2,2,0,0,0-.62.92,4.69,4.69,0,0,0,0,2.84,2,2,0,0,0,.62.92A1.52,1.52,0,0,0,373.34,110.85Z" transform="translate(-13.3 -30.2)"/><path class="cls-29" d="M376,107h.27a1.29,1.29,0,0,1,.18-.63,1.12,1.12,0,0,1,.46-.43,1.42,1.42,0,0,1,1.31,0,1.15,1.15,0,0,1,.62,1,1.27,1.27,0,0,1-.09.47,2.28,2.28,0,0,1-.31.5,9,9,0,0,1-.61.7L376,110.55v.22h3.29v-.26h-2.88v0l1.57-1.65c.29-.31.52-.57.68-.78a2.24,2.24,0,0,0,.34-.57,1.44,1.44,0,0,0,.1-.54,1.26,1.26,0,0,0-.2-.72,1.59,1.59,0,0,0-.55-.51,1.73,1.73,0,0,0-.79-.18,1.67,1.67,0,0,0-.81.19A1.42,1.42,0,0,0,376,107Z" transform="translate(-13.3 -30.2)"/><path class="cls-29" d="M381.84,110.6a1.24,1.24,0,0,1-.81-.29,1.86,1.86,0,0,1-.52-.84,4.41,4.41,0,0,1,0-2.56,1.77,1.77,0,0,1,.52-.83,1.29,1.29,0,0,1,1.62,0,1.82,1.82,0,0,1,.52.83,3.81,3.81,0,0,1,.19,1.29,3.75,3.75,0,0,1-.19,1.28,1.86,1.86,0,0,1-.52.84A1.2,1.2,0,0,1,381.84,110.6Zm0,.25a1.53,1.53,0,0,0,1-.32,2.11,2.11,0,0,0,.62-.92,4.91,4.91,0,0,0,0-2.84,2.11,2.11,0,0,0-.62-.92,1.62,1.62,0,0,0-1.93,0,2,2,0,0,0-.63.92,4.91,4.91,0,0,0,0,2.84,2,2,0,0,0,.63.92A1.52,1.52,0,0,0,381.84,110.85Z" transform="translate(-13.3 -30.2)"/><path class="cls-29" d="M349.69,117.58a4.6,4.6,0,0,0,.09.91,4.08,4.08,0,0,0,.26.86,3.14,3.14,0,0,0,.41.72h.2a3.44,3.44,0,0,1-.31-.51,3.9,3.9,0,0,1-.23-.63c-.06-.22-.11-.45-.15-.68a4.51,4.51,0,0,1,0-1.34c0-.23.09-.46.15-.68a5.87,5.87,0,0,1,.24-.63,3.11,3.11,0,0,1,.3-.51h-.2a3.14,3.14,0,0,0-.41.72,4.08,4.08,0,0,0-.26.86A4.68,4.68,0,0,0,349.69,117.58Z" transform="translate(-13.3 -30.2)"/><path class="cls-29" d="M352.37,119.24h.22v-4h-.22l-.27.17-.23.15-.22.14-.19.12-.18.13v.23l.23-.15.23-.15.21-.13.2-.13.2-.13h0Z" transform="translate(-13.3 -30.2)"/><path class="cls-29" d="M353.73,116.33h.21a.87.87,0,0,1,.14-.48.82.82,0,0,1,.35-.34,1.07,1.07,0,0,1,.51-.12,1,1,0,0,1,.5.12.86.86,0,0,1,.35.33.82.82,0,0,1,.13.46.86.86,0,0,1-.07.36,1.36,1.36,0,0,1-.23.39,6.28,6.28,0,0,1-.48.54l-1.4,1.49v.16h2.55V119h-2.23v0l1.21-1.27a7.14,7.14,0,0,0,.53-.6,2.05,2.05,0,0,0,.27-.45,1.14,1.14,0,0,0,.07-.41,1,1,0,0,0-.16-.56,1.13,1.13,0,0,0-.42-.39,1.25,1.25,0,0,0-.61-.14,1.38,1.38,0,0,0-.62.14,1.14,1.14,0,0,0-.44.4A1.16,1.16,0,0,0,353.73,116.33Z" transform="translate(-13.3 -30.2)"/><path class="cls-29" d="M357.44,116.24a.21.21,0,0,0,.2-.2.2.2,0,0,0-.06-.15.2.2,0,0,0-.14-.06.21.21,0,0,0-.21.21.2.2,0,0,0,.06.14A.2.2,0,0,0,357.44,116.24Zm0,2.43a.2.2,0,0,0,.14-.06.18.18,0,0,0,.06-.14.17.17,0,0,0-.06-.14.2.2,0,0,0-.14-.06.2.2,0,0,0-.15.06.17.17,0,0,0-.06.14.18.18,0,0,0,.06.14A.2.2,0,0,0,357.44,118.67Z" transform="translate(-13.3 -30.2)"/><path class="cls-29" d="M359.42,117.27h.45a1.43,1.43,0,0,1,.87.24.77.77,0,0,1,.31.65.86.86,0,0,1-.15.49,1,1,0,0,1-.41.34,1.34,1.34,0,0,1-.58.12,1.24,1.24,0,0,1-.54-.11,1.12,1.12,0,0,1-.39-.32.69.69,0,0,1-.16-.43h-.22a1,1,0,0,0,.19.54,1.27,1.27,0,0,0,.47.38,1.58,1.58,0,0,0,.65.14,1.6,1.6,0,0,0,.7-.15,1.21,1.21,0,0,0,.48-.41,1,1,0,0,0-.08-1.27,1.19,1.19,0,0,0-.72-.31h0a1.15,1.15,0,0,0,.42-.19.87.87,0,0,0,.28-.32,1,1,0,0,0,.09-.44.8.8,0,0,0-.15-.51,1.23,1.23,0,0,0-.41-.37,1.5,1.5,0,0,0-1.22,0,1.17,1.17,0,0,0-.43.36,1,1,0,0,0-.18.53h.21a.94.94,0,0,1,.16-.43.84.84,0,0,1,.35-.29,1.1,1.1,0,0,1,.49-.11,1,1,0,0,1,.49.12.85.85,0,0,1,.35.3.74.74,0,0,1,.12.42.78.78,0,0,1-.12.44.85.85,0,0,1-.35.3,1.12,1.12,0,0,1-.53.11h-.44Z" transform="translate(-13.3 -30.2)"/><path class="cls-29" d="M363.33,117.67a1.21,1.21,0,0,1-.58-.14,1.1,1.1,0,0,1-.54-1,1.15,1.15,0,0,1,.15-.59,1.08,1.08,0,0,1,.4-.42,1.1,1.1,0,0,1,.57-.15,1.07,1.07,0,0,1,.59.16,1.13,1.13,0,0,1,.41.43,1.29,1.29,0,0,1,.15.62,1,1,0,0,1-.16.52,1.12,1.12,0,0,1-.41.4A1.27,1.27,0,0,1,363.33,117.67Zm0,1.64a1.25,1.25,0,0,0,.79-.26,1.71,1.71,0,0,0,.5-.75,3.35,3.35,0,0,0,.18-1.15,3,3,0,0,0-.12-.9,1.7,1.7,0,0,0-.31-.6,1.15,1.15,0,0,0-.46-.34,1.33,1.33,0,0,0-.56-.11,1.31,1.31,0,0,0-.69.18,1.38,1.38,0,0,0-.48.48,1.49,1.49,0,0,0-.17.71,1.28,1.28,0,0,0,.64,1.13,1.4,1.4,0,0,0,.68.17,1.26,1.26,0,0,0,.55-.12,1.24,1.24,0,0,0,.43-.32.92.92,0,0,0,.25-.45h0a3.92,3.92,0,0,1-.08,1,1.82,1.82,0,0,1-.26.66,1,1,0,0,1-.4.39,1,1,0,0,1-.51.13,1,1,0,0,1-.68-.22.9.9,0,0,1-.33-.56h-.22a1.15,1.15,0,0,0,.21.51,1.23,1.23,0,0,0,.43.35A1.38,1.38,0,0,0,363.31,119.31Z" transform="translate(-13.3 -30.2)"/><path class="cls-29" d="M365.9,115.46h1a1.14,1.14,0,0,1,.8.27,1,1,0,0,1,.29.72.92.92,0,0,1-.29.72,1.16,1.16,0,0,1-.8.27h-1Zm-.22-.2v4h.22v-1.6H367a1.48,1.48,0,0,0,.68-.15,1,1,0,0,0,.44-.41,1.18,1.18,0,0,0,.16-.63,1.12,1.12,0,0,0-.16-.62,1.05,1.05,0,0,0-.44-.42,1.45,1.45,0,0,0-.68-.15Z" transform="translate(-13.3 -30.2)"/><polygon class="cls-29" points="359.52 89.05 359.52 85.07 359.27 85.07 357.67 88.76 357.65 88.76 356.05 85.07 355.8 85.07 355.8 89.05 356.01 89.05 356.01 85.53 356.03 85.53 357.56 89.05 357.77 89.05 359.3 85.53 359.31 85.53 359.31 89.05 359.52 89.05"/><path class="cls-29" d="M374.65,117.58a4.68,4.68,0,0,0-.09-.91,4.06,4.06,0,0,0-.25-.86,3.17,3.17,0,0,0-.42-.72h-.2a2.57,2.57,0,0,1,.31.51,4.29,4.29,0,0,1,.23.63,3.93,3.93,0,0,1,.15.68,4.51,4.51,0,0,1,0,1.34,3.93,3.93,0,0,1-.15.68,4.29,4.29,0,0,1-.23.63,2.31,2.31,0,0,1-.31.51h.2a3.17,3.17,0,0,0,.42-.72,4.06,4.06,0,0,0,.25-.86A4.6,4.6,0,0,0,374.65,117.58Z" transform="translate(-13.3 -30.2)"/></svg>