<svg id="Layer_1" data-name="Layer 1" xmlns="http://www.w3.org/2000/svg" xmlns:xlink="http://www.w3.org/1999/xlink" viewBox="0 0 494.75 127.68"><defs><style>.cls-1,.cls-19,.cls-2,.cls-3{fill:none;}.cls-2{fill-rule:evenodd;}.cls-3{clip-rule:evenodd;}.cls-4{clip-path:url(#clip-path);}.cls-5{fill:#fff;}.cls-6{clip-path:url(#clip-path-3);}.cls-7{clip-path:url(#clip-path-4);}.cls-8{clip-path:url(#clip-path-5);}.cls-9{clip-path:url(#clip-path-6);}.cls-10{fill:#ccc;}.cls-11{clip-path:url(#clip-path-11);}.cls-12{clip-path:url(#clip-path-12);}.cls-13{clip-path:url(#clip-path-17);}.cls-14{clip-path:url(#clip-path-18);}.cls-15{font-size:13.96px;font-family:font0000000025548042;}.cls-15,.cls-16,.cls-17{fill:#444;}.cls-16,.cls-17{font-size:9.31px;}.cls-16{font-family:Helvetica-Light, Helvetica;font-weight:300;}.cls-17{font-family:Palatino-Italic, Palatino;font-style:italic;}.cls-18{clip-path:url(#clip-path-20);}.cls-19{stroke:#999;stroke-linecap:round;stroke-miterlimit:10;stroke-width:1px;}</style><clipPath id="clip-path" transform="translate(-55.96 -18)"><rect class="cls-1" x="42" y="18" width="522" height="754"/></clipPath><clipPath id="clip-path-3" transform="translate(-55.96 -18)"><rect class="cls-1" x="42" y="18" width="522.68" height="754.59"/></clipPath><clipPath id="clip-path-4" transform="translate(-55.96 -18)"><path class="cls-1" d="M56,143.68V18H550.72V143.68a2,2,0,0,1-2,2H58a2,2,0,0,1-2-2Z"/></clipPath><clipPath id="clip-path-5" transform="translate(-55.96 -18)"><path class="cls-3" d="M56.46,18H56V145.68H550.72V18h-.5V143.68a1.44,1.44,0,0,1-.44,1.06,1.46,1.46,0,0,1-1.06.44H58a1.46,1.46,0,0,1-1.06-.44,1.44,1.44,0,0,1-.44-1.06Z"/></clipPath><clipPath id="clip-path-6" transform="translate(-55.96 -18)"><polyline class="cls-1" points="550.72 145.68 549.47 144.43 57.21 144.43 55.97 145.68"/></clipPath><clipPath id="clip-path-11" transform="translate(-55.96 -18)"><rect class="cls-1" x="549.47" y="17.95" width="1.25" height="127.73"/></clipPath><clipPath id="clip-path-12" transform="translate(-55.96 -18)"><polyline class="cls-1" points="550.72 18 549.47 18 549.47 144.48 550.72 145.73"/></clipPath><clipPath id="clip-path-17" transform="translate(-55.96 -18)"><polyline class="cls-1" points="55.97 145.73 57.21 144.48 57.21 18 55.97 18"/></clipPath><clipPath id="clip-path-18" transform="translate(-55.96 -18)"><rect class="cls-1" x="55.96" y="17.95" width="1.25" height="127.73"/></clipPath><clipPath id="clip-path-20" transform="translate(-55.96 -18)"><rect class="cls-1" x="62.95" y="25.98" width="9.97" height="9.97"/></clipPath></defs><g class="cls-4"><path class="cls-5" d="M56.21,143.68V18H550.47V143.68a1.71,1.71,0,0,1-.14.67,1.77,1.77,0,0,1-.94,1,2,2,0,0,1-.67.13H58a2,2,0,0,1-.67-.13,1.77,1.77,0,0,1-.94-1A1.71,1.71,0,0,1,56.21,143.68Z" transform="translate(-55.96 -18)"/></g><g class="cls-4"><g class="cls-6"><g class="cls-7"><g class="cls-8"><g class="cls-9"><rect class="cls-10" width="494.75" height="127.68"/></g></g></g></g></g><g class="cls-4"><g class="cls-6"><g class="cls-7"><g class="cls-8"><g class="cls-11"><g class="cls-12"><rect class="cls-10" width="494.75" height="127.68"/></g></g></g></g></g></g><g class="cls-4"><g class="cls-6"><g class="cls-7"><g class="cls-8"><g class="cls-13"><g class="cls-14"><rect class="cls-10" width="494.75" height="127.68"/></g></g></g></g></g></g><g class="cls-4"><text class="cls-15" transform="translate(24.44 34.91)">Chapter 1. This is my ﬁrst chapter</text><text class="cls-16" transform="translate(24.44 58.35)">I</text><text class="cls-16" transform="translate(27.57 58.35)"> </text><text class="cls-16" transform="translate(29.9 58.35)">a</text><text class="cls-16" transform="translate(34.55 58.35)">m</text><text class="cls-16" transform="translate(42.77 58.35)"> </text><text class="cls-17" transform="translate(45.09 58.35)">h</text><text class="cls-17" transform="translate(49.74 58.35)">e</text><text class="cls-17" transform="translate(53.36 58.35)">r</text><text class="cls-17" transform="translate(56.82 58.35)">e</text><text class="cls-16" transform="translate(60.44 58.35)"> </text><text class="cls-16" transform="translate(62.77 58.35)">t</text><text class="cls-16" transform="translate(65.8 58.35)">o</text><text class="cls-16" transform="translate(70.88 58.35)"> </text><text class="cls-16" transform="translate(73.21 58.35)">s</text><text class="cls-16" transform="translate(77.15 58.35)">h</text><text class="cls-16" transform="translate(82.57 58.35)">o</text><text class="cls-16" transform="translate(87.65 58.35)">w</text><text class="cls-16" transform="translate(95.41 58.35)"> </text><text class="cls-16" transform="translate(97.74 58.35)">y</text><text class="cls-16" transform="translate(102.92 58.35)">o</text><text class="cls-16" transform="translate(108 58.35)">u</text><text class="cls-16" transform="translate(113.61 58.35)"> </text><text class="cls-16" transform="translate(115.93 58.35)">h</text><text class="cls-16" transform="translate(121.35 58.35)">o</text><text class="cls-16" transform="translate(126.43 58.35)">w</text><text class="cls-16" transform="translate(134.19 58.35)"> </text><text class="cls-16" transform="translate(136.52 58.35)">t</text><text class="cls-16" transform="translate(139.56 58.35)">h</text><text class="cls-16" transform="translate(144.97 58.35)">i</text><text class="cls-16" transform="translate(147.68 58.35)">s</text><text class="cls-16" transform="translate(151.62 58.35)"> </text><text class="cls-16" transform="translate(153.95 58.35)">w</text><text class="cls-16" transform="translate(161.71 58.35)">o</text><text class="cls-16" transform="translate(166.79 58.35)">r</text><text class="cls-16" transform="translate(170.47 58.35)">k</text><text class="cls-16" transform="translate(175.65 58.35)">s</text><text class="cls-16" transform="translate(179.59 58.35)">.</text></g><g class="cls-18"><rect class="cls-5" x="7.23" y="8.28" width="9.48" height="9.43" rx="0.65"/><line class="cls-19" x1="9.18" y1="10.22" x2="14.71" y2="10.22"/><line class="cls-19" x1="9.18" y1="12.97" x2="14.71" y2="12.97"/><line class="cls-19" x1="9.18" y1="15.76" x2="14.71" y2="15.76"/></g></svg>