<?xml version="1.0" encoding="utf-8"?>
<!-- Generator: Adobe Illustrator 22.0.0, SVG Export Plug-In . SVG Version: 6.00 Build 0)  -->
<svg version="1.1" id="Layer_1" xmlns="http://www.w3.org/2000/svg" xmlns:xlink="http://www.w3.org/1999/xlink" x="0px" y="0px"
	 viewBox="0 0 26 26" style="enable-background:new 0 0 26 26;" xml:space="preserve">
<style type="text/css">
	.st0{fill:#EEEEEE;stroke:#AAAAAA;stroke-width:2;stroke-miterlimit:10;}
	.st1{fill:#DDDDDD;stroke:#777777;stroke-width:2;stroke-miterlimit:10;}
</style>
<path class="st0" d="M16.1,18.4H4.3c-1.2,0-2.3-1-2.3-2.3V4.3C2,3,3,2,4.3,2h11.9c1.2,0,2.3,1,2.3,2.3v11.9
	C18.4,17.4,17.4,18.4,16.1,18.4z"/>
<path class="st1" d="M22.7,23.7H10.9c-1.2,0-2.3-1-2.3-2.3V9.6c0-1.2,1-2.3,2.3-2.3h11.9c1.2,0,2.3,1,2.3,2.3v11.9
	C25,22.7,24,23.7,22.7,23.7z"/>
</svg>
